M48
; DRILL file {KiCad 6.0.1} date lun. 20 juin 2022 02:46:23
; FORMAT={-:-/ absolute / inch / decimal}
; #@! TF.CreationDate,2022-06-20T02:46:23+02:00
; #@! TF.GenerationSoftware,Kicad,Pcbnew,6.0.1
; #@! TF.FileFunction,Plated,1,2,PTH
FMAT,2
INCH
; #@! TA.AperFunction,Plated,PTH,ViaDrill
T1C0.0197
; #@! TA.AperFunction,Plated,PTH,ViaDrill
T2C0.0236
; #@! TA.AperFunction,Plated,PTH,ViaDrill
T3C0.0315
; #@! TA.AperFunction,Plated,PTH,ComponentDrill
T4C0.0394
; #@! TA.AperFunction,Plated,PTH,ComponentDrill
T5C0.0472
%
G90
G05
T1
X5.4993Y-4.3084
X5.5Y-4.21
X5.5002Y-4.4113
X5.5002Y-4.5195
X5.5002Y-4.6179
X5.5494Y-4.2538
X5.5494Y-4.362
X5.5494Y-4.5687
X5.55Y-4.68
X5.5512Y-4.4488
X6.1202Y-4.2538
X6.1202Y-4.3522
X6.1202Y-4.4802
X6.1202Y-4.5884
X6.1793Y-4.2144
X6.1793Y-4.303
X6.1793Y-4.4113
X6.1793Y-4.5392
X6.18Y-4.645
T2
X5.1024Y-3.7165
X5.1811Y-4.6614
X5.2835Y-3.9055
X5.3543Y-4.6457
X5.3799Y-3.8516
X5.4016Y-4.8189
X5.4194Y-3.8051
X5.4583Y-3.7599
X5.4976Y-3.71
X5.5276Y-4.0472
X5.5512Y-3.189
X5.5512Y-4.775
X5.7247Y-4.5449
X5.7248Y-4.6
X5.7678Y-4.4976
X5.8378Y-4.0366
X5.8504Y-4.7717
X5.8993Y-4.2825
X5.9242Y-4.3375
X5.9706Y-4.2402
X6.0336Y-4.1672
X6.1102Y-4.811
X6.2126Y-4.0472
X6.3228Y-4.1693
X6.4075Y-4.0991
X6.5827Y-3.6457
T3
X5.075Y-4.42
X5.1743Y-4.54
X5.1744Y-4.3328
X5.2747Y-4.4241
X6.0894Y-3.5079
X6.405Y-4.415
X6.5071Y-4.476
X6.509Y-4.2982
X6.6063Y-4.4094
T4
X5.2Y-3.2
X5.2Y-3.3
X5.2Y-3.4
X5.2Y-3.5
X5.2Y-3.6
X6.5059Y-3.2185
X6.5059Y-3.3185
X6.5059Y-3.4185
T5
X5.073Y-4.9217
X5.073Y-5.1185
X5.273Y-4.9217
X5.273Y-5.1185
X5.765Y-3.1723
X5.765Y-3.3692
X5.965Y-3.1723
X5.965Y-3.3692
X6.406Y-4.9212
X6.406Y-5.1181
X6.606Y-4.9212
X6.606Y-5.1181
T0
M30
