M48
; DRILL file {KiCad 5.99.0+really5.1.10+dfsg1-1} date Mon Jun 20 00:45:24 2022
; FORMAT={-:-/ absolute / metric / decimal}
; #@! TF.CreationDate,2022-06-20T00:45:24+02:00
; #@! TF.GenerationSoftware,Kicad,Pcbnew,5.99.0+really5.1.10+dfsg1-1
FMAT,2
METRIC
T1C0.500
T2C0.600
T3C0.800
T4C1.016
T5C1.200
T6C2.800
%
G90
G05
T1
X139.682Y-109.432
X139.682Y-118.932
X139.704Y-112.046
X139.704Y-114.796
X139.704Y-117.296
X140.954Y-108.046
X140.954Y-110.796
X140.954Y-116.046
X141.0Y-113.0
X155.454Y-108.046
X155.454Y-110.546
X155.454Y-113.796
X155.454Y-116.546
X155.5Y-118.75
X156.954Y-107.046
X156.954Y-109.296
X156.954Y-112.046
X156.954Y-115.296
T2
X129.6Y-94.4
X131.6Y-118.4
X134.2Y-99.2
X136.0Y-118.0
X136.65Y-97.83
X137.2Y-122.4
X137.653Y-96.65
X138.64Y-95.441
X139.64Y-94.31
X140.4Y-102.8
X141.0Y-81.0
X141.0Y-122.0
X145.035Y-117.174
X145.407Y-115.441
X146.502Y-114.24
X148.28Y-102.53
X148.6Y-121.2
X149.842Y-108.776
X150.474Y-110.174
X151.654Y-107.701
X153.254Y-105.846
X155.2Y-122.2
X157.8Y-102.8
X160.6Y-105.9
X162.75Y-103.4
X167.2Y-92.6
T3
X129.108Y-112.3
X131.428Y-114.53
X131.429Y-110.052
X134.072Y-112.369
X154.67Y-89.1
X162.135Y-112.024
X165.28Y-113.69
X165.33Y-109.68
X167.8Y-112.0
T4
X132.143Y-80.417
X132.143Y-82.957
X132.143Y-85.497
X132.143Y-88.037
X132.143Y-90.577
X165.401Y-81.739
X165.401Y-84.279
X165.401Y-86.819
T5
X128.853Y-125.011
X128.853Y-130.011
X133.933Y-125.011
X133.933Y-130.011
X146.431Y-80.577
X146.431Y-85.577
X151.511Y-80.577
X151.511Y-85.577
X162.712Y-124.999
X162.712Y-129.999
X167.792Y-124.999
X167.792Y-129.999
T6
X137.0Y-81.0
X157.0Y-81.0
X157.0Y-129.174
T0
M30
