%TF.GenerationSoftware,KiCad,Pcbnew,6.0.1*%
%TF.CreationDate,2022-06-20T02:46:21+02:00*%
%TF.ProjectId,PontHComplet_MK2,506f6e74-4843-46f6-9d70-6c65745f4d4b,rev?*%
%TF.SameCoordinates,Original*%
%TF.FileFunction,Soldermask,Bot*%
%TF.FilePolarity,Negative*%
%FSLAX46Y46*%
G04 Gerber Fmt 4.6, Leading zero omitted, Abs format (unit mm)*
G04 Created by KiCad (PCBNEW 6.0.1) date 2022-06-20 02:46:21*
%MOMM*%
%LPD*%
G01*
G04 APERTURE LIST*
%TA.AperFunction,Profile*%
%ADD10C,0.050000*%
%TD*%
%ADD11R,1.700000X1.700000*%
%ADD12O,1.700000X1.700000*%
%ADD13O,2.003200X3.803200*%
%ADD14C,2.800000*%
G04 APERTURE END LIST*
D10*
X126000000Y-133000000D02*
X170500000Y-132983704D01*
X170500000Y-132983704D02*
X170500000Y-77000000D01*
X170500000Y-77000000D02*
X126000000Y-77000000D01*
X126000000Y-77000000D02*
X126000000Y-133000000D01*
X125166666Y-135250000D02*
G75*
G03*
X125166666Y-135250000I-1666666J0D01*
G01*
X121000000Y-135250000D02*
X126000000Y-135250000D01*
X123500000Y-132750000D02*
X123500000Y-137750000D01*
X174166666Y-75000000D02*
G75*
G03*
X174166666Y-75000000I-1666666J0D01*
G01*
X170000000Y-75000000D02*
X175000000Y-75000000D01*
X172500000Y-72500000D02*
X172500000Y-77500000D01*
D11*
%TO.C,JP1*%
X165250000Y-81750000D03*
D12*
X165250000Y-84290000D03*
X165250000Y-86830000D03*
%TD*%
D11*
%TO.C,JP2*%
X132080000Y-91440000D03*
D12*
X132080000Y-88900000D03*
X132080000Y-86360000D03*
X132080000Y-83820000D03*
X132080000Y-81280000D03*
%TD*%
D13*
%TO.C,MOTEUR_D1*%
X133933406Y-130010636D03*
X128853406Y-130010636D03*
X133933406Y-125010636D03*
X128853406Y-125010636D03*
%TD*%
%TO.C,MOTEUR_G1*%
X167791606Y-129999205D03*
X162711606Y-129999205D03*
X167791606Y-124999205D03*
X162711606Y-124999205D03*
%TD*%
%TO.C,X1*%
X146430577Y-80577102D03*
X151510577Y-80577102D03*
X146430577Y-85577102D03*
X151510577Y-85577102D03*
%TD*%
D14*
%TO.C,H1*%
X157000000Y-129173545D03*
%TD*%
%TO.C,H3*%
X137000000Y-81000000D03*
%TD*%
%TO.C,H2*%
X157000000Y-81000000D03*
%TD*%
M02*
