%TF.GenerationSoftware,KiCad,Pcbnew,6.0.1*%
%TF.CreationDate,2022-06-20T02:46:21+02:00*%
%TF.ProjectId,PontHComplet_MK2,506f6e74-4843-46f6-9d70-6c65745f4d4b,rev?*%
%TF.SameCoordinates,Original*%
%TF.FileFunction,Copper,L1,Top*%
%TF.FilePolarity,Positive*%
%FSLAX46Y46*%
G04 Gerber Fmt 4.6, Leading zero omitted, Abs format (unit mm)*
G04 Created by KiCad (PCBNEW 6.0.1) date 2022-06-20 02:46:21*
%MOMM*%
%LPD*%
G01*
G04 APERTURE LIST*
%TA.AperFunction,Profile*%
%ADD10C,0.050000*%
%TD*%
%ADD11C,0.300000*%
%TA.AperFunction,NonConductor*%
%ADD12C,0.300000*%
%TD*%
%ADD13C,0.400000*%
%TA.AperFunction,NonConductor*%
%ADD14C,0.400000*%
%TD*%
%TA.AperFunction,SMDPad,CuDef*%
%ADD15R,1.800000X1.325000*%
%TD*%
%TA.AperFunction,SMDPad,CuDef*%
%ADD16R,1.600000X0.450000*%
%TD*%
%TA.AperFunction,SMDPad,CuDef*%
%ADD17R,3.100000X5.180000*%
%TD*%
%TA.AperFunction,SMDPad,CuDef*%
%ADD18R,1.498600X4.013200*%
%TD*%
%TA.AperFunction,ComponentPad*%
%ADD19R,1.700000X1.700000*%
%TD*%
%TA.AperFunction,ComponentPad*%
%ADD20O,1.700000X1.700000*%
%TD*%
%TA.AperFunction,ComponentPad*%
%ADD21O,1.800000X3.600000*%
%TD*%
%TA.AperFunction,ViaPad*%
%ADD22C,1.500000*%
%TD*%
%TA.AperFunction,ViaPad*%
%ADD23C,1.000000*%
%TD*%
%TA.AperFunction,ViaPad*%
%ADD24C,1.200000*%
%TD*%
%TA.AperFunction,Conductor*%
%ADD25C,0.500000*%
%TD*%
%TA.AperFunction,Conductor*%
%ADD26C,0.400000*%
%TD*%
%TA.AperFunction,Conductor*%
%ADD27C,0.406400*%
%TD*%
%TA.AperFunction,Conductor*%
%ADD28C,1.000000*%
%TD*%
%TA.AperFunction,Conductor*%
%ADD29C,1.400000*%
%TD*%
%TA.AperFunction,Conductor*%
%ADD30C,0.508000*%
%TD*%
G04 APERTURE END LIST*
D10*
X126000000Y-133000000D02*
X170500000Y-132983704D01*
X170500000Y-132983704D02*
X170500000Y-77000000D01*
X170500000Y-77000000D02*
X126000000Y-77000000D01*
X126000000Y-77000000D02*
X126000000Y-133000000D01*
D11*
D12*
X140628571Y-85707142D02*
X141771428Y-85707142D01*
D13*
D14*
X139362166Y-128719566D02*
X139362166Y-127030466D01*
X139925200Y-128236966D01*
X140488233Y-127030466D01*
X140488233Y-128719566D01*
X141614300Y-127030466D02*
X141936033Y-127030466D01*
X142096900Y-127110900D01*
X142257766Y-127271766D01*
X142338200Y-127593500D01*
X142338200Y-128156533D01*
X142257766Y-128478266D01*
X142096900Y-128639133D01*
X141936033Y-128719566D01*
X141614300Y-128719566D01*
X141453433Y-128639133D01*
X141292566Y-128478266D01*
X141212133Y-128156533D01*
X141212133Y-127593500D01*
X141292566Y-127271766D01*
X141453433Y-127110900D01*
X141614300Y-127030466D01*
X143062100Y-128719566D02*
X143062100Y-127030466D01*
X143464266Y-127030466D01*
X143705566Y-127110900D01*
X143866433Y-127271766D01*
X143946866Y-127432633D01*
X144027300Y-127754366D01*
X144027300Y-127995666D01*
X143946866Y-128317400D01*
X143866433Y-128478266D01*
X143705566Y-128639133D01*
X143464266Y-128719566D01*
X143062100Y-128719566D01*
X144751200Y-127834800D02*
X145314233Y-127834800D01*
X145555533Y-128719566D02*
X144751200Y-128719566D01*
X144751200Y-127030466D01*
X145555533Y-127030466D01*
X147083766Y-128719566D02*
X146279433Y-128719566D01*
X146279433Y-127030466D01*
X147646800Y-128719566D02*
X147646800Y-127030466D01*
X148451133Y-128719566D02*
X148451133Y-127030466D01*
X148853300Y-127030466D01*
X149094600Y-127110900D01*
X149255466Y-127271766D01*
X149335900Y-127432633D01*
X149416333Y-127754366D01*
X149416333Y-127995666D01*
X149335900Y-128317400D01*
X149255466Y-128478266D01*
X149094600Y-128639133D01*
X148853300Y-128719566D01*
X148451133Y-128719566D01*
X150059800Y-128236966D02*
X150864133Y-128236966D01*
X149898933Y-128719566D02*
X150461966Y-127030466D01*
X151025000Y-128719566D01*
X152553233Y-128719566D02*
X151990200Y-127915233D01*
X151588033Y-128719566D02*
X151588033Y-127030466D01*
X152231500Y-127030466D01*
X152392366Y-127110900D01*
X152472800Y-127191333D01*
X152553233Y-127352200D01*
X152553233Y-127593500D01*
X152472800Y-127754366D01*
X152392366Y-127834800D01*
X152231500Y-127915233D01*
X151588033Y-127915233D01*
D11*
D12*
X156228571Y-85707142D02*
X157371428Y-85707142D01*
X156800000Y-86278571D02*
X156800000Y-85135714D01*
D10*
X125166666Y-135250000D02*
G75*
G03*
X125166666Y-135250000I-1666666J0D01*
G01*
X121000000Y-135250000D02*
X126000000Y-135250000D01*
X123500000Y-132750000D02*
X123500000Y-137750000D01*
X174166666Y-75000000D02*
G75*
G03*
X174166666Y-75000000I-1666666J0D01*
G01*
X170000000Y-75000000D02*
X175000000Y-75000000D01*
X172500000Y-72500000D02*
X172500000Y-77500000D01*
D15*
%TO.P,G8,1*%
%TO.N,0*%
X150750000Y-102625000D03*
%TO.P,G8,2*%
%TO.N,/V3P3OUT_G*%
X150750000Y-105750000D03*
%TD*%
%TO.P,D1,1*%
%TO.N,0*%
%TA.AperFunction,SMDPad,CuDef*%
G36*
G01*
X134484424Y-119041280D02*
X133184424Y-119041280D01*
G75*
G02*
X132934424Y-118791280I0J250000D01*
G01*
X132934424Y-117966280D01*
G75*
G02*
X133184424Y-117716280I250000J0D01*
G01*
X134484424Y-117716280D01*
G75*
G02*
X134734424Y-117966280I0J-250000D01*
G01*
X134734424Y-118791280D01*
G75*
G02*
X134484424Y-119041280I-250000J0D01*
G01*
G37*
%TD.AperFunction*%
%TO.P,D1,2*%
%TO.N,/VM*%
%TA.AperFunction,SMDPad,CuDef*%
G36*
G01*
X134484424Y-115916280D02*
X133184424Y-115916280D01*
G75*
G02*
X132934424Y-115666280I0J250000D01*
G01*
X132934424Y-114841280D01*
G75*
G02*
X133184424Y-114591280I250000J0D01*
G01*
X134484424Y-114591280D01*
G75*
G02*
X134734424Y-114841280I0J-250000D01*
G01*
X134734424Y-115666280D01*
G75*
G02*
X134484424Y-115916280I-250000J0D01*
G01*
G37*
%TD.AperFunction*%
%TD*%
%TO.P,D10,1*%
%TO.N,Net-(D10-Pad1)*%
%TA.AperFunction,SMDPad,CuDef*%
G36*
G01*
X137900000Y-106975000D02*
X136600000Y-106975000D01*
G75*
G02*
X136350000Y-106725000I0J250000D01*
G01*
X136350000Y-105900000D01*
G75*
G02*
X136600000Y-105650000I250000J0D01*
G01*
X137900000Y-105650000D01*
G75*
G02*
X138150000Y-105900000I0J-250000D01*
G01*
X138150000Y-106725000D01*
G75*
G02*
X137900000Y-106975000I-250000J0D01*
G01*
G37*
%TD.AperFunction*%
%TO.P,D10,2*%
%TO.N,Net-(D10-Pad2)*%
%TA.AperFunction,SMDPad,CuDef*%
G36*
G01*
X137900000Y-103850000D02*
X136600000Y-103850000D01*
G75*
G02*
X136350000Y-103600000I0J250000D01*
G01*
X136350000Y-102775000D01*
G75*
G02*
X136600000Y-102525000I250000J0D01*
G01*
X137900000Y-102525000D01*
G75*
G02*
X138150000Y-102775000I0J-250000D01*
G01*
X138150000Y-103600000D01*
G75*
G02*
X137900000Y-103850000I-250000J0D01*
G01*
G37*
%TD.AperFunction*%
%TD*%
%TO.P,D2,1*%
%TO.N,0*%
%TA.AperFunction,SMDPad,CuDef*%
G36*
G01*
X129595587Y-108431986D02*
X129595587Y-107131986D01*
G75*
G02*
X129845587Y-106881986I250000J0D01*
G01*
X130670587Y-106881986D01*
G75*
G02*
X130920587Y-107131986I0J-250000D01*
G01*
X130920587Y-108431986D01*
G75*
G02*
X130670587Y-108681986I-250000J0D01*
G01*
X129845587Y-108681986D01*
G75*
G02*
X129595587Y-108431986I0J250000D01*
G01*
G37*
%TD.AperFunction*%
%TO.P,D2,2*%
%TO.N,/VM*%
%TA.AperFunction,SMDPad,CuDef*%
G36*
G01*
X132720587Y-108431986D02*
X132720587Y-107131986D01*
G75*
G02*
X132970587Y-106881986I250000J0D01*
G01*
X133795587Y-106881986D01*
G75*
G02*
X134045587Y-107131986I0J-250000D01*
G01*
X134045587Y-108431986D01*
G75*
G02*
X133795587Y-108681986I-250000J0D01*
G01*
X132970587Y-108681986D01*
G75*
G02*
X132720587Y-108431986I0J250000D01*
G01*
G37*
%TD.AperFunction*%
%TD*%
%TO.P,D3,1*%
%TO.N,/VCP_D*%
%TA.AperFunction,SMDPad,CuDef*%
G36*
G01*
X130150000Y-101375000D02*
X131450000Y-101375000D01*
G75*
G02*
X131700000Y-101625000I0J-250000D01*
G01*
X131700000Y-102450000D01*
G75*
G02*
X131450000Y-102700000I-250000J0D01*
G01*
X130150000Y-102700000D01*
G75*
G02*
X129900000Y-102450000I0J250000D01*
G01*
X129900000Y-101625000D01*
G75*
G02*
X130150000Y-101375000I250000J0D01*
G01*
G37*
%TD.AperFunction*%
%TO.P,D3,2*%
%TO.N,/VM*%
%TA.AperFunction,SMDPad,CuDef*%
G36*
G01*
X130150000Y-104500000D02*
X131450000Y-104500000D01*
G75*
G02*
X131700000Y-104750000I0J-250000D01*
G01*
X131700000Y-105575000D01*
G75*
G02*
X131450000Y-105825000I-250000J0D01*
G01*
X130150000Y-105825000D01*
G75*
G02*
X129900000Y-105575000I0J250000D01*
G01*
X129900000Y-104750000D01*
G75*
G02*
X130150000Y-104500000I250000J0D01*
G01*
G37*
%TD.AperFunction*%
%TD*%
%TO.P,D4,1*%
%TO.N,/VCP_D*%
%TA.AperFunction,SMDPad,CuDef*%
G36*
G01*
X132675000Y-101400000D02*
X133925000Y-101400000D01*
G75*
G02*
X134175000Y-101650000I0J-250000D01*
G01*
X134175000Y-102450000D01*
G75*
G02*
X133925000Y-102700000I-250000J0D01*
G01*
X132675000Y-102700000D01*
G75*
G02*
X132425000Y-102450000I0J250000D01*
G01*
X132425000Y-101650000D01*
G75*
G02*
X132675000Y-101400000I250000J0D01*
G01*
G37*
%TD.AperFunction*%
%TO.P,D4,2*%
%TO.N,/VM*%
%TA.AperFunction,SMDPad,CuDef*%
G36*
G01*
X132675000Y-104500000D02*
X133925000Y-104500000D01*
G75*
G02*
X134175000Y-104750000I0J-250000D01*
G01*
X134175000Y-105550000D01*
G75*
G02*
X133925000Y-105800000I-250000J0D01*
G01*
X132675000Y-105800000D01*
G75*
G02*
X132425000Y-105550000I0J250000D01*
G01*
X132425000Y-104750000D01*
G75*
G02*
X132675000Y-104500000I250000J0D01*
G01*
G37*
%TD.AperFunction*%
%TD*%
%TO.P,D5,1*%
%TO.N,/FAULT*%
%TA.AperFunction,SMDPad,CuDef*%
G36*
G01*
X146977915Y-118148495D02*
X146977915Y-119398495D01*
G75*
G02*
X146727915Y-119648495I-250000J0D01*
G01*
X145927915Y-119648495D01*
G75*
G02*
X145677915Y-119398495I0J250000D01*
G01*
X145677915Y-118148495D01*
G75*
G02*
X145927915Y-117898495I250000J0D01*
G01*
X146727915Y-117898495D01*
G75*
G02*
X146977915Y-118148495I0J-250000D01*
G01*
G37*
%TD.AperFunction*%
%TO.P,D5,2*%
%TO.N,/V3P3OUT_D*%
%TA.AperFunction,SMDPad,CuDef*%
G36*
G01*
X143877915Y-118148495D02*
X143877915Y-119398495D01*
G75*
G02*
X143627915Y-119648495I-250000J0D01*
G01*
X142827915Y-119648495D01*
G75*
G02*
X142577915Y-119398495I0J250000D01*
G01*
X142577915Y-118148495D01*
G75*
G02*
X142827915Y-117898495I250000J0D01*
G01*
X143627915Y-117898495D01*
G75*
G02*
X143877915Y-118148495I0J-250000D01*
G01*
G37*
%TD.AperFunction*%
%TD*%
%TO.P,D8,1*%
%TO.N,0*%
%TA.AperFunction,SMDPad,CuDef*%
G36*
G01*
X146927512Y-120604899D02*
X146927512Y-121904899D01*
G75*
G02*
X146677512Y-122154899I-250000J0D01*
G01*
X145852512Y-122154899D01*
G75*
G02*
X145602512Y-121904899I0J250000D01*
G01*
X145602512Y-120604899D01*
G75*
G02*
X145852512Y-120354899I250000J0D01*
G01*
X146677512Y-120354899D01*
G75*
G02*
X146927512Y-120604899I0J-250000D01*
G01*
G37*
%TD.AperFunction*%
%TO.P,D8,2*%
%TO.N,/V3P3OUT_D*%
%TA.AperFunction,SMDPad,CuDef*%
G36*
G01*
X143802512Y-120604899D02*
X143802512Y-121904899D01*
G75*
G02*
X143552512Y-122154899I-250000J0D01*
G01*
X142727512Y-122154899D01*
G75*
G02*
X142477512Y-121904899I0J250000D01*
G01*
X142477512Y-120604899D01*
G75*
G02*
X142727512Y-120354899I250000J0D01*
G01*
X143552512Y-120354899D01*
G75*
G02*
X143802512Y-120604899I0J-250000D01*
G01*
G37*
%TD.AperFunction*%
%TD*%
D16*
%TO.P,DRIVER_DROIT1,1*%
%TO.N,Net-(D10-Pad1)*%
X137282356Y-108102483D03*
%TO.P,DRIVER_DROIT1,2*%
%TO.N,Net-(D10-Pad2)*%
X137282356Y-108752483D03*
%TO.P,DRIVER_DROIT1,3*%
%TO.N,/VCP_D*%
X137282356Y-109402483D03*
%TO.P,DRIVER_DROIT1,4*%
%TO.N,/VM*%
X137282356Y-110052483D03*
%TO.P,DRIVER_DROIT1,5*%
%TO.N,/OUT1D*%
X137282356Y-110702483D03*
%TO.P,DRIVER_DROIT1,6*%
%TO.N,0*%
X137282356Y-111352483D03*
%TO.P,DRIVER_DROIT1,7*%
%TO.N,/OUT2D*%
X137282356Y-112002483D03*
%TO.P,DRIVER_DROIT1,8*%
X137282356Y-112652483D03*
%TO.P,DRIVER_DROIT1,9*%
%TO.N,0*%
X137282356Y-113302483D03*
%TO.P,DRIVER_DROIT1,10*%
%TO.N,/OUT1D*%
X137282356Y-113952483D03*
%TO.P,DRIVER_DROIT1,11*%
%TO.N,/VM*%
X137282356Y-114602483D03*
%TO.P,DRIVER_DROIT1,12*%
%TO.N,/V3P3OUT_D*%
X137282356Y-115252483D03*
%TO.P,DRIVER_DROIT1,13*%
X137282356Y-115902483D03*
%TO.P,DRIVER_DROIT1,14*%
%TO.N,0*%
X137282356Y-116552483D03*
%TO.P,DRIVER_DROIT1,15*%
%TO.N,/V3P3OUT_D*%
X143382356Y-116552483D03*
%TO.P,DRIVER_DROIT1,16*%
%TO.N,/RESET*%
X143382356Y-115902483D03*
%TO.P,DRIVER_DROIT1,17*%
%TO.N,/SLEEP*%
X143382356Y-115252483D03*
%TO.P,DRIVER_DROIT1,18*%
%TO.N,/FAULT*%
X143382356Y-114602483D03*
%TO.P,DRIVER_DROIT1,19*%
%TO.N,Net-(DRIVER_DROIT1-Pad19)*%
X143382356Y-113952483D03*
%TO.P,DRIVER_DROIT1,20*%
%TO.N,/IN_2_D*%
X143382356Y-113302483D03*
%TO.P,DRIVER_DROIT1,21*%
%TO.N,/IN_1_D*%
X143382356Y-112652483D03*
%TO.P,DRIVER_DROIT1,22*%
%TO.N,Net-(DRIVER_DROIT1-Pad22)*%
X143382356Y-112002483D03*
%TO.P,DRIVER_DROIT1,23*%
%TO.N,Net-(DRIVER_DROIT1-Pad23)*%
X143382356Y-111352483D03*
%TO.P,DRIVER_DROIT1,24*%
%TO.N,Net-(DRIVER_DROIT1-Pad24)*%
X143382356Y-110702483D03*
%TO.P,DRIVER_DROIT1,25*%
%TO.N,Net-(DRIVER_DROIT1-Pad25)*%
X143382356Y-110052483D03*
%TO.P,DRIVER_DROIT1,26*%
%TO.N,Net-(DRIVER_DROIT1-Pad26)*%
X143382356Y-109402483D03*
%TO.P,DRIVER_DROIT1,27*%
%TO.N,Net-(DRIVER_DROIT1-Pad27)*%
X143382356Y-108752483D03*
%TO.P,DRIVER_DROIT1,28*%
%TO.N,0*%
X143382356Y-108102483D03*
D17*
%TO.P,DRIVER_DROIT1,29*%
X140332356Y-112327483D03*
%TO.P,DRIVER_DROIT1,V*%
%TA.AperFunction,SMDPad,CuDef*%
G36*
G01*
X140082359Y-112327483D02*
X140082359Y-112327483D01*
G75*
G02*
X140332359Y-112077483I250000J0D01*
G01*
X140332359Y-112077483D01*
G75*
G02*
X140582359Y-112327483I0J-250000D01*
G01*
X140582359Y-112327483D01*
G75*
G02*
X140332359Y-112577483I-250000J0D01*
G01*
X140332359Y-112577483D01*
G75*
G02*
X140082359Y-112327483I0J250000D01*
G01*
G37*
%TD.AperFunction*%
%TD*%
D16*
%TO.P,DRIVER_GAUCHE1,1*%
%TO.N,Net-(DRIVER_GAUCHE1-Pad1)*%
X159354068Y-116234324D03*
%TO.P,DRIVER_GAUCHE1,2*%
%TO.N,Net-(DRIVER_GAUCHE1-Pad2)*%
X159354068Y-115584324D03*
%TO.P,DRIVER_GAUCHE1,3*%
%TO.N,/VCP_G*%
X159354068Y-114934324D03*
%TO.P,DRIVER_GAUCHE1,4*%
%TO.N,/VM*%
X159354068Y-114284324D03*
%TO.P,DRIVER_GAUCHE1,5*%
%TO.N,/OUT1G*%
X159354068Y-113634324D03*
%TO.P,DRIVER_GAUCHE1,6*%
%TO.N,0*%
X159354068Y-112984324D03*
%TO.P,DRIVER_GAUCHE1,7*%
%TO.N,/OUT2G*%
X159354068Y-112334324D03*
%TO.P,DRIVER_GAUCHE1,8*%
X159354068Y-111684324D03*
%TO.P,DRIVER_GAUCHE1,9*%
%TO.N,0*%
X159354068Y-111034324D03*
%TO.P,DRIVER_GAUCHE1,10*%
%TO.N,/OUT1G*%
X159354068Y-110384324D03*
%TO.P,DRIVER_GAUCHE1,11*%
%TO.N,/VM*%
X159354068Y-109734324D03*
%TO.P,DRIVER_GAUCHE1,12*%
%TO.N,/V3P3OUT_G*%
X159354068Y-109084324D03*
%TO.P,DRIVER_GAUCHE1,13*%
X159354068Y-108434324D03*
%TO.P,DRIVER_GAUCHE1,14*%
%TO.N,0*%
X159354068Y-107784324D03*
%TO.P,DRIVER_GAUCHE1,15*%
%TO.N,/V3P3OUT_G*%
X153254068Y-107784324D03*
%TO.P,DRIVER_GAUCHE1,16*%
%TO.N,/RESET*%
X153254068Y-108434324D03*
%TO.P,DRIVER_GAUCHE1,17*%
%TO.N,/SLEEP*%
X153254068Y-109084324D03*
%TO.P,DRIVER_GAUCHE1,18*%
%TO.N,/FAULT*%
X153254068Y-109734324D03*
%TO.P,DRIVER_GAUCHE1,19*%
%TO.N,Net-(DRIVER_GAUCHE1-Pad19)*%
X153254068Y-110384324D03*
%TO.P,DRIVER_GAUCHE1,20*%
%TO.N,/IN_2_G*%
X153254068Y-111034324D03*
%TO.P,DRIVER_GAUCHE1,21*%
%TO.N,/IN_1_G*%
X153254068Y-111684324D03*
%TO.P,DRIVER_GAUCHE1,22*%
%TO.N,Net-(DRIVER_GAUCHE1-Pad22)*%
X153254068Y-112334324D03*
%TO.P,DRIVER_GAUCHE1,23*%
%TO.N,Net-(DRIVER_GAUCHE1-Pad23)*%
X153254068Y-112984324D03*
%TO.P,DRIVER_GAUCHE1,24*%
%TO.N,Net-(DRIVER_GAUCHE1-Pad24)*%
X153254068Y-113634324D03*
%TO.P,DRIVER_GAUCHE1,25*%
%TO.N,Net-(DRIVER_GAUCHE1-Pad25)*%
X153254068Y-114284324D03*
%TO.P,DRIVER_GAUCHE1,26*%
%TO.N,Net-(DRIVER_GAUCHE1-Pad26)*%
X153254068Y-114934324D03*
%TO.P,DRIVER_GAUCHE1,27*%
%TO.N,Net-(DRIVER_GAUCHE1-Pad27)*%
X153254068Y-115584324D03*
%TO.P,DRIVER_GAUCHE1,28*%
%TO.N,0*%
X153254068Y-116234324D03*
D17*
%TO.P,DRIVER_GAUCHE1,29*%
X156304068Y-112009324D03*
%TO.P,DRIVER_GAUCHE1,V*%
%TA.AperFunction,SMDPad,CuDef*%
G36*
G01*
X156554065Y-112009324D02*
X156554065Y-112009324D01*
G75*
G02*
X156304065Y-112259324I-250000J0D01*
G01*
X156304065Y-112259324D01*
G75*
G02*
X156054065Y-112009324I0J250000D01*
G01*
X156054065Y-112009324D01*
G75*
G02*
X156304065Y-111759324I250000J0D01*
G01*
X156304065Y-111759324D01*
G75*
G02*
X156554065Y-112009324I0J-250000D01*
G01*
G37*
%TD.AperFunction*%
%TD*%
D18*
%TO.P,G3,1*%
%TO.N,0*%
X148165356Y-99195977D03*
%TO.P,G3,2*%
%TO.N,/VM*%
X148165356Y-90483777D03*
%TD*%
%TO.P,G1,1*%
%TO.N,0*%
%TA.AperFunction,SMDPad,CuDef*%
G36*
G01*
X166765277Y-115505945D02*
X166765277Y-116805945D01*
G75*
G02*
X166515277Y-117055945I-250000J0D01*
G01*
X165690277Y-117055945D01*
G75*
G02*
X165440277Y-116805945I0J250000D01*
G01*
X165440277Y-115505945D01*
G75*
G02*
X165690277Y-115255945I250000J0D01*
G01*
X166515277Y-115255945D01*
G75*
G02*
X166765277Y-115505945I0J-250000D01*
G01*
G37*
%TD.AperFunction*%
%TO.P,G1,2*%
%TO.N,/VM*%
%TA.AperFunction,SMDPad,CuDef*%
G36*
G01*
X163640277Y-115505945D02*
X163640277Y-116805945D01*
G75*
G02*
X163390277Y-117055945I-250000J0D01*
G01*
X162565277Y-117055945D01*
G75*
G02*
X162315277Y-116805945I0J250000D01*
G01*
X162315277Y-115505945D01*
G75*
G02*
X162565277Y-115255945I250000J0D01*
G01*
X163390277Y-115255945D01*
G75*
G02*
X163640277Y-115505945I0J-250000D01*
G01*
G37*
%TD.AperFunction*%
%TD*%
%TO.P,G11,1*%
%TO.N,Net-(DRIVER_GAUCHE1-Pad1)*%
%TA.AperFunction,SMDPad,CuDef*%
G36*
G01*
X158450000Y-117675000D02*
X159750000Y-117675000D01*
G75*
G02*
X160000000Y-117925000I0J-250000D01*
G01*
X160000000Y-118750000D01*
G75*
G02*
X159750000Y-119000000I-250000J0D01*
G01*
X158450000Y-119000000D01*
G75*
G02*
X158200000Y-118750000I0J250000D01*
G01*
X158200000Y-117925000D01*
G75*
G02*
X158450000Y-117675000I250000J0D01*
G01*
G37*
%TD.AperFunction*%
%TO.P,G11,2*%
%TO.N,Net-(DRIVER_GAUCHE1-Pad2)*%
%TA.AperFunction,SMDPad,CuDef*%
G36*
G01*
X158450000Y-120800000D02*
X159750000Y-120800000D01*
G75*
G02*
X160000000Y-121050000I0J-250000D01*
G01*
X160000000Y-121875000D01*
G75*
G02*
X159750000Y-122125000I-250000J0D01*
G01*
X158450000Y-122125000D01*
G75*
G02*
X158200000Y-121875000I0J250000D01*
G01*
X158200000Y-121050000D01*
G75*
G02*
X158450000Y-120800000I250000J0D01*
G01*
G37*
%TD.AperFunction*%
%TD*%
%TO.P,G2,1*%
%TO.N,0*%
%TA.AperFunction,SMDPad,CuDef*%
G36*
G01*
X162110596Y-105509500D02*
X163410596Y-105509500D01*
G75*
G02*
X163660596Y-105759500I0J-250000D01*
G01*
X163660596Y-106584500D01*
G75*
G02*
X163410596Y-106834500I-250000J0D01*
G01*
X162110596Y-106834500D01*
G75*
G02*
X161860596Y-106584500I0J250000D01*
G01*
X161860596Y-105759500D01*
G75*
G02*
X162110596Y-105509500I250000J0D01*
G01*
G37*
%TD.AperFunction*%
%TO.P,G2,2*%
%TO.N,/VM*%
%TA.AperFunction,SMDPad,CuDef*%
G36*
G01*
X162110596Y-108634500D02*
X163410596Y-108634500D01*
G75*
G02*
X163660596Y-108884500I0J-250000D01*
G01*
X163660596Y-109709500D01*
G75*
G02*
X163410596Y-109959500I-250000J0D01*
G01*
X162110596Y-109959500D01*
G75*
G02*
X161860596Y-109709500I0J250000D01*
G01*
X161860596Y-108884500D01*
G75*
G02*
X162110596Y-108634500I250000J0D01*
G01*
G37*
%TD.AperFunction*%
%TD*%
%TO.P,G4,1*%
%TO.N,/VCP_G*%
%TA.AperFunction,SMDPad,CuDef*%
G36*
G01*
X166352709Y-122032774D02*
X165052709Y-122032774D01*
G75*
G02*
X164802709Y-121782774I0J250000D01*
G01*
X164802709Y-120957774D01*
G75*
G02*
X165052709Y-120707774I250000J0D01*
G01*
X166352709Y-120707774D01*
G75*
G02*
X166602709Y-120957774I0J-250000D01*
G01*
X166602709Y-121782774D01*
G75*
G02*
X166352709Y-122032774I-250000J0D01*
G01*
G37*
%TD.AperFunction*%
%TO.P,G4,2*%
%TO.N,/VM*%
%TA.AperFunction,SMDPad,CuDef*%
G36*
G01*
X166352709Y-118907774D02*
X165052709Y-118907774D01*
G75*
G02*
X164802709Y-118657774I0J250000D01*
G01*
X164802709Y-117832774D01*
G75*
G02*
X165052709Y-117582774I250000J0D01*
G01*
X166352709Y-117582774D01*
G75*
G02*
X166602709Y-117832774I0J-250000D01*
G01*
X166602709Y-118657774D01*
G75*
G02*
X166352709Y-118907774I-250000J0D01*
G01*
G37*
%TD.AperFunction*%
%TD*%
%TO.P,G5,1*%
%TO.N,/VCP_G*%
%TA.AperFunction,SMDPad,CuDef*%
G36*
G01*
X163655324Y-122095780D02*
X162405324Y-122095780D01*
G75*
G02*
X162155324Y-121845780I0J250000D01*
G01*
X162155324Y-121045780D01*
G75*
G02*
X162405324Y-120795780I250000J0D01*
G01*
X163655324Y-120795780D01*
G75*
G02*
X163905324Y-121045780I0J-250000D01*
G01*
X163905324Y-121845780D01*
G75*
G02*
X163655324Y-122095780I-250000J0D01*
G01*
G37*
%TD.AperFunction*%
%TO.P,G5,2*%
%TO.N,/VM*%
%TA.AperFunction,SMDPad,CuDef*%
G36*
G01*
X163655324Y-118995780D02*
X162405324Y-118995780D01*
G75*
G02*
X162155324Y-118745780I0J250000D01*
G01*
X162155324Y-117945780D01*
G75*
G02*
X162405324Y-117695780I250000J0D01*
G01*
X163655324Y-117695780D01*
G75*
G02*
X163905324Y-117945780I0J-250000D01*
G01*
X163905324Y-118745780D01*
G75*
G02*
X163655324Y-118995780I-250000J0D01*
G01*
G37*
%TD.AperFunction*%
%TD*%
%TO.P,G6,1*%
%TO.N,/FAULT*%
%TA.AperFunction,SMDPad,CuDef*%
G36*
G01*
X148825000Y-108601000D02*
X147575000Y-108601000D01*
G75*
G02*
X147325000Y-108351000I0J250000D01*
G01*
X147325000Y-107551000D01*
G75*
G02*
X147575000Y-107301000I250000J0D01*
G01*
X148825000Y-107301000D01*
G75*
G02*
X149075000Y-107551000I0J-250000D01*
G01*
X149075000Y-108351000D01*
G75*
G02*
X148825000Y-108601000I-250000J0D01*
G01*
G37*
%TD.AperFunction*%
%TO.P,G6,2*%
%TO.N,/V3P3OUT_G*%
%TA.AperFunction,SMDPad,CuDef*%
G36*
G01*
X148825000Y-105501000D02*
X147575000Y-105501000D01*
G75*
G02*
X147325000Y-105251000I0J250000D01*
G01*
X147325000Y-104451000D01*
G75*
G02*
X147575000Y-104201000I250000J0D01*
G01*
X148825000Y-104201000D01*
G75*
G02*
X149075000Y-104451000I0J-250000D01*
G01*
X149075000Y-105251000D01*
G75*
G02*
X148825000Y-105501000I-250000J0D01*
G01*
G37*
%TD.AperFunction*%
%TD*%
D19*
%TO.P,JP1,1*%
%TO.N,/SLEEP*%
X165250000Y-81750000D03*
D20*
%TO.P,JP1,2*%
%TO.N,/FAULT*%
X165250000Y-84290000D03*
%TO.P,JP1,3*%
%TO.N,/RESET*%
X165250000Y-86830000D03*
%TD*%
D19*
%TO.P,JP2,1*%
%TO.N,/IN_1_D*%
X132080000Y-91440000D03*
D20*
%TO.P,JP2,2*%
%TO.N,/IN_2_D*%
X132080000Y-88900000D03*
%TO.P,JP2,3*%
%TO.N,0*%
X132080000Y-86360000D03*
%TO.P,JP2,4*%
%TO.N,/IN_1_G*%
X132080000Y-83820000D03*
%TO.P,JP2,5*%
%TO.N,/IN_2_G*%
X132080000Y-81280000D03*
%TD*%
D21*
%TO.P,MOTEUR_D1,A1*%
%TO.N,/OUT2D*%
X133933406Y-130010636D03*
%TO.P,MOTEUR_D1,A2*%
%TO.N,/OUT1D*%
X128853406Y-130010636D03*
%TO.P,MOTEUR_D1,B1*%
%TO.N,/OUT2D*%
X133933406Y-125010636D03*
%TO.P,MOTEUR_D1,B2*%
%TO.N,/OUT1D*%
X128853406Y-125010636D03*
%TD*%
%TO.P,MOTEUR_G1,A1*%
%TO.N,/OUT1G*%
X167791606Y-129999205D03*
%TO.P,MOTEUR_G1,A2*%
%TO.N,/OUT2G*%
X162711606Y-129999205D03*
%TO.P,MOTEUR_G1,B1*%
%TO.N,/OUT1G*%
X167791606Y-124999205D03*
%TO.P,MOTEUR_G1,B2*%
%TO.N,/OUT2G*%
X162711606Y-124999205D03*
%TD*%
%TO.P,X1,A1*%
%TO.N,0*%
X146430577Y-80577102D03*
%TO.P,X1,A2*%
%TO.N,/VM*%
X151510577Y-80577102D03*
%TO.P,X1,B1*%
%TO.N,0*%
X146430577Y-85577102D03*
%TO.P,X1,B2*%
%TO.N,/VM*%
X151510577Y-85577102D03*
%TD*%
D22*
%TO.N,0*%
X167200000Y-92600000D03*
X148600000Y-121200000D03*
D23*
X155454076Y-108045924D03*
X140970000Y-118872000D03*
D22*
X134200000Y-99200000D03*
D23*
X140954076Y-116045924D03*
D22*
X157800000Y-102800000D03*
D23*
X139704076Y-117295924D03*
X139704076Y-114795924D03*
X140954076Y-110795924D03*
X141000000Y-113000000D03*
X156954076Y-115295924D03*
D22*
X137200000Y-122400000D03*
D23*
X156954076Y-112045924D03*
X155454076Y-113795924D03*
X156954076Y-107045924D03*
X139704076Y-112045924D03*
X155454076Y-116545924D03*
D22*
X155200000Y-122200000D03*
X141000000Y-81000000D03*
D24*
X148280000Y-102530000D03*
D23*
X155454076Y-110545924D03*
X156972000Y-117983000D03*
X156954076Y-109295924D03*
X139682348Y-109432352D03*
D22*
X140400000Y-102800000D03*
X129600000Y-94400000D03*
D23*
X140954076Y-108045924D03*
D22*
X131600000Y-118400000D03*
D23*
X139700000Y-106934000D03*
D22*
X162750000Y-104116114D03*
D24*
%TO.N,/IN_1_G*%
X138640500Y-95500348D03*
%TO.N,/IN_2_G*%
X139640000Y-94234000D03*
%TO.N,/FAULT*%
X146502126Y-114239725D03*
X150473545Y-110173545D03*
%TO.N,/SLEEP*%
X145406754Y-115441450D03*
X149841936Y-108775915D03*
%TO.N,/RESET*%
X145410455Y-116840946D03*
X151654056Y-107701012D03*
%TO.N,/V3P3OUT_G*%
X160600000Y-105900000D03*
X153254068Y-105845932D03*
D22*
%TO.N,/VM*%
X131427933Y-115316000D03*
X165280000Y-113690000D03*
X165328600Y-109173314D03*
X131429123Y-110052483D03*
X154669817Y-89100000D03*
%TO.N,/OUT1G*%
X167800000Y-112000000D03*
%TO.N,/OUT2G*%
X162687000Y-112141000D03*
D24*
%TO.N,/IN_1_D*%
X136650000Y-97830000D03*
%TO.N,/IN_2_D*%
X137653210Y-96650000D03*
%TO.N,/V3P3OUT_D*%
X136000000Y-118000000D03*
X141000000Y-121285000D03*
D22*
%TO.N,/OUT1D*%
X128905000Y-112268000D03*
%TO.N,/OUT2D*%
X133978080Y-112372823D03*
%TD*%
D25*
%TO.N,0*%
X158165896Y-102979636D02*
X158117356Y-102931095D01*
D26*
X137282356Y-111352483D02*
X139357356Y-111352483D01*
X159354068Y-112984324D02*
X157279065Y-112984324D01*
X133834424Y-118316280D02*
X131683720Y-118316280D01*
X156954076Y-111740077D02*
X156954076Y-112009324D01*
X162760596Y-106234500D02*
X162760596Y-104126710D01*
X159354068Y-111034324D02*
X157279068Y-111034324D01*
X157279068Y-111034324D02*
X156304068Y-112009324D01*
X137282356Y-113302483D02*
X139357356Y-113302483D01*
X157279065Y-112984324D02*
X156304065Y-112009324D01*
X131683720Y-118316280D02*
X131600000Y-118400000D01*
X139357356Y-113302483D02*
X140332356Y-112327483D01*
X139357356Y-111352483D02*
X140332356Y-112327483D01*
%TO.N,/IN_1_G*%
X145899989Y-109137171D02*
X148682829Y-111920011D01*
X151479989Y-111920011D02*
X151715676Y-111684324D01*
X138699400Y-95500348D02*
X145899989Y-102700937D01*
X148682829Y-111920011D02*
X151479989Y-111920011D01*
X145899989Y-102700937D02*
X145899989Y-109137171D01*
X138640500Y-95500348D02*
X138699400Y-95500348D01*
X151715676Y-111684324D02*
X153254068Y-111684324D01*
%TO.N,/IN_2_G*%
X146500000Y-102453098D02*
X146500000Y-108888639D01*
X151517133Y-111034324D02*
X153254068Y-111034324D01*
X139640000Y-94234000D02*
X139640000Y-95593098D01*
X146500000Y-108888639D02*
X148931361Y-111320000D01*
X139640000Y-95593098D02*
X146500000Y-102453098D01*
X148931361Y-111320000D02*
X151231457Y-111320000D01*
X151231457Y-111320000D02*
X151517133Y-111034324D01*
%TO.N,/FAULT*%
X148773545Y-110173545D02*
X150473545Y-110173545D01*
X148200000Y-109600000D02*
X148773545Y-110173545D01*
X144752990Y-114438249D02*
X144588756Y-114602483D01*
X146200000Y-118829225D02*
X146409955Y-118619270D01*
X146409955Y-118619270D02*
X146409955Y-114438249D01*
X144588756Y-114602483D02*
X143382356Y-114602483D01*
X146303602Y-114438249D02*
X146502126Y-114239725D01*
X150912766Y-109734324D02*
X150473545Y-110173545D01*
X153254068Y-109734324D02*
X150912766Y-109734324D01*
X148200000Y-107900000D02*
X148200000Y-109600000D01*
X144752990Y-114438249D02*
X146409955Y-114438249D01*
%TO.N,/SLEEP*%
X143382356Y-115252483D02*
X145113843Y-115252483D01*
X145302810Y-115441450D02*
X145406754Y-115441450D01*
X150474127Y-109084324D02*
X150150345Y-109084324D01*
X150493005Y-109103202D02*
X150474127Y-109084324D01*
X150150345Y-109084324D02*
X149841936Y-108775915D01*
X153235190Y-109103202D02*
X150493005Y-109103202D01*
X153254068Y-109084324D02*
X153235190Y-109103202D01*
X145113843Y-115252483D02*
X145302810Y-115441450D01*
%TO.N,/RESET*%
X144396789Y-115902483D02*
X143382356Y-115902483D01*
X145335252Y-116840946D02*
X144396789Y-115902483D01*
X153254068Y-108434324D02*
X152054068Y-108434324D01*
X151654056Y-108034312D02*
X151654056Y-107701012D01*
X145410455Y-116840946D02*
X145335252Y-116840946D01*
X152054068Y-108434324D02*
X151654056Y-108034312D01*
D27*
%TO.N,/V3P3OUT_G*%
X159354068Y-108434324D02*
X159354068Y-109084324D01*
D26*
X150063062Y-105845932D02*
X149068130Y-104851000D01*
X159354068Y-108434324D02*
X160297676Y-108434324D01*
X149068130Y-104851000D02*
X148200000Y-104851000D01*
X153254068Y-107784324D02*
X153254068Y-105845932D01*
X153254068Y-105845932D02*
X150063062Y-105845932D01*
X160600000Y-108132000D02*
X160600000Y-105900000D01*
X160297676Y-108434324D02*
X160600000Y-108132000D01*
%TO.N,/VM*%
X148165356Y-90483777D02*
X148141456Y-90459877D01*
X148141456Y-90459877D02*
X148141456Y-89324058D01*
X137282356Y-110052483D02*
X131429123Y-110052483D01*
X159354068Y-114284324D02*
X162984906Y-114284324D01*
X163040277Y-114339695D02*
X162984906Y-114284324D01*
D28*
X163040277Y-115216723D02*
X163040277Y-116155945D01*
X131428213Y-115316280D02*
X133834424Y-115316280D01*
D29*
X133383087Y-107781986D02*
X133383087Y-105182087D01*
D28*
X130800000Y-105100000D02*
X130801000Y-105099000D01*
D26*
X159372668Y-109715724D02*
X159384944Y-109728000D01*
D29*
X129738000Y-105100000D02*
X130800000Y-105100000D01*
X148165356Y-89100000D02*
X148165356Y-90483777D01*
D26*
X135127720Y-115316280D02*
X133834424Y-115316280D01*
X162984906Y-114284324D02*
X164034324Y-114284324D01*
D29*
X132396685Y-110052483D02*
X131429123Y-110052483D01*
X128634906Y-99965094D02*
X139500000Y-89100000D01*
D28*
X165613703Y-118396780D02*
X165702709Y-118307774D01*
D29*
X154669817Y-89100000D02*
X148165356Y-89100000D01*
D28*
X162760596Y-109220000D02*
X165281914Y-109220000D01*
D29*
X128634906Y-99965094D02*
X128634906Y-103996906D01*
D26*
X137282356Y-114602483D02*
X135841517Y-114602483D01*
D29*
X139500000Y-89100000D02*
X148165356Y-89100000D01*
X133383087Y-107781986D02*
X133383087Y-109066081D01*
D28*
X165530000Y-113690000D02*
X164567000Y-113690000D01*
D29*
X133383087Y-109066081D02*
X132396685Y-110052483D01*
X166278131Y-100708314D02*
X154669817Y-89100000D01*
D28*
X131427933Y-115316000D02*
X131428213Y-115316280D01*
D29*
X166278131Y-108270469D02*
X166278131Y-100708314D01*
X128634906Y-103996906D02*
X129738000Y-105100000D01*
D26*
X162724743Y-109728000D02*
X162724743Y-109613383D01*
D28*
X164567000Y-113690000D02*
X163040277Y-115216723D01*
X163030324Y-118396780D02*
X165613703Y-118396780D01*
X163030324Y-118396780D02*
X163030324Y-116165898D01*
D26*
X163040277Y-114959723D02*
X163040277Y-114339695D01*
D29*
X165328600Y-109220000D02*
X166278131Y-108270469D01*
D26*
X162670082Y-109728000D02*
X162622402Y-109680320D01*
X159384944Y-109728000D02*
X162724743Y-109728000D01*
X135841517Y-114602483D02*
X135127720Y-115316280D01*
D29*
X130801000Y-105099000D02*
X133300000Y-105099000D01*
D27*
%TO.N,/OUT1G*%
X164465000Y-111633000D02*
X163216324Y-110384324D01*
X163216324Y-110384324D02*
X159354068Y-110384324D01*
X164465000Y-112000000D02*
X164465000Y-111633000D01*
X164465000Y-112268000D02*
X163098676Y-113634324D01*
X163098676Y-113634324D02*
X159354068Y-113634324D01*
D29*
X164465000Y-112000000D02*
X167800000Y-112000000D01*
D27*
X164465000Y-112000000D02*
X164465000Y-112268000D01*
D28*
%TO.N,/OUT2G*%
X162687000Y-112141000D02*
X162572136Y-112026136D01*
X162572136Y-112026136D02*
X159526136Y-112026136D01*
X159459325Y-111959325D02*
X159354068Y-111959325D01*
X159526136Y-112026136D02*
X159459325Y-111959325D01*
D27*
%TO.N,/VCP_G*%
X159354068Y-114934324D02*
X160945684Y-114934324D01*
X161484906Y-115473545D02*
X161484906Y-120845205D01*
X163030324Y-121394780D02*
X162034481Y-121394780D01*
X162034481Y-121394780D02*
X161484906Y-120845205D01*
X163034906Y-121445205D02*
X165565277Y-121445205D01*
X160945684Y-114934324D02*
X161484906Y-115473545D01*
D30*
X165565277Y-121445205D02*
X165702709Y-121307774D01*
X163030324Y-121394780D02*
X163034906Y-121399361D01*
X163034906Y-121399361D02*
X163034906Y-121445205D01*
D26*
%TO.N,/IN_1_D*%
X144690367Y-112445234D02*
X144690367Y-103187015D01*
X144483118Y-112652483D02*
X144690367Y-112445234D01*
X143382356Y-112652483D02*
X144483118Y-112652483D01*
X144690367Y-103187015D02*
X139333352Y-97830000D01*
X139333352Y-97830000D02*
X136650000Y-97830000D01*
%TO.N,/IN_2_D*%
X137753210Y-96750000D02*
X137653210Y-96650000D01*
X144690712Y-113302483D02*
X145296778Y-112696417D01*
X145296778Y-112696417D02*
X145296778Y-102945576D01*
X145296778Y-102945576D02*
X139101202Y-96750000D01*
X139101202Y-96750000D02*
X137753210Y-96750000D01*
X143382356Y-113302483D02*
X144690712Y-113302483D01*
D27*
%TO.N,/V3P3OUT_D*%
X137282356Y-115902483D02*
X137282356Y-115252483D01*
X143382356Y-116552483D02*
X143382356Y-117102483D01*
D26*
X137282356Y-115902483D02*
X136097517Y-115902483D01*
X143382356Y-117102483D02*
X143382356Y-118670054D01*
X143202512Y-121254899D02*
X143202512Y-118849898D01*
X136000000Y-116000000D02*
X136000000Y-118000000D01*
X143202512Y-118849898D02*
X143278915Y-118773495D01*
X136097517Y-115902483D02*
X136000000Y-116000000D01*
X143382356Y-118670054D02*
X143278915Y-118773495D01*
X141000000Y-121285000D02*
X141030101Y-121254899D01*
X141030101Y-121254899D02*
X143202512Y-121254899D01*
D29*
%TO.N,/OUT1D*%
X132330188Y-112300000D02*
X128937000Y-112300000D01*
D26*
X133607517Y-110702483D02*
X137282356Y-110702483D01*
X133842483Y-113952483D02*
X132224906Y-112334906D01*
X132330188Y-111979812D02*
X133607517Y-110702483D01*
D29*
X128937000Y-112300000D02*
X128905000Y-112268000D01*
D26*
X137282356Y-113952483D02*
X133842483Y-113952483D01*
X132330188Y-112300000D02*
X132330188Y-111979812D01*
D28*
%TO.N,/OUT2D*%
X137190945Y-112368895D02*
X137282356Y-112277484D01*
X133978080Y-112372823D02*
X133982008Y-112368895D01*
X133982008Y-112368895D02*
X137190945Y-112368895D01*
D26*
%TO.N,/VCP_D*%
X135818483Y-109402483D02*
X137282356Y-109402483D01*
X134700000Y-108284000D02*
X135818483Y-109402483D01*
X134700000Y-103238639D02*
X134700000Y-108284000D01*
X130790000Y-102110000D02*
X133571361Y-102110000D01*
X133571361Y-102110000D02*
X134700000Y-103238639D01*
%TO.N,Net-(D10-Pad2)*%
X137257357Y-108727484D02*
X137282356Y-108752483D01*
X137200000Y-103300000D02*
X136200000Y-103300000D01*
X136200000Y-103300000D02*
X135500000Y-104000000D01*
X135500000Y-104000000D02*
X135500000Y-108100000D01*
X136127484Y-108727484D02*
X137257357Y-108727484D01*
X135500000Y-108100000D02*
X136127484Y-108727484D01*
X137250000Y-103250000D02*
X137200000Y-103300000D01*
%TO.N,Net-(D10-Pad1)*%
X137250000Y-106250000D02*
X137250000Y-107895117D01*
X137250000Y-107895117D02*
X137282356Y-107927473D01*
%TO.N,Net-(DRIVER_GAUCHE1-Pad2)*%
X160881696Y-116050344D02*
X160881696Y-120868304D01*
X160350000Y-121400000D02*
X159100000Y-121400000D01*
X160415676Y-115584324D02*
X160881696Y-116050344D01*
X159354068Y-115584324D02*
X160415676Y-115584324D01*
X160881696Y-120868304D02*
X160350000Y-121400000D01*
%TO.N,Net-(DRIVER_GAUCHE1-Pad1)*%
X159354068Y-116234324D02*
X159354068Y-118145932D01*
X159354068Y-118145932D02*
X159100000Y-118400000D01*
%TD*%
%TA.AperFunction,Conductor*%
%TO.N,0*%
G36*
X170125500Y-77319962D02*
G01*
X170180038Y-77374500D01*
X170200000Y-77449000D01*
X170200000Y-132534869D01*
X170180038Y-132609369D01*
X170125500Y-132663907D01*
X170051057Y-132683869D01*
X147244840Y-132692220D01*
X126449055Y-132699835D01*
X126374547Y-132679900D01*
X126319990Y-132625382D01*
X126300000Y-132550835D01*
X126300000Y-130966606D01*
X127652906Y-130966606D01*
X127667952Y-131130347D01*
X127727841Y-131342700D01*
X127730863Y-131348829D01*
X127730865Y-131348833D01*
X127739081Y-131365493D01*
X127825426Y-131540583D01*
X127957439Y-131717369D01*
X127962456Y-131722007D01*
X127962459Y-131722010D01*
X127987386Y-131745052D01*
X128119457Y-131867137D01*
X128125235Y-131870782D01*
X128125238Y-131870785D01*
X128154927Y-131889517D01*
X128306056Y-131984872D01*
X128510985Y-132066630D01*
X128542185Y-132072836D01*
X128720679Y-132108341D01*
X128720682Y-132108341D01*
X128727382Y-132109674D01*
X128839142Y-132111137D01*
X128941166Y-132112473D01*
X128941171Y-132112473D01*
X128948000Y-132112562D01*
X128954733Y-132111405D01*
X128954734Y-132111405D01*
X129158721Y-132076354D01*
X129158720Y-132076354D01*
X129165449Y-132075198D01*
X129171848Y-132072837D01*
X129171853Y-132072836D01*
X129284919Y-132031123D01*
X129372449Y-131998832D01*
X129562065Y-131886022D01*
X129727949Y-131740546D01*
X129733408Y-131733621D01*
X129860314Y-131572641D01*
X129860316Y-131572638D01*
X129864543Y-131567276D01*
X129967275Y-131372016D01*
X129997781Y-131273772D01*
X130030679Y-131167823D01*
X130030680Y-131167818D01*
X130032703Y-131161303D01*
X130053906Y-130982160D01*
X130053906Y-130966606D01*
X132732906Y-130966606D01*
X132747952Y-131130347D01*
X132807841Y-131342700D01*
X132810863Y-131348829D01*
X132810865Y-131348833D01*
X132819081Y-131365493D01*
X132905426Y-131540583D01*
X133037439Y-131717369D01*
X133042456Y-131722007D01*
X133042459Y-131722010D01*
X133067386Y-131745052D01*
X133199457Y-131867137D01*
X133205235Y-131870782D01*
X133205238Y-131870785D01*
X133234927Y-131889517D01*
X133386056Y-131984872D01*
X133590985Y-132066630D01*
X133622185Y-132072836D01*
X133800679Y-132108341D01*
X133800682Y-132108341D01*
X133807382Y-132109674D01*
X133919142Y-132111137D01*
X134021166Y-132112473D01*
X134021171Y-132112473D01*
X134028000Y-132112562D01*
X134034733Y-132111405D01*
X134034734Y-132111405D01*
X134238721Y-132076354D01*
X134238720Y-132076354D01*
X134245449Y-132075198D01*
X134251848Y-132072837D01*
X134251853Y-132072836D01*
X134364919Y-132031123D01*
X134452449Y-131998832D01*
X134642065Y-131886022D01*
X134807949Y-131740546D01*
X134813408Y-131733621D01*
X134940314Y-131572641D01*
X134940316Y-131572638D01*
X134944543Y-131567276D01*
X135047275Y-131372016D01*
X135077781Y-131273772D01*
X135110679Y-131167823D01*
X135110680Y-131167818D01*
X135112703Y-131161303D01*
X135133906Y-130982160D01*
X135133906Y-130955175D01*
X161511106Y-130955175D01*
X161526152Y-131118916D01*
X161586041Y-131331269D01*
X161589063Y-131337398D01*
X161589065Y-131337402D01*
X161597281Y-131354062D01*
X161683626Y-131529152D01*
X161815639Y-131705938D01*
X161820656Y-131710576D01*
X161820659Y-131710579D01*
X161857952Y-131745052D01*
X161977657Y-131855706D01*
X161983435Y-131859351D01*
X161983438Y-131859354D01*
X162031244Y-131889517D01*
X162164256Y-131973441D01*
X162369185Y-132055199D01*
X162418071Y-132064923D01*
X162578879Y-132096910D01*
X162578882Y-132096910D01*
X162585582Y-132098243D01*
X162697342Y-132099706D01*
X162799366Y-132101042D01*
X162799371Y-132101042D01*
X162806200Y-132101131D01*
X162812933Y-132099974D01*
X162812934Y-132099974D01*
X163016921Y-132064923D01*
X163016920Y-132064923D01*
X163023649Y-132063767D01*
X163030048Y-132061406D01*
X163030053Y-132061405D01*
X163143119Y-132019692D01*
X163230649Y-131987401D01*
X163420265Y-131874591D01*
X163586149Y-131729115D01*
X163599725Y-131711894D01*
X163718514Y-131561210D01*
X163718516Y-131561207D01*
X163722743Y-131555845D01*
X163779110Y-131448711D01*
X163822295Y-131366630D01*
X163822297Y-131366626D01*
X163825475Y-131360585D01*
X163855981Y-131262341D01*
X163888879Y-131156392D01*
X163888880Y-131156387D01*
X163890903Y-131149872D01*
X163912106Y-130970729D01*
X163912106Y-130955175D01*
X166591106Y-130955175D01*
X166606152Y-131118916D01*
X166666041Y-131331269D01*
X166669063Y-131337398D01*
X166669065Y-131337402D01*
X166677281Y-131354062D01*
X166763626Y-131529152D01*
X166895639Y-131705938D01*
X166900656Y-131710576D01*
X166900659Y-131710579D01*
X166937952Y-131745052D01*
X167057657Y-131855706D01*
X167063435Y-131859351D01*
X167063438Y-131859354D01*
X167111244Y-131889517D01*
X167244256Y-131973441D01*
X167449185Y-132055199D01*
X167498071Y-132064923D01*
X167658879Y-132096910D01*
X167658882Y-132096910D01*
X167665582Y-132098243D01*
X167777342Y-132099706D01*
X167879366Y-132101042D01*
X167879371Y-132101042D01*
X167886200Y-132101131D01*
X167892933Y-132099974D01*
X167892934Y-132099974D01*
X168096921Y-132064923D01*
X168096920Y-132064923D01*
X168103649Y-132063767D01*
X168110048Y-132061406D01*
X168110053Y-132061405D01*
X168223119Y-132019692D01*
X168310649Y-131987401D01*
X168500265Y-131874591D01*
X168666149Y-131729115D01*
X168679725Y-131711894D01*
X168798514Y-131561210D01*
X168798516Y-131561207D01*
X168802743Y-131555845D01*
X168859110Y-131448711D01*
X168902295Y-131366630D01*
X168902297Y-131366626D01*
X168905475Y-131360585D01*
X168935981Y-131262341D01*
X168968879Y-131156392D01*
X168968880Y-131156387D01*
X168970903Y-131149872D01*
X168992106Y-130970729D01*
X168992106Y-129043235D01*
X168977060Y-128879494D01*
X168917171Y-128667141D01*
X168908352Y-128649256D01*
X168822608Y-128475386D01*
X168819586Y-128469258D01*
X168687573Y-128292472D01*
X168682556Y-128287834D01*
X168682553Y-128287831D01*
X168530576Y-128147345D01*
X168530574Y-128147343D01*
X168525555Y-128142704D01*
X168519777Y-128139059D01*
X168519774Y-128139056D01*
X168344733Y-128028614D01*
X168338956Y-128024969D01*
X168134027Y-127943211D01*
X168074147Y-127931300D01*
X167924333Y-127901500D01*
X167924330Y-127901500D01*
X167917630Y-127900167D01*
X167805870Y-127898704D01*
X167703846Y-127897368D01*
X167703841Y-127897368D01*
X167697012Y-127897279D01*
X167690279Y-127898436D01*
X167690278Y-127898436D01*
X167623753Y-127909867D01*
X167479563Y-127934643D01*
X167473164Y-127937004D01*
X167473159Y-127937005D01*
X167418492Y-127957173D01*
X167272563Y-128011009D01*
X167082947Y-128123819D01*
X166917063Y-128269295D01*
X166912836Y-128274657D01*
X166912835Y-128274658D01*
X166854042Y-128349238D01*
X166780469Y-128442565D01*
X166677737Y-128637825D01*
X166647231Y-128736069D01*
X166614333Y-128842018D01*
X166614332Y-128842023D01*
X166612309Y-128848538D01*
X166591106Y-129027681D01*
X166591106Y-130955175D01*
X163912106Y-130955175D01*
X163912106Y-129043235D01*
X163897060Y-128879494D01*
X163837171Y-128667141D01*
X163828352Y-128649256D01*
X163742608Y-128475386D01*
X163739586Y-128469258D01*
X163607573Y-128292472D01*
X163602556Y-128287834D01*
X163602553Y-128287831D01*
X163450576Y-128147345D01*
X163450574Y-128147343D01*
X163445555Y-128142704D01*
X163439777Y-128139059D01*
X163439774Y-128139056D01*
X163264733Y-128028614D01*
X163258956Y-128024969D01*
X163054027Y-127943211D01*
X162994147Y-127931300D01*
X162844333Y-127901500D01*
X162844330Y-127901500D01*
X162837630Y-127900167D01*
X162725870Y-127898704D01*
X162623846Y-127897368D01*
X162623841Y-127897368D01*
X162617012Y-127897279D01*
X162610279Y-127898436D01*
X162610278Y-127898436D01*
X162543753Y-127909867D01*
X162399563Y-127934643D01*
X162393164Y-127937004D01*
X162393159Y-127937005D01*
X162338492Y-127957173D01*
X162192563Y-128011009D01*
X162002947Y-128123819D01*
X161837063Y-128269295D01*
X161832836Y-128274657D01*
X161832835Y-128274658D01*
X161774042Y-128349238D01*
X161700469Y-128442565D01*
X161597737Y-128637825D01*
X161567231Y-128736069D01*
X161534333Y-128842018D01*
X161534332Y-128842023D01*
X161532309Y-128848538D01*
X161511106Y-129027681D01*
X161511106Y-130955175D01*
X135133906Y-130955175D01*
X135133906Y-129850000D01*
X138250000Y-129850000D01*
X153464967Y-129850000D01*
X153464967Y-129084286D01*
X155296833Y-129084286D01*
X155302929Y-129342935D01*
X155348078Y-129597687D01*
X155349895Y-129603039D01*
X155349896Y-129603044D01*
X155429423Y-129837324D01*
X155429426Y-129837331D01*
X155431241Y-129842678D01*
X155550505Y-130072270D01*
X155703125Y-130281181D01*
X155885589Y-130464603D01*
X156093698Y-130618315D01*
X156098708Y-130620951D01*
X156098713Y-130620954D01*
X156253261Y-130702265D01*
X156322663Y-130738779D01*
X156328011Y-130740626D01*
X156328014Y-130740627D01*
X156561868Y-130821378D01*
X156561872Y-130821379D01*
X156567215Y-130823224D01*
X156678377Y-130843526D01*
X156817031Y-130868849D01*
X156817038Y-130868850D01*
X156821726Y-130869706D01*
X156826490Y-130869956D01*
X156826493Y-130869956D01*
X156855671Y-130871485D01*
X156904519Y-130874045D01*
X157065782Y-130874045D01*
X157149116Y-130867706D01*
X157252342Y-130859854D01*
X157252348Y-130859853D01*
X157257976Y-130859425D01*
X157263479Y-130858149D01*
X157263482Y-130858149D01*
X157504510Y-130802282D01*
X157510015Y-130801006D01*
X157750318Y-130705135D01*
X157973354Y-130574018D01*
X158173991Y-130410674D01*
X158347613Y-130218860D01*
X158444455Y-130072270D01*
X158487105Y-130007711D01*
X158487108Y-130007706D01*
X158490222Y-130002992D01*
X158598538Y-129768036D01*
X158670068Y-129519400D01*
X158703167Y-129262804D01*
X158697071Y-129004155D01*
X158651922Y-128749403D01*
X158650104Y-128744046D01*
X158570577Y-128509766D01*
X158570574Y-128509759D01*
X158568759Y-128504412D01*
X158553594Y-128475217D01*
X158452106Y-128279846D01*
X158452105Y-128279844D01*
X158449495Y-128274820D01*
X158296875Y-128065909D01*
X158245739Y-128014504D01*
X158118402Y-127886499D01*
X158114411Y-127882487D01*
X157906302Y-127728775D01*
X157901292Y-127726139D01*
X157901287Y-127726136D01*
X157682351Y-127610949D01*
X157677337Y-127608311D01*
X157671989Y-127606464D01*
X157671986Y-127606463D01*
X157438132Y-127525712D01*
X157438128Y-127525711D01*
X157432785Y-127523866D01*
X157321623Y-127503564D01*
X157182969Y-127478241D01*
X157182962Y-127478240D01*
X157178274Y-127477384D01*
X157173510Y-127477134D01*
X157173507Y-127477134D01*
X157144329Y-127475605D01*
X157095481Y-127473045D01*
X156934218Y-127473045D01*
X156865912Y-127478241D01*
X156747658Y-127487236D01*
X156747652Y-127487237D01*
X156742024Y-127487665D01*
X156736521Y-127488941D01*
X156736518Y-127488941D01*
X156495490Y-127544808D01*
X156489985Y-127546084D01*
X156249682Y-127641955D01*
X156026646Y-127773072D01*
X155826009Y-127936416D01*
X155822209Y-127940614D01*
X155822207Y-127940616D01*
X155744980Y-128025935D01*
X155652387Y-128128230D01*
X155649267Y-128132952D01*
X155649266Y-128132954D01*
X155512895Y-128339379D01*
X155512892Y-128339384D01*
X155509778Y-128344098D01*
X155401462Y-128579054D01*
X155329932Y-128827690D01*
X155296833Y-129084286D01*
X153464967Y-129084286D01*
X153464967Y-125955175D01*
X161511106Y-125955175D01*
X161526152Y-126118916D01*
X161586041Y-126331269D01*
X161589063Y-126337398D01*
X161589065Y-126337402D01*
X161597281Y-126354062D01*
X161683626Y-126529152D01*
X161815639Y-126705938D01*
X161820656Y-126710576D01*
X161820659Y-126710579D01*
X161857952Y-126745052D01*
X161977657Y-126855706D01*
X161983435Y-126859351D01*
X161983438Y-126859354D01*
X162031244Y-126889517D01*
X162164256Y-126973441D01*
X162369185Y-127055199D01*
X162418071Y-127064923D01*
X162578879Y-127096910D01*
X162578882Y-127096910D01*
X162585582Y-127098243D01*
X162697342Y-127099706D01*
X162799366Y-127101042D01*
X162799371Y-127101042D01*
X162806200Y-127101131D01*
X162812933Y-127099974D01*
X162812934Y-127099974D01*
X163016921Y-127064923D01*
X163016920Y-127064923D01*
X163023649Y-127063767D01*
X163030048Y-127061406D01*
X163030053Y-127061405D01*
X163143119Y-127019692D01*
X163230649Y-126987401D01*
X163420265Y-126874591D01*
X163586149Y-126729115D01*
X163599725Y-126711894D01*
X163718514Y-126561210D01*
X163718516Y-126561207D01*
X163722743Y-126555845D01*
X163779110Y-126448711D01*
X163822295Y-126366630D01*
X163822297Y-126366626D01*
X163825475Y-126360585D01*
X163855981Y-126262341D01*
X163888879Y-126156392D01*
X163888880Y-126156387D01*
X163890903Y-126149872D01*
X163912106Y-125970729D01*
X163912106Y-125955175D01*
X166591106Y-125955175D01*
X166606152Y-126118916D01*
X166666041Y-126331269D01*
X166669063Y-126337398D01*
X166669065Y-126337402D01*
X166677281Y-126354062D01*
X166763626Y-126529152D01*
X166895639Y-126705938D01*
X166900656Y-126710576D01*
X166900659Y-126710579D01*
X166937952Y-126745052D01*
X167057657Y-126855706D01*
X167063435Y-126859351D01*
X167063438Y-126859354D01*
X167111244Y-126889517D01*
X167244256Y-126973441D01*
X167449185Y-127055199D01*
X167498071Y-127064923D01*
X167658879Y-127096910D01*
X167658882Y-127096910D01*
X167665582Y-127098243D01*
X167777342Y-127099706D01*
X167879366Y-127101042D01*
X167879371Y-127101042D01*
X167886200Y-127101131D01*
X167892933Y-127099974D01*
X167892934Y-127099974D01*
X168096921Y-127064923D01*
X168096920Y-127064923D01*
X168103649Y-127063767D01*
X168110048Y-127061406D01*
X168110053Y-127061405D01*
X168223119Y-127019692D01*
X168310649Y-126987401D01*
X168500265Y-126874591D01*
X168666149Y-126729115D01*
X168679725Y-126711894D01*
X168798514Y-126561210D01*
X168798516Y-126561207D01*
X168802743Y-126555845D01*
X168859110Y-126448711D01*
X168902295Y-126366630D01*
X168902297Y-126366626D01*
X168905475Y-126360585D01*
X168935981Y-126262341D01*
X168968879Y-126156392D01*
X168968880Y-126156387D01*
X168970903Y-126149872D01*
X168992106Y-125970729D01*
X168992106Y-124043235D01*
X168977060Y-123879494D01*
X168917171Y-123667141D01*
X168908352Y-123649256D01*
X168822608Y-123475386D01*
X168819586Y-123469258D01*
X168687573Y-123292472D01*
X168682556Y-123287834D01*
X168682553Y-123287831D01*
X168530576Y-123147345D01*
X168530574Y-123147343D01*
X168525555Y-123142704D01*
X168519777Y-123139059D01*
X168519774Y-123139056D01*
X168344733Y-123028614D01*
X168338956Y-123024969D01*
X168134027Y-122943211D01*
X168074147Y-122931300D01*
X167924333Y-122901500D01*
X167924330Y-122901500D01*
X167917630Y-122900167D01*
X167805870Y-122898704D01*
X167703846Y-122897368D01*
X167703841Y-122897368D01*
X167697012Y-122897279D01*
X167690279Y-122898436D01*
X167690278Y-122898436D01*
X167623753Y-122909867D01*
X167479563Y-122934643D01*
X167473164Y-122937004D01*
X167473159Y-122937005D01*
X167418492Y-122957173D01*
X167272563Y-123011009D01*
X167082947Y-123123819D01*
X166917063Y-123269295D01*
X166912836Y-123274657D01*
X166912835Y-123274658D01*
X166902451Y-123287831D01*
X166780469Y-123442565D01*
X166677737Y-123637825D01*
X166647231Y-123736069D01*
X166614333Y-123842018D01*
X166614332Y-123842023D01*
X166612309Y-123848538D01*
X166591106Y-124027681D01*
X166591106Y-125955175D01*
X163912106Y-125955175D01*
X163912106Y-124043235D01*
X163897060Y-123879494D01*
X163837171Y-123667141D01*
X163828352Y-123649256D01*
X163742608Y-123475386D01*
X163739586Y-123469258D01*
X163607573Y-123292472D01*
X163602556Y-123287834D01*
X163602553Y-123287831D01*
X163450576Y-123147345D01*
X163450574Y-123147343D01*
X163445555Y-123142704D01*
X163439777Y-123139059D01*
X163439774Y-123139056D01*
X163264733Y-123028614D01*
X163258956Y-123024969D01*
X163054027Y-122943211D01*
X162994147Y-122931300D01*
X162844333Y-122901500D01*
X162844330Y-122901500D01*
X162837630Y-122900167D01*
X162725870Y-122898704D01*
X162623846Y-122897368D01*
X162623841Y-122897368D01*
X162617012Y-122897279D01*
X162610279Y-122898436D01*
X162610278Y-122898436D01*
X162543753Y-122909867D01*
X162399563Y-122934643D01*
X162393164Y-122937004D01*
X162393159Y-122937005D01*
X162338492Y-122957173D01*
X162192563Y-123011009D01*
X162002947Y-123123819D01*
X161837063Y-123269295D01*
X161832836Y-123274657D01*
X161832835Y-123274658D01*
X161822451Y-123287831D01*
X161700469Y-123442565D01*
X161597737Y-123637825D01*
X161567231Y-123736069D01*
X161534333Y-123842018D01*
X161534332Y-123842023D01*
X161532309Y-123848538D01*
X161511106Y-124027681D01*
X161511106Y-125955175D01*
X153464967Y-125955175D01*
X153464967Y-125030549D01*
X138250000Y-125030549D01*
X138250000Y-129850000D01*
X135133906Y-129850000D01*
X135133906Y-129054666D01*
X135118860Y-128890925D01*
X135058971Y-128678572D01*
X135050310Y-128661008D01*
X134964408Y-128486817D01*
X134961386Y-128480689D01*
X134829373Y-128303903D01*
X134824356Y-128299265D01*
X134824353Y-128299262D01*
X134672376Y-128158776D01*
X134672374Y-128158774D01*
X134667355Y-128154135D01*
X134661577Y-128150490D01*
X134661574Y-128150487D01*
X134486533Y-128040045D01*
X134480756Y-128036400D01*
X134275827Y-127954642D01*
X134211658Y-127941878D01*
X134066133Y-127912931D01*
X134066130Y-127912931D01*
X134059430Y-127911598D01*
X133947670Y-127910135D01*
X133845646Y-127908799D01*
X133845641Y-127908799D01*
X133838812Y-127908710D01*
X133832079Y-127909867D01*
X133832078Y-127909867D01*
X133710249Y-127930801D01*
X133621363Y-127946074D01*
X133614964Y-127948435D01*
X133614959Y-127948436D01*
X133501893Y-127990149D01*
X133414363Y-128022440D01*
X133224747Y-128135250D01*
X133058863Y-128280726D01*
X133054636Y-128286088D01*
X133054635Y-128286089D01*
X132926512Y-128448614D01*
X132922269Y-128453996D01*
X132895744Y-128504412D01*
X132828732Y-128631780D01*
X132819537Y-128649256D01*
X132817512Y-128655779D01*
X132756133Y-128853449D01*
X132756132Y-128853454D01*
X132754109Y-128859969D01*
X132732906Y-129039112D01*
X132732906Y-130966606D01*
X130053906Y-130966606D01*
X130053906Y-129054666D01*
X130038860Y-128890925D01*
X129978971Y-128678572D01*
X129970310Y-128661008D01*
X129884408Y-128486817D01*
X129881386Y-128480689D01*
X129749373Y-128303903D01*
X129744356Y-128299265D01*
X129744353Y-128299262D01*
X129592376Y-128158776D01*
X129592374Y-128158774D01*
X129587355Y-128154135D01*
X129581577Y-128150490D01*
X129581574Y-128150487D01*
X129406533Y-128040045D01*
X129400756Y-128036400D01*
X129195827Y-127954642D01*
X129131658Y-127941878D01*
X128986133Y-127912931D01*
X128986130Y-127912931D01*
X128979430Y-127911598D01*
X128867670Y-127910135D01*
X128765646Y-127908799D01*
X128765641Y-127908799D01*
X128758812Y-127908710D01*
X128752079Y-127909867D01*
X128752078Y-127909867D01*
X128630249Y-127930801D01*
X128541363Y-127946074D01*
X128534964Y-127948435D01*
X128534959Y-127948436D01*
X128421893Y-127990149D01*
X128334363Y-128022440D01*
X128144747Y-128135250D01*
X127978863Y-128280726D01*
X127974636Y-128286088D01*
X127974635Y-128286089D01*
X127846512Y-128448614D01*
X127842269Y-128453996D01*
X127815744Y-128504412D01*
X127748732Y-128631780D01*
X127739537Y-128649256D01*
X127737512Y-128655779D01*
X127676133Y-128853449D01*
X127676132Y-128853454D01*
X127674109Y-128859969D01*
X127652906Y-129039112D01*
X127652906Y-130966606D01*
X126300000Y-130966606D01*
X126300000Y-125966606D01*
X127652906Y-125966606D01*
X127667952Y-126130347D01*
X127727841Y-126342700D01*
X127730863Y-126348829D01*
X127730865Y-126348833D01*
X127739081Y-126365493D01*
X127825426Y-126540583D01*
X127957439Y-126717369D01*
X127962456Y-126722007D01*
X127962459Y-126722010D01*
X127987386Y-126745052D01*
X128119457Y-126867137D01*
X128125235Y-126870782D01*
X128125238Y-126870785D01*
X128154927Y-126889517D01*
X128306056Y-126984872D01*
X128510985Y-127066630D01*
X128542185Y-127072836D01*
X128720679Y-127108341D01*
X128720682Y-127108341D01*
X128727382Y-127109674D01*
X128839142Y-127111137D01*
X128941166Y-127112473D01*
X128941171Y-127112473D01*
X128948000Y-127112562D01*
X128954733Y-127111405D01*
X128954734Y-127111405D01*
X129158721Y-127076354D01*
X129158720Y-127076354D01*
X129165449Y-127075198D01*
X129171848Y-127072837D01*
X129171853Y-127072836D01*
X129284919Y-127031123D01*
X129372449Y-126998832D01*
X129562065Y-126886022D01*
X129727949Y-126740546D01*
X129733408Y-126733621D01*
X129860314Y-126572641D01*
X129860316Y-126572638D01*
X129864543Y-126567276D01*
X129967275Y-126372016D01*
X129997781Y-126273772D01*
X130030679Y-126167823D01*
X130030680Y-126167818D01*
X130032703Y-126161303D01*
X130053906Y-125982160D01*
X130053906Y-125966606D01*
X132732906Y-125966606D01*
X132747952Y-126130347D01*
X132807841Y-126342700D01*
X132810863Y-126348829D01*
X132810865Y-126348833D01*
X132819081Y-126365493D01*
X132905426Y-126540583D01*
X133037439Y-126717369D01*
X133042456Y-126722007D01*
X133042459Y-126722010D01*
X133067386Y-126745052D01*
X133199457Y-126867137D01*
X133205235Y-126870782D01*
X133205238Y-126870785D01*
X133234927Y-126889517D01*
X133386056Y-126984872D01*
X133590985Y-127066630D01*
X133622185Y-127072836D01*
X133800679Y-127108341D01*
X133800682Y-127108341D01*
X133807382Y-127109674D01*
X133919142Y-127111137D01*
X134021166Y-127112473D01*
X134021171Y-127112473D01*
X134028000Y-127112562D01*
X134034733Y-127111405D01*
X134034734Y-127111405D01*
X134238721Y-127076354D01*
X134238720Y-127076354D01*
X134245449Y-127075198D01*
X134251848Y-127072837D01*
X134251853Y-127072836D01*
X134364919Y-127031123D01*
X134452449Y-126998832D01*
X134642065Y-126886022D01*
X134807949Y-126740546D01*
X134813408Y-126733621D01*
X134940314Y-126572641D01*
X134940316Y-126572638D01*
X134944543Y-126567276D01*
X135047275Y-126372016D01*
X135077781Y-126273772D01*
X135110679Y-126167823D01*
X135110680Y-126167818D01*
X135112703Y-126161303D01*
X135133906Y-125982160D01*
X135133906Y-124054666D01*
X135118860Y-123890925D01*
X135058971Y-123678572D01*
X135050310Y-123661008D01*
X134964408Y-123486817D01*
X134961386Y-123480689D01*
X134829373Y-123303903D01*
X134824356Y-123299265D01*
X134824353Y-123299262D01*
X134672376Y-123158776D01*
X134672374Y-123158774D01*
X134667355Y-123154135D01*
X134661577Y-123150490D01*
X134661574Y-123150487D01*
X134486533Y-123040045D01*
X134480756Y-123036400D01*
X134275827Y-122954642D01*
X134187160Y-122937005D01*
X134066133Y-122912931D01*
X134066130Y-122912931D01*
X134059430Y-122911598D01*
X133947670Y-122910135D01*
X133845646Y-122908799D01*
X133845641Y-122908799D01*
X133838812Y-122908710D01*
X133832079Y-122909867D01*
X133832078Y-122909867D01*
X133710249Y-122930801D01*
X133621363Y-122946074D01*
X133614964Y-122948435D01*
X133614959Y-122948436D01*
X133501893Y-122990149D01*
X133414363Y-123022440D01*
X133224747Y-123135250D01*
X133058863Y-123280726D01*
X133054636Y-123286088D01*
X133054635Y-123286089D01*
X132926512Y-123448614D01*
X132922269Y-123453996D01*
X132908225Y-123480689D01*
X132828732Y-123631780D01*
X132819537Y-123649256D01*
X132817512Y-123655779D01*
X132756133Y-123853449D01*
X132756132Y-123853454D01*
X132754109Y-123859969D01*
X132732906Y-124039112D01*
X132732906Y-125966606D01*
X130053906Y-125966606D01*
X130053906Y-124054666D01*
X130038860Y-123890925D01*
X129978971Y-123678572D01*
X129970310Y-123661008D01*
X129884408Y-123486817D01*
X129881386Y-123480689D01*
X129749373Y-123303903D01*
X129744356Y-123299265D01*
X129744353Y-123299262D01*
X129592376Y-123158776D01*
X129592374Y-123158774D01*
X129587355Y-123154135D01*
X129581577Y-123150490D01*
X129581574Y-123150487D01*
X129406533Y-123040045D01*
X129400756Y-123036400D01*
X129195827Y-122954642D01*
X129107160Y-122937005D01*
X128986133Y-122912931D01*
X128986130Y-122912931D01*
X128979430Y-122911598D01*
X128867670Y-122910135D01*
X128765646Y-122908799D01*
X128765641Y-122908799D01*
X128758812Y-122908710D01*
X128752079Y-122909867D01*
X128752078Y-122909867D01*
X128630249Y-122930801D01*
X128541363Y-122946074D01*
X128534964Y-122948435D01*
X128534959Y-122948436D01*
X128421893Y-122990149D01*
X128334363Y-123022440D01*
X128144747Y-123135250D01*
X127978863Y-123280726D01*
X127974636Y-123286088D01*
X127974635Y-123286089D01*
X127846512Y-123448614D01*
X127842269Y-123453996D01*
X127828225Y-123480689D01*
X127748732Y-123631780D01*
X127739537Y-123649256D01*
X127737512Y-123655779D01*
X127676133Y-123853449D01*
X127676132Y-123853454D01*
X127674109Y-123859969D01*
X127652906Y-124039112D01*
X127652906Y-125966606D01*
X126300000Y-125966606D01*
X126300000Y-118837783D01*
X132426425Y-118837783D01*
X132426824Y-118845484D01*
X132436551Y-118939233D01*
X132439971Y-118955073D01*
X132490592Y-119106804D01*
X132497885Y-119122373D01*
X132581783Y-119257949D01*
X132592472Y-119271436D01*
X132705307Y-119384075D01*
X132718801Y-119394732D01*
X132854529Y-119478395D01*
X132870117Y-119485664D01*
X133021942Y-119536023D01*
X133037757Y-119539413D01*
X133130273Y-119548892D01*
X133137868Y-119549280D01*
X133560808Y-119549280D01*
X133576279Y-119545135D01*
X133580424Y-119529664D01*
X133580424Y-118652396D01*
X133576279Y-118636925D01*
X133560808Y-118632780D01*
X132446041Y-118632780D01*
X132430570Y-118636925D01*
X132426425Y-118652396D01*
X132426425Y-118837783D01*
X126300000Y-118837783D01*
X126300000Y-108478489D01*
X129087588Y-108478489D01*
X129087987Y-108486190D01*
X129097714Y-108579939D01*
X129101134Y-108595779D01*
X129151755Y-108747510D01*
X129159048Y-108763079D01*
X129242946Y-108898655D01*
X129253635Y-108912142D01*
X129366470Y-109024781D01*
X129379964Y-109035438D01*
X129515692Y-109119101D01*
X129531280Y-109126370D01*
X129683105Y-109176729D01*
X129698920Y-109180119D01*
X129791436Y-109189598D01*
X129799031Y-109189986D01*
X129984471Y-109189986D01*
X129999942Y-109185841D01*
X130004087Y-109170370D01*
X130004087Y-108055602D01*
X129999942Y-108040131D01*
X129984471Y-108035986D01*
X129107204Y-108035986D01*
X129091733Y-108040131D01*
X129087588Y-108055602D01*
X129087588Y-108478489D01*
X126300000Y-108478489D01*
X126300000Y-99989665D01*
X127629546Y-99989665D01*
X127630491Y-99997144D01*
X127630491Y-99997149D01*
X127633231Y-100018834D01*
X127634406Y-100037509D01*
X127634406Y-103980416D01*
X127634348Y-103984577D01*
X127631946Y-104070559D01*
X127642278Y-104129151D01*
X127643776Y-104139951D01*
X127649786Y-104199122D01*
X127652363Y-104207345D01*
X127657950Y-104225173D01*
X127662504Y-104243857D01*
X127667242Y-104270727D01*
X127670021Y-104277745D01*
X127689132Y-104326016D01*
X127692777Y-104336308D01*
X127710568Y-104393078D01*
X127714230Y-104399684D01*
X127723801Y-104416951D01*
X127732020Y-104434338D01*
X127739286Y-104452691D01*
X127739289Y-104452697D01*
X127742066Y-104459711D01*
X127746201Y-104466030D01*
X127746202Y-104466032D01*
X127774633Y-104509480D01*
X127780273Y-104518829D01*
X127809109Y-104570850D01*
X127814017Y-104576576D01*
X127814023Y-104576585D01*
X127826873Y-104591577D01*
X127838418Y-104606953D01*
X127853361Y-104629788D01*
X127857823Y-104634744D01*
X127896111Y-104673032D01*
X127903883Y-104681425D01*
X127941383Y-104725177D01*
X127964613Y-104743196D01*
X127978649Y-104755570D01*
X129018889Y-105795810D01*
X129021790Y-105798793D01*
X129080881Y-105861280D01*
X129087065Y-105865610D01*
X129087066Y-105865611D01*
X129129606Y-105895398D01*
X129138313Y-105901983D01*
X129184403Y-105939573D01*
X129191087Y-105943067D01*
X129191091Y-105943070D01*
X129208595Y-105952221D01*
X129225021Y-105962208D01*
X129247379Y-105977863D01*
X129254305Y-105980860D01*
X129254310Y-105980863D01*
X129301965Y-106001485D01*
X129311821Y-106006186D01*
X129357841Y-106030245D01*
X129357848Y-106030248D01*
X129364530Y-106033741D01*
X129371785Y-106035821D01*
X129371787Y-106035822D01*
X129390764Y-106041264D01*
X129408871Y-106047747D01*
X129426990Y-106055588D01*
X129426995Y-106055590D01*
X129433919Y-106058586D01*
X129441305Y-106060129D01*
X129441308Y-106060130D01*
X129492144Y-106070750D01*
X129502743Y-106073373D01*
X129552655Y-106087685D01*
X129552657Y-106087685D01*
X129559913Y-106089766D01*
X129587127Y-106091860D01*
X129606165Y-106094570D01*
X129611522Y-106095689D01*
X129632880Y-106100151D01*
X129638600Y-106100451D01*
X129644275Y-106101188D01*
X129643982Y-106103445D01*
X129707387Y-106124066D01*
X129758980Y-106181397D01*
X129774996Y-106256844D01*
X129751142Y-106330191D01*
X129693811Y-106381784D01*
X129673356Y-106390348D01*
X129530065Y-106438153D01*
X129514494Y-106445447D01*
X129378918Y-106529345D01*
X129365431Y-106540034D01*
X129252792Y-106652869D01*
X129242135Y-106666363D01*
X129158472Y-106802091D01*
X129151203Y-106817679D01*
X129100844Y-106969504D01*
X129097454Y-106985319D01*
X129087975Y-107077835D01*
X129087587Y-107085431D01*
X129087587Y-107508370D01*
X129091732Y-107523841D01*
X129107203Y-107527986D01*
X130363087Y-107527986D01*
X130437587Y-107547948D01*
X130492125Y-107602486D01*
X130512087Y-107676986D01*
X130512087Y-109170369D01*
X130516639Y-109187357D01*
X130518390Y-109189108D01*
X130576490Y-109222651D01*
X130615055Y-109289446D01*
X130615055Y-109366574D01*
X130585272Y-109423786D01*
X130558147Y-109456113D01*
X130458899Y-109636645D01*
X130456696Y-109643589D01*
X130456695Y-109643592D01*
X130439496Y-109697810D01*
X130396607Y-109833015D01*
X130395794Y-109840259D01*
X130395794Y-109840261D01*
X130374478Y-110030298D01*
X130373643Y-110037745D01*
X130390882Y-110243036D01*
X130447667Y-110441069D01*
X130541835Y-110624301D01*
X130669800Y-110785753D01*
X130675346Y-110790473D01*
X130813424Y-110907986D01*
X130826687Y-110919274D01*
X130959388Y-110993438D01*
X131006521Y-111019780D01*
X131005210Y-111022126D01*
X131055263Y-111062088D01*
X131083401Y-111133900D01*
X131071864Y-111210160D01*
X131023741Y-111270434D01*
X130951929Y-111298572D01*
X130935329Y-111299500D01*
X129351457Y-111299500D01*
X129307397Y-111292836D01*
X129255838Y-111276876D01*
X129117254Y-111233977D01*
X129110008Y-111233215D01*
X129110006Y-111233215D01*
X128919610Y-111213204D01*
X128919609Y-111213204D01*
X128912369Y-111212443D01*
X128707203Y-111231114D01*
X128700214Y-111233171D01*
X128516560Y-111287223D01*
X128516557Y-111287224D01*
X128509572Y-111289280D01*
X128503117Y-111292655D01*
X128503116Y-111292655D01*
X128481473Y-111303970D01*
X128327002Y-111384726D01*
X128280284Y-111422288D01*
X128180702Y-111502354D01*
X128166447Y-111513815D01*
X128161763Y-111519397D01*
X128161760Y-111519400D01*
X128038707Y-111666049D01*
X128034024Y-111671630D01*
X127934776Y-111852162D01*
X127932573Y-111859106D01*
X127932572Y-111859109D01*
X127894334Y-111979651D01*
X127872484Y-112048532D01*
X127871671Y-112055776D01*
X127871671Y-112055778D01*
X127851696Y-112233863D01*
X127849520Y-112253262D01*
X127866759Y-112458553D01*
X127923544Y-112656586D01*
X127926874Y-112663066D01*
X127926875Y-112663068D01*
X127944628Y-112697611D01*
X128017712Y-112839818D01*
X128058483Y-112891258D01*
X128130394Y-112981987D01*
X128145677Y-113001270D01*
X128151223Y-113005990D01*
X128284817Y-113119687D01*
X128302564Y-113134791D01*
X128482398Y-113235297D01*
X128678329Y-113298959D01*
X128723298Y-113304321D01*
X128875662Y-113322489D01*
X128875665Y-113322489D01*
X128882894Y-113323351D01*
X129044918Y-113310884D01*
X129081036Y-113308105D01*
X129081037Y-113308105D01*
X129088300Y-113307546D01*
X129095319Y-113305586D01*
X129102494Y-113304321D01*
X129102578Y-113304797D01*
X129133946Y-113300500D01*
X132380988Y-113300500D01*
X132402921Y-113298272D01*
X132479055Y-113310603D01*
X132523336Y-113341150D01*
X133220703Y-114038517D01*
X133259267Y-114105312D01*
X133259267Y-114182440D01*
X133220703Y-114249235D01*
X133153908Y-114287799D01*
X133133245Y-114291797D01*
X133061380Y-114300494D01*
X133051877Y-114301644D01*
X132911641Y-114357167D01*
X132791502Y-114448358D01*
X132785046Y-114456864D01*
X132784599Y-114457211D01*
X132778180Y-114463630D01*
X132777369Y-114462819D01*
X132724104Y-114504137D01*
X132666362Y-114515780D01*
X132162387Y-114515780D01*
X132087887Y-114495818D01*
X132067416Y-114481591D01*
X132018208Y-114440882D01*
X132011804Y-114437420D01*
X132011802Y-114437418D01*
X131843401Y-114346364D01*
X131843397Y-114346362D01*
X131836988Y-114342897D01*
X131640187Y-114281977D01*
X131632941Y-114281215D01*
X131632939Y-114281215D01*
X131442543Y-114261204D01*
X131442542Y-114261204D01*
X131435302Y-114260443D01*
X131230136Y-114279114D01*
X131223147Y-114281171D01*
X131039493Y-114335223D01*
X131039490Y-114335224D01*
X131032505Y-114337280D01*
X131026050Y-114340655D01*
X131026049Y-114340655D01*
X131015129Y-114346364D01*
X130849935Y-114432726D01*
X130689380Y-114561815D01*
X130684696Y-114567397D01*
X130684693Y-114567400D01*
X130581455Y-114690434D01*
X130556957Y-114719630D01*
X130457709Y-114900162D01*
X130455506Y-114907106D01*
X130455505Y-114907109D01*
X130426834Y-114997492D01*
X130395417Y-115096532D01*
X130394604Y-115103776D01*
X130394604Y-115103778D01*
X130373901Y-115288350D01*
X130372453Y-115301262D01*
X130389692Y-115506553D01*
X130446477Y-115704586D01*
X130540645Y-115887818D01*
X130590028Y-115950124D01*
X130648428Y-116023806D01*
X130668610Y-116049270D01*
X130674156Y-116053990D01*
X130818123Y-116176515D01*
X130825497Y-116182791D01*
X131005331Y-116283297D01*
X131012268Y-116285551D01*
X131025008Y-116289691D01*
X131201262Y-116346959D01*
X131256840Y-116353586D01*
X131398595Y-116370489D01*
X131398598Y-116370489D01*
X131405827Y-116371351D01*
X131567851Y-116358884D01*
X131603969Y-116356105D01*
X131603970Y-116356105D01*
X131611233Y-116355546D01*
X131726590Y-116323338D01*
X131802640Y-116302105D01*
X131802645Y-116302103D01*
X131809658Y-116300145D01*
X131816159Y-116296861D01*
X131816162Y-116296860D01*
X131987038Y-116210544D01*
X131987039Y-116210544D01*
X131993543Y-116207258D01*
X132020308Y-116186347D01*
X132068922Y-116148366D01*
X132139919Y-116118230D01*
X132160655Y-116116780D01*
X132251000Y-116116780D01*
X132325500Y-116136742D01*
X132380038Y-116191280D01*
X132400000Y-116265780D01*
X132400000Y-117900000D01*
X132405048Y-117899223D01*
X132412520Y-117927109D01*
X132421347Y-117942398D01*
X132426424Y-117980962D01*
X132426424Y-118105164D01*
X132430569Y-118120635D01*
X132446040Y-118124780D01*
X133939424Y-118124780D01*
X134013924Y-118144742D01*
X134068462Y-118199280D01*
X134088424Y-118273780D01*
X134088424Y-119529663D01*
X134092569Y-119545134D01*
X134108040Y-119549279D01*
X134530927Y-119549279D01*
X134538628Y-119548880D01*
X134632377Y-119539153D01*
X134648217Y-119535733D01*
X134799948Y-119485112D01*
X134815517Y-119477819D01*
X134951093Y-119393921D01*
X134964580Y-119383232D01*
X135077219Y-119270397D01*
X135087876Y-119256903D01*
X135171539Y-119121175D01*
X135178808Y-119105587D01*
X135229167Y-118953762D01*
X135232557Y-118937947D01*
X135242424Y-118841643D01*
X135243653Y-118841769D01*
X135265688Y-118773634D01*
X135322935Y-118721948D01*
X135398356Y-118705809D01*
X135471742Y-118729542D01*
X135478341Y-118734072D01*
X135540948Y-118779559D01*
X135540956Y-118779564D01*
X135547270Y-118784151D01*
X135720197Y-118861144D01*
X135727833Y-118862767D01*
X135727836Y-118862768D01*
X135897713Y-118898876D01*
X135897714Y-118898876D01*
X135905354Y-118900500D01*
X136094646Y-118900500D01*
X136102286Y-118898876D01*
X136102287Y-118898876D01*
X136272164Y-118862768D01*
X136272167Y-118862767D01*
X136279803Y-118861144D01*
X136452730Y-118784151D01*
X136531304Y-118727064D01*
X136599551Y-118677480D01*
X136599553Y-118677479D01*
X136605871Y-118672888D01*
X136661597Y-118610998D01*
X136727307Y-118538021D01*
X136727311Y-118538016D01*
X136732533Y-118532216D01*
X136827179Y-118368284D01*
X136885674Y-118188256D01*
X136890248Y-118144742D01*
X136904644Y-118007764D01*
X136905460Y-118000000D01*
X136897799Y-117927109D01*
X136886491Y-117819514D01*
X136886490Y-117819511D01*
X136885674Y-117811744D01*
X136870052Y-117763663D01*
X136849440Y-117700227D01*
X136827179Y-117631716D01*
X136756319Y-117508982D01*
X136736357Y-117434483D01*
X136756319Y-117359983D01*
X136810857Y-117305445D01*
X136885357Y-117285483D01*
X137037740Y-117285483D01*
X137053211Y-117281338D01*
X137057356Y-117265867D01*
X137057356Y-117265866D01*
X137507356Y-117265866D01*
X137511501Y-117281337D01*
X137526972Y-117285482D01*
X138126416Y-117285482D01*
X138134447Y-117285047D01*
X138183279Y-117279743D01*
X138201309Y-117275456D01*
X138318876Y-117231382D01*
X138337315Y-117221287D01*
X138436763Y-117146755D01*
X138451628Y-117131890D01*
X138526160Y-117032442D01*
X138536255Y-117014003D01*
X138580328Y-116896439D01*
X138584617Y-116878404D01*
X138589922Y-116829571D01*
X138590356Y-116821545D01*
X138590356Y-116797099D01*
X138586211Y-116781628D01*
X138570740Y-116777483D01*
X137526972Y-116777483D01*
X137511501Y-116781628D01*
X137507356Y-116797099D01*
X137507356Y-117265866D01*
X137057356Y-117265866D01*
X137057356Y-116576983D01*
X137077318Y-116502483D01*
X137131856Y-116447945D01*
X137206356Y-116427983D01*
X138127002Y-116427983D01*
X138153202Y-116424865D01*
X138231733Y-116389983D01*
X138242936Y-116385007D01*
X138242937Y-116385006D01*
X138255509Y-116379422D01*
X138265227Y-116369687D01*
X138276566Y-116361894D01*
X138277490Y-116363238D01*
X138330465Y-116332593D01*
X138369152Y-116327483D01*
X138570739Y-116327483D01*
X138586210Y-116323338D01*
X138590355Y-116307867D01*
X138590355Y-116283423D01*
X138589920Y-116275392D01*
X138584616Y-116226560D01*
X138580329Y-116208530D01*
X138536255Y-116090963D01*
X138526160Y-116072524D01*
X138451628Y-115973076D01*
X138429259Y-115950707D01*
X138431481Y-115948485D01*
X138394854Y-115901856D01*
X138382856Y-115843278D01*
X138382856Y-115632837D01*
X138379738Y-115606637D01*
X138380815Y-115606509D01*
X138380755Y-115547914D01*
X138379862Y-115547810D01*
X138380747Y-115540218D01*
X138382856Y-115522129D01*
X138382856Y-114982837D01*
X138381939Y-114975128D01*
X138381059Y-114967736D01*
X138381059Y-114967735D01*
X138379738Y-114956637D01*
X138380815Y-114956509D01*
X138380755Y-114897914D01*
X138379862Y-114897810D01*
X138380747Y-114890218D01*
X138382856Y-114872129D01*
X138382856Y-114332837D01*
X138379738Y-114306637D01*
X138380815Y-114306509D01*
X138380755Y-114247914D01*
X138379862Y-114247810D01*
X138380747Y-114240218D01*
X138382856Y-114222129D01*
X138382856Y-113682837D01*
X138379738Y-113656637D01*
X138334295Y-113554330D01*
X138255069Y-113475242D01*
X138242487Y-113469680D01*
X138242485Y-113469678D01*
X138172622Y-113438792D01*
X138112555Y-113390411D01*
X138084727Y-113318478D01*
X138096593Y-113242269D01*
X138144974Y-113182202D01*
X138172384Y-113166345D01*
X138222016Y-113144299D01*
X138255509Y-113129422D01*
X138334597Y-113050196D01*
X138340364Y-113037153D01*
X138375332Y-112958057D01*
X138375332Y-112958056D01*
X138379862Y-112947810D01*
X138382856Y-112922129D01*
X138382856Y-112382837D01*
X138379738Y-112356637D01*
X138380815Y-112356509D01*
X138380755Y-112297914D01*
X138379862Y-112297810D01*
X138380747Y-112290218D01*
X138382856Y-112272129D01*
X138382856Y-111732837D01*
X138379738Y-111706637D01*
X138334295Y-111604330D01*
X138255069Y-111525242D01*
X138242487Y-111519680D01*
X138242485Y-111519678D01*
X138172622Y-111488792D01*
X138112555Y-111440411D01*
X138084727Y-111368478D01*
X138096593Y-111292269D01*
X138144974Y-111232202D01*
X138172384Y-111216345D01*
X138210572Y-111199382D01*
X138255509Y-111179422D01*
X138334597Y-111100196D01*
X138340364Y-111087153D01*
X138375332Y-111008057D01*
X138375332Y-111008056D01*
X138379862Y-110997810D01*
X138381992Y-110979538D01*
X138382357Y-110976413D01*
X138382357Y-110976405D01*
X138382856Y-110972129D01*
X138382856Y-110432837D01*
X138379738Y-110406637D01*
X138380815Y-110406509D01*
X138380755Y-110347914D01*
X138379862Y-110347810D01*
X138380747Y-110340218D01*
X138382856Y-110322129D01*
X138382856Y-109782837D01*
X138379738Y-109756637D01*
X138380815Y-109756509D01*
X138380755Y-109697914D01*
X138379862Y-109697810D01*
X138380747Y-109690218D01*
X138382856Y-109672129D01*
X138382856Y-109132837D01*
X138380186Y-109110397D01*
X138379738Y-109106637D01*
X138380815Y-109106509D01*
X138380755Y-109047914D01*
X138379862Y-109047810D01*
X138380747Y-109040218D01*
X138382856Y-109022129D01*
X138382856Y-108482837D01*
X138381616Y-108472417D01*
X138381059Y-108467736D01*
X138381059Y-108467735D01*
X138379738Y-108456637D01*
X138380815Y-108456509D01*
X138380755Y-108397914D01*
X138379862Y-108397810D01*
X138380747Y-108390218D01*
X138382856Y-108372129D01*
X138382856Y-107857867D01*
X142074356Y-107857867D01*
X142078501Y-107873338D01*
X142093972Y-107877483D01*
X143137740Y-107877483D01*
X143153211Y-107873338D01*
X143157356Y-107857867D01*
X143157356Y-107389100D01*
X143153211Y-107373629D01*
X143137740Y-107369484D01*
X142538296Y-107369484D01*
X142530265Y-107369919D01*
X142481433Y-107375223D01*
X142463403Y-107379510D01*
X142345836Y-107423584D01*
X142327397Y-107433679D01*
X142227949Y-107508211D01*
X142213084Y-107523076D01*
X142138552Y-107622524D01*
X142128457Y-107640963D01*
X142084384Y-107758527D01*
X142080095Y-107776562D01*
X142074790Y-107825395D01*
X142074356Y-107833421D01*
X142074356Y-107857867D01*
X138382856Y-107857867D01*
X138382856Y-107832837D01*
X138379738Y-107806637D01*
X138334295Y-107704330D01*
X138255069Y-107625242D01*
X138242489Y-107619680D01*
X138242487Y-107619679D01*
X138162930Y-107584507D01*
X138162929Y-107584507D01*
X138152683Y-107579977D01*
X138138038Y-107578270D01*
X138131286Y-107577482D01*
X138131278Y-107577482D01*
X138127002Y-107576983D01*
X137899500Y-107576983D01*
X137825000Y-107557021D01*
X137770462Y-107502483D01*
X137750500Y-107427983D01*
X137750500Y-107424500D01*
X137770462Y-107350000D01*
X137825000Y-107295462D01*
X137899500Y-107275500D01*
X137942772Y-107275500D01*
X138032547Y-107264636D01*
X138172783Y-107209113D01*
X138292922Y-107117922D01*
X138384113Y-106997783D01*
X138439636Y-106857547D01*
X138450500Y-106767772D01*
X138450500Y-105857228D01*
X138450167Y-105854475D01*
X138450000Y-105848934D01*
X138450000Y-103651066D01*
X138450167Y-103645525D01*
X138450500Y-103642772D01*
X138450500Y-102732228D01*
X138439636Y-102642453D01*
X138384113Y-102502217D01*
X138292922Y-102382078D01*
X138172783Y-102290887D01*
X138032547Y-102235364D01*
X137942772Y-102224500D01*
X136557228Y-102224500D01*
X136467453Y-102235364D01*
X136327217Y-102290887D01*
X136207078Y-102382078D01*
X136115887Y-102502217D01*
X136060364Y-102642453D01*
X136049500Y-102732228D01*
X136048663Y-102732127D01*
X136025620Y-102801215D01*
X135971665Y-102850272D01*
X135962613Y-102853540D01*
X135954043Y-102859800D01*
X135945442Y-102864374D01*
X135937237Y-102869622D01*
X135927572Y-102874016D01*
X135919529Y-102880947D01*
X135919528Y-102880947D01*
X135893025Y-102903783D01*
X135883668Y-102911213D01*
X135878317Y-102915123D01*
X135878312Y-102915127D01*
X135873664Y-102918523D01*
X135863521Y-102928666D01*
X135855424Y-102936183D01*
X135818963Y-102967600D01*
X135813189Y-102976508D01*
X135806210Y-102984508D01*
X135805930Y-102984263D01*
X135797482Y-102994705D01*
X135455683Y-103336503D01*
X135388888Y-103375067D01*
X135311760Y-103375067D01*
X135244965Y-103336503D01*
X135206401Y-103269708D01*
X135201610Y-103240367D01*
X135200786Y-103227081D01*
X135200500Y-103217858D01*
X135200500Y-103202699D01*
X135199183Y-103193505D01*
X135197964Y-103181607D01*
X135195798Y-103146695D01*
X135195141Y-103136101D01*
X135191536Y-103126116D01*
X135189560Y-103116573D01*
X135186828Y-103107229D01*
X135185323Y-103096721D01*
X135166450Y-103055211D01*
X135161943Y-103044141D01*
X135146460Y-103001252D01*
X135140196Y-102992677D01*
X135135625Y-102984081D01*
X135130380Y-102975880D01*
X135125984Y-102966211D01*
X135119053Y-102958168D01*
X135119051Y-102958164D01*
X135096216Y-102931663D01*
X135088776Y-102922293D01*
X135081478Y-102912303D01*
X135071328Y-102902153D01*
X135063810Y-102894055D01*
X135039330Y-102865645D01*
X135032400Y-102857602D01*
X135023492Y-102851828D01*
X135015492Y-102844849D01*
X135015737Y-102844568D01*
X135005298Y-102836123D01*
X134519141Y-102349966D01*
X134480577Y-102283171D01*
X134475500Y-102244607D01*
X134475500Y-101607228D01*
X134464636Y-101517453D01*
X134409113Y-101377217D01*
X134317922Y-101257078D01*
X134197783Y-101165887D01*
X134057547Y-101110364D01*
X133967772Y-101099500D01*
X132632228Y-101099500D01*
X132542453Y-101110364D01*
X132402217Y-101165887D01*
X132282078Y-101257078D01*
X132275938Y-101265167D01*
X132209863Y-101352217D01*
X132190887Y-101377217D01*
X132188881Y-101375694D01*
X132145384Y-101420107D01*
X132071096Y-101440845D01*
X131996392Y-101421660D01*
X131939731Y-101364996D01*
X131937853Y-101361663D01*
X131934113Y-101352217D01*
X131857238Y-101250938D01*
X131849062Y-101240167D01*
X131842922Y-101232078D01*
X131722783Y-101140887D01*
X131582547Y-101085364D01*
X131492772Y-101074500D01*
X130107228Y-101074500D01*
X130017453Y-101085364D01*
X129877217Y-101140887D01*
X129869126Y-101147028D01*
X129860274Y-101152016D01*
X129858782Y-101149368D01*
X129803067Y-101172099D01*
X129726654Y-101161624D01*
X129665715Y-101114347D01*
X129636579Y-101042933D01*
X129635406Y-101024272D01*
X129635406Y-100441233D01*
X129655368Y-100366733D01*
X129679047Y-100335874D01*
X132184921Y-97830000D01*
X135744540Y-97830000D01*
X135764326Y-98018256D01*
X135822821Y-98198284D01*
X135877365Y-98292756D01*
X135910681Y-98350462D01*
X135917467Y-98362216D01*
X135922689Y-98368016D01*
X135922693Y-98368021D01*
X135988403Y-98440998D01*
X136044129Y-98502888D01*
X136197270Y-98614151D01*
X136370197Y-98691144D01*
X136377833Y-98692767D01*
X136377836Y-98692768D01*
X136547713Y-98728876D01*
X136547714Y-98728876D01*
X136555354Y-98730500D01*
X136744646Y-98730500D01*
X136752286Y-98728876D01*
X136752287Y-98728876D01*
X136922164Y-98692768D01*
X136922167Y-98692767D01*
X136929803Y-98691144D01*
X137102730Y-98614151D01*
X137255871Y-98502888D01*
X137366703Y-98379797D01*
X137431386Y-98337793D01*
X137477429Y-98330500D01*
X139064320Y-98330500D01*
X139138820Y-98350462D01*
X139169679Y-98374141D01*
X144146226Y-103350688D01*
X144184790Y-103417483D01*
X144189867Y-103456047D01*
X144189867Y-107220483D01*
X144169905Y-107294983D01*
X144115367Y-107349521D01*
X144040867Y-107369483D01*
X143626972Y-107369483D01*
X143611501Y-107373628D01*
X143607356Y-107389099D01*
X143607356Y-108077983D01*
X143587394Y-108152483D01*
X143532856Y-108207021D01*
X143458356Y-108226983D01*
X142537710Y-108226983D01*
X142511510Y-108230101D01*
X142475946Y-108245898D01*
X142421776Y-108269959D01*
X142421775Y-108269960D01*
X142409203Y-108275544D01*
X142399485Y-108285279D01*
X142388146Y-108293072D01*
X142387222Y-108291728D01*
X142334247Y-108322373D01*
X142295560Y-108327483D01*
X142093973Y-108327483D01*
X142078502Y-108331628D01*
X142074357Y-108347099D01*
X142074357Y-108371543D01*
X142074792Y-108379574D01*
X142080096Y-108428406D01*
X142084383Y-108446436D01*
X142128457Y-108564003D01*
X142138552Y-108582442D01*
X142213084Y-108681890D01*
X142235453Y-108704259D01*
X142233231Y-108706481D01*
X142269858Y-108753110D01*
X142281856Y-108811688D01*
X142281856Y-109022129D01*
X142283887Y-109039195D01*
X142283887Y-109039196D01*
X142284974Y-109048329D01*
X142283897Y-109048457D01*
X142283957Y-109107052D01*
X142284850Y-109107156D01*
X142281856Y-109132837D01*
X142281856Y-109672129D01*
X142283887Y-109689195D01*
X142283887Y-109689196D01*
X142284974Y-109698329D01*
X142283897Y-109698457D01*
X142283957Y-109757052D01*
X142284850Y-109757156D01*
X142281856Y-109782837D01*
X142281856Y-110322129D01*
X142283887Y-110339195D01*
X142283887Y-110339196D01*
X142284974Y-110348329D01*
X142283897Y-110348457D01*
X142283957Y-110407052D01*
X142284850Y-110407156D01*
X142281856Y-110432837D01*
X142281856Y-110972129D01*
X142283887Y-110989195D01*
X142283887Y-110989196D01*
X142284974Y-110998329D01*
X142283897Y-110998457D01*
X142283957Y-111057052D01*
X142284850Y-111057156D01*
X142281856Y-111082837D01*
X142281856Y-111622129D01*
X142283887Y-111639195D01*
X142283887Y-111639196D01*
X142284974Y-111648329D01*
X142283897Y-111648457D01*
X142283957Y-111707052D01*
X142284850Y-111707156D01*
X142281856Y-111732837D01*
X142281856Y-112272129D01*
X142283887Y-112289195D01*
X142283887Y-112289196D01*
X142284974Y-112298329D01*
X142283897Y-112298457D01*
X142283957Y-112357052D01*
X142284850Y-112357156D01*
X142281856Y-112382837D01*
X142281856Y-112922129D01*
X142283887Y-112939195D01*
X142283887Y-112939196D01*
X142284974Y-112948329D01*
X142283897Y-112948457D01*
X142283957Y-113007052D01*
X142284850Y-113007156D01*
X142281856Y-113032837D01*
X142281856Y-113572129D01*
X142283887Y-113589195D01*
X142283887Y-113589196D01*
X142284974Y-113598329D01*
X142283897Y-113598457D01*
X142283957Y-113657052D01*
X142284850Y-113657156D01*
X142281856Y-113682837D01*
X142281856Y-114222129D01*
X142283887Y-114239195D01*
X142283887Y-114239196D01*
X142284974Y-114248329D01*
X142283897Y-114248457D01*
X142283957Y-114307052D01*
X142284850Y-114307156D01*
X142281856Y-114332837D01*
X142281856Y-114872129D01*
X142283887Y-114889195D01*
X142283887Y-114889196D01*
X142284974Y-114898329D01*
X142283897Y-114898457D01*
X142283957Y-114957052D01*
X142284850Y-114957156D01*
X142281856Y-114982837D01*
X142281856Y-115522129D01*
X142283887Y-115539195D01*
X142283887Y-115539196D01*
X142284974Y-115548329D01*
X142283897Y-115548457D01*
X142283957Y-115607052D01*
X142284850Y-115607156D01*
X142281856Y-115632837D01*
X142281856Y-116172129D01*
X142283887Y-116189195D01*
X142283887Y-116189196D01*
X142284974Y-116198329D01*
X142283897Y-116198457D01*
X142283957Y-116257052D01*
X142284850Y-116257156D01*
X142281856Y-116282837D01*
X142281856Y-116822129D01*
X142284974Y-116848329D01*
X142330417Y-116950636D01*
X142409643Y-117029724D01*
X142422223Y-117035286D01*
X142422225Y-117035287D01*
X142501782Y-117070459D01*
X142512029Y-117074989D01*
X142526674Y-117076696D01*
X142533426Y-117077484D01*
X142533434Y-117077484D01*
X142537710Y-117077983D01*
X142732856Y-117077983D01*
X142807356Y-117097945D01*
X142861894Y-117152483D01*
X142881856Y-117226983D01*
X142881856Y-117454235D01*
X142861894Y-117528735D01*
X142807356Y-117583273D01*
X142750757Y-117602156D01*
X142704871Y-117607709D01*
X142695368Y-117608859D01*
X142555132Y-117664382D01*
X142513054Y-117696321D01*
X142453605Y-117741446D01*
X142434993Y-117755573D01*
X142343802Y-117875712D01*
X142288279Y-118015948D01*
X142277415Y-118105723D01*
X142277415Y-119441267D01*
X142288279Y-119531042D01*
X142343802Y-119671278D01*
X142434993Y-119791417D01*
X142443082Y-119797557D01*
X142443085Y-119797560D01*
X142516305Y-119853137D01*
X142563578Y-119914080D01*
X142574045Y-119990495D01*
X142544903Y-120061905D01*
X142481070Y-120110357D01*
X142454729Y-120120786D01*
X142334590Y-120211977D01*
X142243399Y-120332116D01*
X142187876Y-120472352D01*
X142177012Y-120562127D01*
X142177012Y-120605399D01*
X142157050Y-120679899D01*
X142102512Y-120734437D01*
X142028012Y-120754399D01*
X141800326Y-120754399D01*
X141725826Y-120734437D01*
X141689598Y-120705100D01*
X141666907Y-120679899D01*
X141605871Y-120612112D01*
X141596632Y-120605399D01*
X141503560Y-120537779D01*
X141452730Y-120500849D01*
X141279803Y-120423856D01*
X141272167Y-120422233D01*
X141272164Y-120422232D01*
X141102287Y-120386124D01*
X141102286Y-120386124D01*
X141094646Y-120384500D01*
X140905354Y-120384500D01*
X140897714Y-120386124D01*
X140897713Y-120386124D01*
X140727836Y-120422232D01*
X140727833Y-120422233D01*
X140720197Y-120423856D01*
X140547270Y-120500849D01*
X140496440Y-120537779D01*
X140403369Y-120605399D01*
X140394129Y-120612112D01*
X140353600Y-120657124D01*
X140272693Y-120746979D01*
X140272689Y-120746984D01*
X140267467Y-120752784D01*
X140263564Y-120759544D01*
X140263562Y-120759547D01*
X140240599Y-120799321D01*
X140172821Y-120916716D01*
X140114326Y-121096744D01*
X140094540Y-121285000D01*
X140114326Y-121473256D01*
X140172821Y-121653284D01*
X140213992Y-121724595D01*
X140255343Y-121796216D01*
X140267467Y-121817216D01*
X140272689Y-121823016D01*
X140272693Y-121823021D01*
X140328791Y-121885323D01*
X140394129Y-121957888D01*
X140400447Y-121962479D01*
X140400449Y-121962480D01*
X140422261Y-121978327D01*
X140547270Y-122069151D01*
X140720197Y-122146144D01*
X140727833Y-122147767D01*
X140727836Y-122147768D01*
X140897713Y-122183876D01*
X140897714Y-122183876D01*
X140905354Y-122185500D01*
X141094646Y-122185500D01*
X141102286Y-122183876D01*
X141102287Y-122183876D01*
X141272164Y-122147768D01*
X141272167Y-122147767D01*
X141279803Y-122146144D01*
X141452730Y-122069151D01*
X141577739Y-121978327D01*
X141599551Y-121962480D01*
X141599553Y-121962479D01*
X141605871Y-121957888D01*
X141732533Y-121817216D01*
X141733597Y-121815374D01*
X141791753Y-121768280D01*
X141852356Y-121755399D01*
X142028012Y-121755399D01*
X142102512Y-121775361D01*
X142157050Y-121829899D01*
X142177012Y-121904399D01*
X142177012Y-121947671D01*
X142187876Y-122037446D01*
X142243399Y-122177682D01*
X142334590Y-122297821D01*
X142454729Y-122389012D01*
X142594965Y-122444535D01*
X142684740Y-122455399D01*
X143595284Y-122455399D01*
X143630982Y-122451079D01*
X143648883Y-122450000D01*
X145263976Y-122450000D01*
X145338476Y-122469962D01*
X145369243Y-122493549D01*
X145373396Y-122497695D01*
X145386890Y-122508352D01*
X145522617Y-122592014D01*
X145538205Y-122599283D01*
X145690030Y-122649642D01*
X145705845Y-122653032D01*
X145798361Y-122662511D01*
X145805956Y-122662899D01*
X145991396Y-122662899D01*
X146006867Y-122658754D01*
X146011012Y-122643283D01*
X146011012Y-122643282D01*
X146519012Y-122643282D01*
X146523157Y-122658753D01*
X146538628Y-122662898D01*
X146724015Y-122662898D01*
X146731716Y-122662499D01*
X146825465Y-122652772D01*
X146841305Y-122649352D01*
X146993036Y-122598731D01*
X147008605Y-122591438D01*
X147144181Y-122507540D01*
X147157668Y-122496851D01*
X147270307Y-122384016D01*
X147280964Y-122370522D01*
X147364627Y-122234794D01*
X147371896Y-122219206D01*
X147422255Y-122067381D01*
X147425645Y-122051566D01*
X147435124Y-121959050D01*
X147435512Y-121951455D01*
X147435512Y-121528515D01*
X147431367Y-121513044D01*
X147415896Y-121508899D01*
X146538628Y-121508899D01*
X146523157Y-121513044D01*
X146519012Y-121528515D01*
X146519012Y-122643282D01*
X146011012Y-122643282D01*
X146011012Y-121149899D01*
X146030974Y-121075399D01*
X146085512Y-121020861D01*
X146160012Y-121000899D01*
X147415895Y-121000899D01*
X147431366Y-120996754D01*
X147435511Y-120981283D01*
X147435511Y-120558396D01*
X147435112Y-120550695D01*
X147425385Y-120456946D01*
X147421965Y-120441106D01*
X147371344Y-120289375D01*
X147364051Y-120273806D01*
X147280153Y-120138230D01*
X147269464Y-120124743D01*
X147156634Y-120012109D01*
X147143710Y-120001903D01*
X147097615Y-119940065D01*
X147088614Y-119863463D01*
X147119059Y-119792767D01*
X147120837Y-119791417D01*
X147212028Y-119671278D01*
X147267551Y-119531042D01*
X147278415Y-119441267D01*
X147278415Y-118105723D01*
X147267551Y-118015948D01*
X147212028Y-117875712D01*
X147120837Y-117755573D01*
X147102226Y-117741446D01*
X147042776Y-117696321D01*
X147000698Y-117664382D01*
X146991254Y-117660643D01*
X146986310Y-117657857D01*
X146931204Y-117603893D01*
X146910455Y-117528046D01*
X146910455Y-116503384D01*
X151946069Y-116503384D01*
X151946504Y-116511415D01*
X151951808Y-116560247D01*
X151956095Y-116578277D01*
X152000169Y-116695844D01*
X152010264Y-116714283D01*
X152084796Y-116813731D01*
X152099661Y-116828596D01*
X152199109Y-116903128D01*
X152217548Y-116913223D01*
X152335112Y-116957296D01*
X152353147Y-116961585D01*
X152401980Y-116966890D01*
X152410006Y-116967324D01*
X153009452Y-116967324D01*
X153024923Y-116963179D01*
X153029068Y-116947708D01*
X153029068Y-116947707D01*
X153479068Y-116947707D01*
X153483213Y-116963178D01*
X153498684Y-116967323D01*
X154098128Y-116967323D01*
X154106159Y-116966888D01*
X154154991Y-116961584D01*
X154173021Y-116957297D01*
X154290588Y-116913223D01*
X154309027Y-116903128D01*
X154408475Y-116828596D01*
X154423340Y-116813731D01*
X154497872Y-116714283D01*
X154507967Y-116695844D01*
X154552040Y-116578280D01*
X154556329Y-116560245D01*
X154561634Y-116511412D01*
X154562068Y-116503386D01*
X154562068Y-116478940D01*
X154557923Y-116463469D01*
X154542452Y-116459324D01*
X153498684Y-116459324D01*
X153483213Y-116463469D01*
X153479068Y-116478940D01*
X153479068Y-116947707D01*
X153029068Y-116947707D01*
X153029068Y-116478940D01*
X153024923Y-116463469D01*
X153009452Y-116459324D01*
X151965685Y-116459324D01*
X151950214Y-116463469D01*
X151946069Y-116478940D01*
X151946069Y-116503384D01*
X146910455Y-116503384D01*
X146910455Y-115132055D01*
X146930417Y-115057555D01*
X146971875Y-115011511D01*
X147101677Y-114917205D01*
X147101679Y-114917204D01*
X147107997Y-114912613D01*
X147163723Y-114850723D01*
X147229433Y-114777746D01*
X147229437Y-114777741D01*
X147234659Y-114771941D01*
X147240860Y-114761202D01*
X147296587Y-114664678D01*
X147329305Y-114608009D01*
X147378415Y-114456864D01*
X147385385Y-114435414D01*
X147385385Y-114435413D01*
X147387800Y-114427981D01*
X147396743Y-114342897D01*
X147406770Y-114247489D01*
X147407586Y-114239725D01*
X147387800Y-114051469D01*
X147367502Y-113988997D01*
X147357877Y-113959375D01*
X147329305Y-113871441D01*
X147234659Y-113707509D01*
X147229437Y-113701709D01*
X147229433Y-113701704D01*
X147154876Y-113618901D01*
X147107997Y-113566837D01*
X146954856Y-113455574D01*
X146781929Y-113378581D01*
X146774293Y-113376958D01*
X146774290Y-113376957D01*
X146604413Y-113340849D01*
X146604412Y-113340849D01*
X146596772Y-113339225D01*
X146407480Y-113339225D01*
X146399840Y-113340849D01*
X146399839Y-113340849D01*
X146229962Y-113376957D01*
X146229959Y-113376958D01*
X146222323Y-113378581D01*
X146049396Y-113455574D01*
X145896255Y-113566837D01*
X145849376Y-113618901D01*
X145774819Y-113701704D01*
X145774815Y-113701709D01*
X145769593Y-113707509D01*
X145712440Y-113806502D01*
X145679677Y-113863249D01*
X145625139Y-113917787D01*
X145550639Y-113937749D01*
X145122978Y-113937749D01*
X145048478Y-113917787D01*
X144993940Y-113863249D01*
X144973978Y-113788749D01*
X144993940Y-113714249D01*
X145017619Y-113683390D01*
X145027198Y-113673811D01*
X145035296Y-113666293D01*
X145063706Y-113641813D01*
X145071749Y-113634883D01*
X145077523Y-113625975D01*
X145084502Y-113617975D01*
X145084783Y-113618220D01*
X145093228Y-113607781D01*
X145600124Y-113100885D01*
X145608912Y-113092776D01*
X145615522Y-113087150D01*
X145624498Y-113081487D01*
X145659064Y-113042348D01*
X145665372Y-113035637D01*
X145676099Y-113024910D01*
X145681682Y-113017461D01*
X145689221Y-113008202D01*
X145700385Y-112995561D01*
X145719401Y-112974029D01*
X145723913Y-112964419D01*
X145729266Y-112956271D01*
X145733939Y-112947735D01*
X145740305Y-112939241D01*
X145744031Y-112929302D01*
X145744033Y-112929298D01*
X145756315Y-112896536D01*
X145760958Y-112885516D01*
X145780331Y-112844254D01*
X145781965Y-112833761D01*
X145784813Y-112824445D01*
X145786903Y-112814938D01*
X145790630Y-112804997D01*
X145794010Y-112759523D01*
X145795373Y-112747647D01*
X145796393Y-112741096D01*
X145796393Y-112741090D01*
X145797278Y-112735408D01*
X145797278Y-112721055D01*
X145797688Y-112710013D01*
X145798423Y-112700124D01*
X145801254Y-112662025D01*
X145799038Y-112651643D01*
X145798316Y-112641053D01*
X145798688Y-112641028D01*
X145797278Y-112627674D01*
X145797278Y-110101992D01*
X145817240Y-110027492D01*
X145871778Y-109972954D01*
X145946278Y-109952992D01*
X146020778Y-109972954D01*
X146051637Y-109996633D01*
X148278361Y-112223357D01*
X148286470Y-112232145D01*
X148292096Y-112238755D01*
X148297759Y-112247731D01*
X148336898Y-112282297D01*
X148343609Y-112288605D01*
X148354335Y-112299331D01*
X148361779Y-112304910D01*
X148371022Y-112312435D01*
X148405217Y-112342634D01*
X148414825Y-112347145D01*
X148422971Y-112352496D01*
X148431512Y-112357172D01*
X148440005Y-112363537D01*
X148449944Y-112367263D01*
X148449946Y-112367264D01*
X148482704Y-112379545D01*
X148493724Y-112384189D01*
X148525377Y-112399050D01*
X148525379Y-112399051D01*
X148534992Y-112403564D01*
X148545488Y-112405198D01*
X148554803Y-112408046D01*
X148564304Y-112410135D01*
X148574248Y-112413863D01*
X148584835Y-112414650D01*
X148584836Y-112414650D01*
X148619717Y-112417242D01*
X148631595Y-112418605D01*
X148638157Y-112419627D01*
X148638162Y-112419627D01*
X148643838Y-112420511D01*
X148658191Y-112420511D01*
X148669230Y-112420921D01*
X148717221Y-112424487D01*
X148727603Y-112422271D01*
X148738193Y-112421549D01*
X148738218Y-112421921D01*
X148751572Y-112420511D01*
X151408480Y-112420511D01*
X151420429Y-112420991D01*
X151429083Y-112421687D01*
X151439436Y-112424030D01*
X151450028Y-112423373D01*
X151450031Y-112423373D01*
X151491543Y-112420797D01*
X151500770Y-112420511D01*
X151515929Y-112420511D01*
X151525123Y-112419194D01*
X151537014Y-112417976D01*
X151582527Y-112415152D01*
X151592512Y-112411547D01*
X151602055Y-112409571D01*
X151611399Y-112406839D01*
X151621907Y-112405334D01*
X151631570Y-112400941D01*
X151631572Y-112400940D01*
X151663416Y-112386461D01*
X151674478Y-112381957D01*
X151717376Y-112366471D01*
X151725951Y-112360207D01*
X151734547Y-112355636D01*
X151742748Y-112350391D01*
X151752417Y-112345995D01*
X151760460Y-112339064D01*
X151760464Y-112339062D01*
X151786965Y-112316227D01*
X151796335Y-112308787D01*
X151796740Y-112308491D01*
X151806325Y-112301489D01*
X151816475Y-112291339D01*
X151824573Y-112283821D01*
X151852983Y-112259342D01*
X151852985Y-112259339D01*
X151861026Y-112252411D01*
X151866800Y-112243503D01*
X151873454Y-112235875D01*
X151937472Y-112192857D01*
X151985735Y-112184824D01*
X152004568Y-112184824D01*
X152079068Y-112204786D01*
X152133606Y-112259324D01*
X152153568Y-112333824D01*
X152153568Y-112603970D01*
X152155599Y-112621036D01*
X152155599Y-112621037D01*
X152156686Y-112630170D01*
X152155609Y-112630298D01*
X152155669Y-112688893D01*
X152156562Y-112688997D01*
X152155265Y-112700124D01*
X152154112Y-112710013D01*
X152153568Y-112714678D01*
X152153568Y-113253970D01*
X152155599Y-113271036D01*
X152155599Y-113271037D01*
X152156686Y-113280170D01*
X152155609Y-113280298D01*
X152155669Y-113338893D01*
X152156562Y-113338997D01*
X152153568Y-113364678D01*
X152153568Y-113903970D01*
X152155599Y-113921036D01*
X152155599Y-113921037D01*
X152156686Y-113930170D01*
X152155609Y-113930298D01*
X152155669Y-113988893D01*
X152156562Y-113988997D01*
X152153568Y-114014678D01*
X152153568Y-114553970D01*
X152155599Y-114571036D01*
X152155599Y-114571037D01*
X152156686Y-114580170D01*
X152155609Y-114580298D01*
X152155669Y-114638893D01*
X152156562Y-114638997D01*
X152155265Y-114650124D01*
X152154201Y-114659251D01*
X152153568Y-114664678D01*
X152153568Y-115203970D01*
X152155599Y-115221036D01*
X152155599Y-115221037D01*
X152156686Y-115230170D01*
X152155609Y-115230298D01*
X152155669Y-115288893D01*
X152156562Y-115288997D01*
X152155265Y-115300124D01*
X152154286Y-115308523D01*
X152153568Y-115314678D01*
X152153568Y-115525119D01*
X152133606Y-115599619D01*
X152105698Y-115631081D01*
X152107165Y-115632548D01*
X152084796Y-115654917D01*
X152010264Y-115754365D01*
X152000169Y-115772804D01*
X151956096Y-115890368D01*
X151951807Y-115908403D01*
X151946502Y-115957236D01*
X151946068Y-115965262D01*
X151946068Y-115989708D01*
X151950213Y-116005179D01*
X151965684Y-116009324D01*
X152167381Y-116009324D01*
X152241881Y-116029286D01*
X152268712Y-116049855D01*
X152271618Y-116051845D01*
X152281355Y-116061565D01*
X152293935Y-116067127D01*
X152293937Y-116067128D01*
X152373494Y-116102300D01*
X152383741Y-116106830D01*
X152398386Y-116108537D01*
X152405138Y-116109325D01*
X152405146Y-116109325D01*
X152409422Y-116109824D01*
X154098714Y-116109824D01*
X154124914Y-116106706D01*
X154201869Y-116072524D01*
X154214648Y-116066848D01*
X154214649Y-116066847D01*
X154227221Y-116061263D01*
X154236939Y-116051528D01*
X154248278Y-116043735D01*
X154249202Y-116045079D01*
X154302177Y-116014434D01*
X154340864Y-116009324D01*
X154542451Y-116009324D01*
X154557922Y-116005179D01*
X154562067Y-115989708D01*
X154562067Y-115965264D01*
X154561632Y-115957233D01*
X154556328Y-115908401D01*
X154552041Y-115890371D01*
X154507967Y-115772804D01*
X154497872Y-115754365D01*
X154423340Y-115654917D01*
X154400971Y-115632548D01*
X154403193Y-115630326D01*
X154366566Y-115583697D01*
X154354568Y-115525119D01*
X154354568Y-115314678D01*
X154353797Y-115308203D01*
X154352771Y-115299577D01*
X154352771Y-115299576D01*
X154351450Y-115288478D01*
X154352527Y-115288350D01*
X154352467Y-115229755D01*
X154351574Y-115229651D01*
X154352459Y-115222059D01*
X154354568Y-115203970D01*
X154354568Y-114664678D01*
X154351450Y-114638478D01*
X154352527Y-114638350D01*
X154352467Y-114579755D01*
X154351574Y-114579651D01*
X154352459Y-114572059D01*
X154353341Y-114564497D01*
X154354069Y-114558254D01*
X154354069Y-114558246D01*
X154354568Y-114553970D01*
X154354568Y-114014678D01*
X154351450Y-113988478D01*
X154352527Y-113988350D01*
X154352467Y-113929755D01*
X154351574Y-113929651D01*
X154352459Y-113922059D01*
X154354568Y-113903970D01*
X154354568Y-113364678D01*
X154351450Y-113338478D01*
X154352527Y-113338350D01*
X154352467Y-113279755D01*
X154351574Y-113279651D01*
X154352459Y-113272059D01*
X154354568Y-113253970D01*
X154354568Y-112714678D01*
X154351450Y-112688478D01*
X154352527Y-112688350D01*
X154352467Y-112629755D01*
X154351574Y-112629651D01*
X154352459Y-112622059D01*
X154353400Y-112613988D01*
X154354069Y-112608254D01*
X154354069Y-112608246D01*
X154354568Y-112603970D01*
X154354568Y-112064678D01*
X154351450Y-112038478D01*
X154352527Y-112038350D01*
X154352467Y-111979755D01*
X154351574Y-111979651D01*
X154352459Y-111972059D01*
X154354568Y-111953970D01*
X154354568Y-111414678D01*
X154351450Y-111388478D01*
X154352527Y-111388350D01*
X154352467Y-111329755D01*
X154351574Y-111329651D01*
X154352459Y-111322059D01*
X154354568Y-111303970D01*
X154354568Y-110764678D01*
X154351450Y-110738478D01*
X154352527Y-110738350D01*
X154352467Y-110679755D01*
X154351574Y-110679651D01*
X154354568Y-110653970D01*
X154354568Y-110114678D01*
X154353797Y-110108203D01*
X154352771Y-110099577D01*
X154352771Y-110099576D01*
X154351450Y-110088478D01*
X154352527Y-110088350D01*
X154352467Y-110029755D01*
X154351574Y-110029651D01*
X154352459Y-110022059D01*
X154354568Y-110003970D01*
X154354568Y-109464678D01*
X154351450Y-109438478D01*
X154352527Y-109438350D01*
X154352467Y-109379755D01*
X154351574Y-109379651D01*
X154352459Y-109372059D01*
X154354568Y-109353970D01*
X154354568Y-108814678D01*
X154351450Y-108788478D01*
X154352527Y-108788350D01*
X154352467Y-108729755D01*
X154351574Y-108729651D01*
X154352459Y-108722059D01*
X154354568Y-108703970D01*
X154354568Y-108164678D01*
X154351450Y-108138478D01*
X154352527Y-108138350D01*
X154352467Y-108079755D01*
X154351574Y-108079651D01*
X154351768Y-108077983D01*
X154354568Y-108053970D01*
X154354568Y-107539708D01*
X158046068Y-107539708D01*
X158050213Y-107555179D01*
X158065684Y-107559324D01*
X159109452Y-107559324D01*
X159124923Y-107555179D01*
X159129068Y-107539708D01*
X159129068Y-107070941D01*
X159124923Y-107055470D01*
X159109452Y-107051325D01*
X158510008Y-107051325D01*
X158501977Y-107051760D01*
X158453145Y-107057064D01*
X158435115Y-107061351D01*
X158317548Y-107105425D01*
X158299109Y-107115520D01*
X158199661Y-107190052D01*
X158184796Y-107204917D01*
X158110264Y-107304365D01*
X158100169Y-107322804D01*
X158056096Y-107440368D01*
X158051807Y-107458403D01*
X158046502Y-107507236D01*
X158046068Y-107515262D01*
X158046068Y-107539708D01*
X154354568Y-107539708D01*
X154354568Y-107514678D01*
X154351450Y-107488478D01*
X154306007Y-107386171D01*
X154226781Y-107307083D01*
X154214201Y-107301521D01*
X154214199Y-107301520D01*
X154134642Y-107266348D01*
X154134641Y-107266348D01*
X154124395Y-107261818D01*
X154109750Y-107260111D01*
X154102998Y-107259323D01*
X154102990Y-107259323D01*
X154098714Y-107258824D01*
X153903568Y-107258824D01*
X153829068Y-107238862D01*
X153774530Y-107184324D01*
X153754568Y-107109824D01*
X153754568Y-106671296D01*
X153774530Y-106596796D01*
X153815988Y-106550752D01*
X153853619Y-106523412D01*
X153853621Y-106523411D01*
X153859939Y-106518820D01*
X153932691Y-106438021D01*
X153981375Y-106383953D01*
X153981379Y-106383948D01*
X153986601Y-106378148D01*
X153993388Y-106366394D01*
X154054319Y-106260857D01*
X154081247Y-106214216D01*
X154132789Y-106055588D01*
X154137327Y-106041621D01*
X154137327Y-106041620D01*
X154139742Y-106034188D01*
X154159528Y-105845932D01*
X154154858Y-105801500D01*
X154140559Y-105665446D01*
X154140558Y-105665443D01*
X154139742Y-105657676D01*
X154081247Y-105477648D01*
X154000702Y-105338139D01*
X153990506Y-105320479D01*
X153990504Y-105320476D01*
X153986601Y-105313716D01*
X153981379Y-105307916D01*
X153981375Y-105307911D01*
X153908622Y-105227112D01*
X153859939Y-105173044D01*
X153852375Y-105167548D01*
X153713114Y-105066370D01*
X153706798Y-105061781D01*
X153533871Y-104984788D01*
X153526235Y-104983165D01*
X153526232Y-104983164D01*
X153356355Y-104947056D01*
X153356354Y-104947056D01*
X153348714Y-104945432D01*
X153159422Y-104945432D01*
X153151782Y-104947056D01*
X153151781Y-104947056D01*
X152981904Y-104983164D01*
X152981901Y-104983165D01*
X152974265Y-104984788D01*
X152801338Y-105061781D01*
X152795022Y-105066370D01*
X152655762Y-105167548D01*
X152648197Y-105173044D01*
X152537365Y-105296135D01*
X152472682Y-105338139D01*
X152426639Y-105345432D01*
X152099500Y-105345432D01*
X152025000Y-105325470D01*
X151970462Y-105270932D01*
X151950500Y-105196432D01*
X151950500Y-105042854D01*
X151947382Y-105016654D01*
X151901939Y-104914347D01*
X151892204Y-104904629D01*
X151892202Y-104904626D01*
X151843733Y-104856241D01*
X151805111Y-104789480D01*
X151800000Y-104750791D01*
X151800000Y-103877061D01*
X151819962Y-103802561D01*
X151877448Y-103746366D01*
X151904956Y-103731306D01*
X152004407Y-103656772D01*
X152019272Y-103641907D01*
X152093804Y-103542459D01*
X152103899Y-103524020D01*
X152147972Y-103406456D01*
X152152261Y-103388421D01*
X152157566Y-103339588D01*
X152158000Y-103331562D01*
X152158000Y-102898616D01*
X152153855Y-102883145D01*
X152138384Y-102879000D01*
X149361617Y-102879000D01*
X149346146Y-102883145D01*
X149342001Y-102898616D01*
X149342001Y-103331560D01*
X149342436Y-103339591D01*
X149347740Y-103388423D01*
X149352027Y-103406454D01*
X149390518Y-103509128D01*
X149400000Y-103561431D01*
X149400000Y-103896123D01*
X149380038Y-103970623D01*
X149325500Y-104025161D01*
X149251000Y-104045123D01*
X149176500Y-104025161D01*
X149160915Y-104014806D01*
X149105877Y-103973030D01*
X149105873Y-103973028D01*
X149097783Y-103966887D01*
X148957547Y-103911364D01*
X148867772Y-103900500D01*
X147532228Y-103900500D01*
X147442453Y-103911364D01*
X147302217Y-103966887D01*
X147277261Y-103985830D01*
X147239586Y-104014427D01*
X147168175Y-104043569D01*
X147091761Y-104033102D01*
X147030817Y-103985830D01*
X147001675Y-103914419D01*
X147000500Y-103895744D01*
X147000500Y-102524607D01*
X147000980Y-102512658D01*
X147001676Y-102504004D01*
X147004019Y-102493651D01*
X147000786Y-102441543D01*
X147000500Y-102432317D01*
X147000500Y-102417158D01*
X146999183Y-102407964D01*
X146997964Y-102396066D01*
X146996716Y-102375938D01*
X146995141Y-102350560D01*
X146991536Y-102340575D01*
X146989560Y-102331032D01*
X146986828Y-102321688D01*
X146985323Y-102311180D01*
X146978889Y-102297028D01*
X146966450Y-102269671D01*
X146961946Y-102258609D01*
X146946460Y-102215711D01*
X146940196Y-102207136D01*
X146935625Y-102198540D01*
X146930380Y-102190339D01*
X146925984Y-102180670D01*
X146919053Y-102172627D01*
X146919051Y-102172623D01*
X146896216Y-102146122D01*
X146888776Y-102136752D01*
X146881478Y-102126762D01*
X146871328Y-102116612D01*
X146863810Y-102108514D01*
X146839330Y-102080104D01*
X146832400Y-102072061D01*
X146823492Y-102066287D01*
X146815492Y-102059308D01*
X146815737Y-102059027D01*
X146805298Y-102050582D01*
X146001353Y-101246637D01*
X146908057Y-101246637D01*
X146908492Y-101254668D01*
X146913796Y-101303500D01*
X146918083Y-101321530D01*
X146962157Y-101439097D01*
X146972252Y-101457536D01*
X147046784Y-101556984D01*
X147061649Y-101571849D01*
X147161097Y-101646381D01*
X147179536Y-101656476D01*
X147297100Y-101700549D01*
X147315135Y-101704838D01*
X147363968Y-101710143D01*
X147371994Y-101710577D01*
X147891740Y-101710577D01*
X147907211Y-101706432D01*
X147911356Y-101690961D01*
X147911356Y-101690960D01*
X148419356Y-101690960D01*
X148423501Y-101706431D01*
X148438972Y-101710576D01*
X148958716Y-101710576D01*
X148966747Y-101710141D01*
X149015579Y-101704837D01*
X149033607Y-101700551D01*
X149159609Y-101653314D01*
X149236376Y-101645854D01*
X149306587Y-101677777D01*
X149351431Y-101740528D01*
X149358891Y-101817295D01*
X149353366Y-101837918D01*
X149347739Y-101861579D01*
X149342434Y-101910412D01*
X149342000Y-101918438D01*
X149342000Y-102351384D01*
X149346145Y-102366855D01*
X149361616Y-102371000D01*
X150476384Y-102371000D01*
X150491855Y-102366855D01*
X150496000Y-102351384D01*
X151004000Y-102351384D01*
X151008145Y-102366855D01*
X151023616Y-102371000D01*
X152138383Y-102371000D01*
X152153854Y-102366855D01*
X152157999Y-102351384D01*
X152157999Y-101918440D01*
X152157564Y-101910409D01*
X152152260Y-101861577D01*
X152147973Y-101843547D01*
X152103899Y-101725980D01*
X152093804Y-101707541D01*
X152019272Y-101608093D01*
X152004407Y-101593228D01*
X151904959Y-101518696D01*
X151886520Y-101508601D01*
X151768956Y-101464528D01*
X151750921Y-101460239D01*
X151702088Y-101454934D01*
X151694062Y-101454500D01*
X151023616Y-101454500D01*
X151008145Y-101458645D01*
X151004000Y-101474116D01*
X151004000Y-102351384D01*
X150496000Y-102351384D01*
X150496000Y-101474117D01*
X150491855Y-101458646D01*
X150476384Y-101454501D01*
X149805940Y-101454501D01*
X149797909Y-101454936D01*
X149749077Y-101460240D01*
X149731049Y-101464526D01*
X149605047Y-101511763D01*
X149528280Y-101519223D01*
X149458069Y-101487300D01*
X149413225Y-101424549D01*
X149405765Y-101347782D01*
X149411290Y-101327159D01*
X149416917Y-101303498D01*
X149422222Y-101254665D01*
X149422656Y-101246639D01*
X149422656Y-99469593D01*
X149418511Y-99454122D01*
X149403040Y-99449977D01*
X148438972Y-99449977D01*
X148423501Y-99454122D01*
X148419356Y-99469593D01*
X148419356Y-101690960D01*
X147911356Y-101690960D01*
X147911356Y-99469593D01*
X147907211Y-99454122D01*
X147891740Y-99449977D01*
X146927673Y-99449977D01*
X146912202Y-99454122D01*
X146908057Y-99469593D01*
X146908057Y-101246637D01*
X146001353Y-101246637D01*
X143677077Y-98922361D01*
X146908056Y-98922361D01*
X146912201Y-98937832D01*
X146927672Y-98941977D01*
X147891740Y-98941977D01*
X147907211Y-98937832D01*
X147911356Y-98922361D01*
X148419356Y-98922361D01*
X148423501Y-98937832D01*
X148438972Y-98941977D01*
X149403039Y-98941977D01*
X149418510Y-98937832D01*
X149422655Y-98922361D01*
X149422655Y-97145317D01*
X149422220Y-97137286D01*
X149416916Y-97088454D01*
X149412629Y-97070424D01*
X149368555Y-96952857D01*
X149358460Y-96934418D01*
X149283928Y-96834970D01*
X149269063Y-96820105D01*
X149169615Y-96745573D01*
X149151176Y-96735478D01*
X149033612Y-96691405D01*
X149015577Y-96687116D01*
X148966744Y-96681811D01*
X148958718Y-96681377D01*
X148438972Y-96681377D01*
X148423501Y-96685522D01*
X148419356Y-96700993D01*
X148419356Y-98922361D01*
X147911356Y-98922361D01*
X147911356Y-96700994D01*
X147907211Y-96685523D01*
X147891740Y-96681378D01*
X147371996Y-96681378D01*
X147363965Y-96681813D01*
X147315133Y-96687117D01*
X147297103Y-96691404D01*
X147179536Y-96735478D01*
X147161097Y-96745573D01*
X147061649Y-96820105D01*
X147046784Y-96834970D01*
X146972252Y-96934418D01*
X146962157Y-96952857D01*
X146918084Y-97070421D01*
X146913795Y-97088456D01*
X146908490Y-97137289D01*
X146908056Y-97145315D01*
X146908056Y-98922361D01*
X143677077Y-98922361D01*
X140184141Y-95429425D01*
X140145577Y-95362630D01*
X140140500Y-95324066D01*
X140140500Y-95059364D01*
X140160462Y-94984864D01*
X140201920Y-94938820D01*
X140239551Y-94911480D01*
X140239553Y-94911479D01*
X140245871Y-94906888D01*
X140312160Y-94833267D01*
X140367307Y-94772021D01*
X140367311Y-94772016D01*
X140372533Y-94766216D01*
X140401412Y-94716197D01*
X140446801Y-94637580D01*
X140467179Y-94602284D01*
X140525674Y-94422256D01*
X140545460Y-94234000D01*
X140525674Y-94045744D01*
X140467179Y-93865716D01*
X140372533Y-93701784D01*
X140367311Y-93695984D01*
X140367307Y-93695979D01*
X140301597Y-93623002D01*
X140245871Y-93561112D01*
X140092730Y-93449849D01*
X139919803Y-93372856D01*
X139912167Y-93371233D01*
X139912164Y-93371232D01*
X139742287Y-93335124D01*
X139742286Y-93335124D01*
X139734646Y-93333500D01*
X139545354Y-93333500D01*
X139537714Y-93335124D01*
X139537713Y-93335124D01*
X139367836Y-93371232D01*
X139367833Y-93371233D01*
X139360197Y-93372856D01*
X139187270Y-93449849D01*
X139034129Y-93561112D01*
X138978403Y-93623002D01*
X138912693Y-93695979D01*
X138912689Y-93695984D01*
X138907467Y-93701784D01*
X138812821Y-93865716D01*
X138754326Y-94045744D01*
X138734540Y-94234000D01*
X138754326Y-94422256D01*
X138754500Y-94422791D01*
X138750616Y-94496892D01*
X138708609Y-94561577D01*
X138639887Y-94596592D01*
X138608909Y-94599848D01*
X138545854Y-94599848D01*
X138538214Y-94601472D01*
X138538213Y-94601472D01*
X138368336Y-94637580D01*
X138368333Y-94637581D01*
X138360697Y-94639204D01*
X138187770Y-94716197D01*
X138181454Y-94720786D01*
X138110935Y-94772021D01*
X138034629Y-94827460D01*
X137978903Y-94889350D01*
X137913193Y-94962327D01*
X137913189Y-94962332D01*
X137907967Y-94968132D01*
X137904064Y-94974892D01*
X137904062Y-94974895D01*
X137867865Y-95037592D01*
X137813321Y-95132064D01*
X137754826Y-95312092D01*
X137754010Y-95319859D01*
X137754009Y-95319862D01*
X137749514Y-95362630D01*
X137735040Y-95500348D01*
X137735856Y-95508112D01*
X137743929Y-95584926D01*
X137731863Y-95661105D01*
X137683324Y-95721044D01*
X137611319Y-95748684D01*
X137595745Y-95749500D01*
X137558564Y-95749500D01*
X137550924Y-95751124D01*
X137550923Y-95751124D01*
X137381046Y-95787232D01*
X137381043Y-95787233D01*
X137373407Y-95788856D01*
X137200480Y-95865849D01*
X137047339Y-95977112D01*
X136991613Y-96039002D01*
X136925903Y-96111979D01*
X136925899Y-96111984D01*
X136920677Y-96117784D01*
X136826031Y-96281716D01*
X136767536Y-96461744D01*
X136747750Y-96650000D01*
X136748566Y-96657764D01*
X136759829Y-96764926D01*
X136747763Y-96841104D01*
X136699225Y-96901044D01*
X136627219Y-96928684D01*
X136611645Y-96929500D01*
X136555354Y-96929500D01*
X136547714Y-96931124D01*
X136547713Y-96931124D01*
X136377836Y-96967232D01*
X136377833Y-96967233D01*
X136370197Y-96968856D01*
X136197270Y-97045849D01*
X136044129Y-97157112D01*
X135988403Y-97219002D01*
X135922693Y-97291979D01*
X135922689Y-97291984D01*
X135917467Y-97297784D01*
X135822821Y-97461716D01*
X135764326Y-97641744D01*
X135744540Y-97830000D01*
X132184921Y-97830000D01*
X139870780Y-90144141D01*
X139937575Y-90105577D01*
X139976139Y-90100500D01*
X146966556Y-90100500D01*
X147041056Y-90120462D01*
X147095594Y-90175000D01*
X147115556Y-90249500D01*
X147115556Y-92535023D01*
X147118674Y-92561223D01*
X147164117Y-92663530D01*
X147243343Y-92742618D01*
X147255923Y-92748180D01*
X147255925Y-92748181D01*
X147335482Y-92783353D01*
X147345729Y-92787883D01*
X147360374Y-92789590D01*
X147367126Y-92790378D01*
X147367134Y-92790378D01*
X147371410Y-92790877D01*
X148959302Y-92790877D01*
X148985502Y-92787759D01*
X149087809Y-92742316D01*
X149166897Y-92663090D01*
X149199740Y-92588803D01*
X149207632Y-92570951D01*
X149207632Y-92570950D01*
X149212162Y-92560704D01*
X149213869Y-92546059D01*
X149214657Y-92539307D01*
X149214657Y-92539299D01*
X149215156Y-92535023D01*
X149215156Y-90249500D01*
X149235118Y-90175000D01*
X149289656Y-90120462D01*
X149364156Y-90100500D01*
X154193678Y-90100500D01*
X154268178Y-90120462D01*
X154299037Y-90144141D01*
X165233990Y-101079093D01*
X165272554Y-101145888D01*
X165277631Y-101184452D01*
X165277631Y-107794330D01*
X165257669Y-107868830D01*
X165233990Y-107899689D01*
X164961687Y-108171993D01*
X164925360Y-108198678D01*
X164750602Y-108290040D01*
X164744925Y-108294604D01*
X164744921Y-108294607D01*
X164630478Y-108386621D01*
X164559909Y-108417746D01*
X164537114Y-108419500D01*
X164149000Y-108419500D01*
X164074500Y-108399538D01*
X164019962Y-108345000D01*
X164000000Y-108270500D01*
X164000000Y-107115145D01*
X164022161Y-107036961D01*
X164097711Y-106914395D01*
X164104980Y-106898807D01*
X164155339Y-106746982D01*
X164158729Y-106731167D01*
X164168208Y-106638651D01*
X164168596Y-106631056D01*
X164168596Y-106445616D01*
X164164451Y-106430145D01*
X164148980Y-106426000D01*
X162655596Y-106426000D01*
X162581096Y-106406038D01*
X162526558Y-106351500D01*
X162506596Y-106277000D01*
X162506596Y-105898384D01*
X163014596Y-105898384D01*
X163018741Y-105913855D01*
X163034212Y-105918000D01*
X164148979Y-105918000D01*
X164164450Y-105913855D01*
X164168595Y-105898384D01*
X164168595Y-105712997D01*
X164168196Y-105705296D01*
X164158469Y-105611547D01*
X164155049Y-105595707D01*
X164104428Y-105443976D01*
X164097135Y-105428407D01*
X164013237Y-105292831D01*
X164002548Y-105279344D01*
X163889713Y-105166705D01*
X163876219Y-105156048D01*
X163740491Y-105072385D01*
X163724903Y-105065116D01*
X163573078Y-105014757D01*
X163557263Y-105011367D01*
X163464747Y-105001888D01*
X163457151Y-105001500D01*
X163034212Y-105001500D01*
X163018741Y-105005645D01*
X163014596Y-105021116D01*
X163014596Y-105898384D01*
X162506596Y-105898384D01*
X162506596Y-105021117D01*
X162502451Y-105005646D01*
X162486980Y-105001501D01*
X162064093Y-105001501D01*
X162056392Y-105001900D01*
X161962643Y-105011627D01*
X161946803Y-105015047D01*
X161795072Y-105065668D01*
X161779503Y-105072961D01*
X161643927Y-105156859D01*
X161630440Y-105167548D01*
X161517806Y-105280378D01*
X161503932Y-105297946D01*
X161442092Y-105344040D01*
X161365491Y-105353038D01*
X161294653Y-105322531D01*
X161276272Y-105305300D01*
X161245327Y-105270932D01*
X161205871Y-105227112D01*
X161163644Y-105196432D01*
X161059046Y-105120438D01*
X161052730Y-105115849D01*
X160879803Y-105038856D01*
X160872167Y-105037233D01*
X160872164Y-105037232D01*
X160702287Y-105001124D01*
X160702286Y-105001124D01*
X160694646Y-104999500D01*
X160505354Y-104999500D01*
X160497714Y-105001124D01*
X160497713Y-105001124D01*
X160327836Y-105037232D01*
X160327833Y-105037233D01*
X160320197Y-105038856D01*
X160147270Y-105115849D01*
X160140954Y-105120438D01*
X160036357Y-105196432D01*
X159994129Y-105227112D01*
X159954673Y-105270932D01*
X159872693Y-105361979D01*
X159872689Y-105361984D01*
X159867467Y-105367784D01*
X159772821Y-105531716D01*
X159714326Y-105711744D01*
X159713510Y-105719511D01*
X159713509Y-105719514D01*
X159698564Y-105861715D01*
X159694540Y-105900000D01*
X159695356Y-105907764D01*
X159712762Y-106073373D01*
X159714326Y-106088256D01*
X159716741Y-106095688D01*
X159716741Y-106095689D01*
X159738665Y-106163164D01*
X159772821Y-106268284D01*
X159793781Y-106304588D01*
X159852615Y-106406491D01*
X159867467Y-106432216D01*
X159872689Y-106438016D01*
X159872693Y-106438021D01*
X159922264Y-106493074D01*
X159994129Y-106572888D01*
X160000447Y-106577479D01*
X160000449Y-106577480D01*
X160038080Y-106604820D01*
X160086618Y-106664760D01*
X160099500Y-106725364D01*
X160099500Y-106902324D01*
X160079538Y-106976824D01*
X160025000Y-107031362D01*
X159950500Y-107051324D01*
X159598684Y-107051324D01*
X159583213Y-107055469D01*
X159579068Y-107070940D01*
X159579068Y-107759824D01*
X159559106Y-107834324D01*
X159504568Y-107888862D01*
X159430068Y-107908824D01*
X158509422Y-107908824D01*
X158483222Y-107911942D01*
X158471986Y-107916933D01*
X158393488Y-107951800D01*
X158393487Y-107951801D01*
X158380915Y-107957385D01*
X158371197Y-107967120D01*
X158359858Y-107974913D01*
X158358934Y-107973569D01*
X158305959Y-108004214D01*
X158267272Y-108009324D01*
X158065685Y-108009324D01*
X158050214Y-108013469D01*
X158046069Y-108028940D01*
X158046069Y-108053384D01*
X158046504Y-108061415D01*
X158051808Y-108110247D01*
X158056095Y-108128277D01*
X158100169Y-108245844D01*
X158110264Y-108264283D01*
X158184796Y-108363731D01*
X158207165Y-108386100D01*
X158204943Y-108388322D01*
X158241570Y-108434951D01*
X158253568Y-108493529D01*
X158253568Y-108703970D01*
X158255599Y-108721036D01*
X158255599Y-108721037D01*
X158256686Y-108730170D01*
X158255609Y-108730298D01*
X158255669Y-108788893D01*
X158256562Y-108788997D01*
X158253568Y-108814678D01*
X158253568Y-109353970D01*
X158254090Y-109358356D01*
X158254812Y-109364419D01*
X158255599Y-109371036D01*
X158255599Y-109371037D01*
X158256686Y-109380170D01*
X158255609Y-109380298D01*
X158255669Y-109438893D01*
X158256562Y-109438997D01*
X158255265Y-109450124D01*
X158254567Y-109456113D01*
X158253568Y-109464678D01*
X158253568Y-110003970D01*
X158255599Y-110021036D01*
X158255599Y-110021037D01*
X158256686Y-110030170D01*
X158255609Y-110030298D01*
X158255669Y-110088893D01*
X158256562Y-110088997D01*
X158253568Y-110114678D01*
X158253568Y-110653970D01*
X158256686Y-110680170D01*
X158302129Y-110782477D01*
X158381355Y-110861565D01*
X158393937Y-110867127D01*
X158393939Y-110867129D01*
X158463802Y-110898015D01*
X158523869Y-110946396D01*
X158551697Y-111018329D01*
X158539831Y-111094538D01*
X158491450Y-111154605D01*
X158464040Y-111170462D01*
X158431297Y-111185006D01*
X158380915Y-111207385D01*
X158301827Y-111286611D01*
X158296265Y-111299191D01*
X158296264Y-111299193D01*
X158278754Y-111338800D01*
X158256562Y-111388997D01*
X158253568Y-111414678D01*
X158253568Y-111953970D01*
X158255599Y-111971036D01*
X158255599Y-111971037D01*
X158256686Y-111980170D01*
X158255609Y-111980298D01*
X158255669Y-112038893D01*
X158256562Y-112038997D01*
X158255265Y-112050124D01*
X158254606Y-112055778D01*
X158253568Y-112064678D01*
X158253568Y-112603970D01*
X158256686Y-112630170D01*
X158302129Y-112732477D01*
X158381355Y-112811565D01*
X158393937Y-112817127D01*
X158393939Y-112817129D01*
X158463802Y-112848015D01*
X158523869Y-112896396D01*
X158551697Y-112968329D01*
X158539831Y-113044538D01*
X158491450Y-113104605D01*
X158464040Y-113120462D01*
X158431781Y-113134791D01*
X158380915Y-113157385D01*
X158301827Y-113236611D01*
X158296265Y-113249191D01*
X158296264Y-113249193D01*
X158270219Y-113308105D01*
X158256562Y-113338997D01*
X158253568Y-113364678D01*
X158253568Y-113903970D01*
X158255599Y-113921036D01*
X158255599Y-113921037D01*
X158256686Y-113930170D01*
X158255609Y-113930298D01*
X158255669Y-113988893D01*
X158256562Y-113988997D01*
X158253568Y-114014678D01*
X158253568Y-114553970D01*
X158255599Y-114571036D01*
X158255599Y-114571037D01*
X158256686Y-114580170D01*
X158255609Y-114580298D01*
X158255669Y-114638893D01*
X158256562Y-114638997D01*
X158255265Y-114650124D01*
X158254201Y-114659251D01*
X158253568Y-114664678D01*
X158253568Y-115203970D01*
X158255599Y-115221036D01*
X158255599Y-115221037D01*
X158256686Y-115230170D01*
X158255609Y-115230298D01*
X158255669Y-115288893D01*
X158256562Y-115288997D01*
X158255265Y-115300124D01*
X158254286Y-115308523D01*
X158253568Y-115314678D01*
X158253568Y-115853970D01*
X158255599Y-115871036D01*
X158255599Y-115871037D01*
X158256686Y-115880170D01*
X158255609Y-115880298D01*
X158255669Y-115938893D01*
X158256562Y-115938997D01*
X158255265Y-115950124D01*
X158254436Y-115957236D01*
X158253568Y-115964678D01*
X158253568Y-116503970D01*
X158256686Y-116530170D01*
X158302129Y-116632477D01*
X158381355Y-116711565D01*
X158393935Y-116717127D01*
X158393937Y-116717128D01*
X158473494Y-116752300D01*
X158483741Y-116756830D01*
X158498386Y-116758537D01*
X158505138Y-116759325D01*
X158505146Y-116759325D01*
X158509422Y-116759824D01*
X158704568Y-116759824D01*
X158779068Y-116779786D01*
X158833606Y-116834324D01*
X158853568Y-116908824D01*
X158853568Y-117225500D01*
X158833606Y-117300000D01*
X158779068Y-117354538D01*
X158704568Y-117374500D01*
X158407228Y-117374500D01*
X158317453Y-117385364D01*
X158177217Y-117440887D01*
X158057078Y-117532078D01*
X157965887Y-117652217D01*
X157910364Y-117792453D01*
X157899500Y-117882228D01*
X157899500Y-118792772D01*
X157899833Y-118795525D01*
X157900000Y-118801066D01*
X157900000Y-120998938D01*
X157899833Y-121004474D01*
X157899500Y-121007228D01*
X157899500Y-121917772D01*
X157910364Y-122007547D01*
X157965887Y-122147783D01*
X158057078Y-122267922D01*
X158177217Y-122359113D01*
X158317453Y-122414636D01*
X158407228Y-122425500D01*
X159792772Y-122425500D01*
X159882547Y-122414636D01*
X160022783Y-122359113D01*
X160142922Y-122267922D01*
X160234113Y-122147783D01*
X160289636Y-122007547D01*
X160289862Y-122005681D01*
X160325693Y-121941703D01*
X160391979Y-121902269D01*
X160423192Y-121896962D01*
X160432105Y-121896409D01*
X160452538Y-121895141D01*
X160462524Y-121891536D01*
X160472066Y-121889560D01*
X160481410Y-121886828D01*
X160491918Y-121885323D01*
X160501581Y-121880930D01*
X160501583Y-121880929D01*
X160533427Y-121866450D01*
X160544489Y-121861946D01*
X160587387Y-121846460D01*
X160595962Y-121840196D01*
X160604558Y-121835625D01*
X160612759Y-121830380D01*
X160622428Y-121825984D01*
X160630471Y-121819053D01*
X160630475Y-121819051D01*
X160656976Y-121796216D01*
X160666346Y-121788776D01*
X160676336Y-121781478D01*
X160686486Y-121771328D01*
X160694584Y-121763810D01*
X160722994Y-121739330D01*
X160731037Y-121732400D01*
X160736811Y-121723492D01*
X160743790Y-121715492D01*
X160744071Y-121715737D01*
X160752516Y-121705298D01*
X161087229Y-121370585D01*
X161154024Y-121332021D01*
X161231152Y-121332021D01*
X161297947Y-121370585D01*
X161627368Y-121700006D01*
X161635477Y-121708794D01*
X161641285Y-121715618D01*
X161646949Y-121724595D01*
X161663633Y-121739330D01*
X161686350Y-121759393D01*
X161693076Y-121765714D01*
X161703888Y-121776526D01*
X161708138Y-121779711D01*
X161711392Y-121782150D01*
X161720651Y-121789687D01*
X161755094Y-121820106D01*
X161764701Y-121824617D01*
X161772942Y-121830030D01*
X161781610Y-121834776D01*
X161790057Y-121841106D01*
X161790058Y-121841107D01*
X161790104Y-121841141D01*
X161790100Y-121841146D01*
X161841641Y-121890399D01*
X161862249Y-121949908D01*
X161865688Y-121978327D01*
X161921211Y-122118563D01*
X162012402Y-122238702D01*
X162132541Y-122329893D01*
X162272777Y-122385416D01*
X162362552Y-122396280D01*
X163612176Y-122396280D01*
X163686676Y-122416242D01*
X163741214Y-122470780D01*
X163748165Y-122486504D01*
X163748800Y-122500000D01*
X164751200Y-122500000D01*
X164750198Y-122478631D01*
X164750199Y-122478628D01*
X164750097Y-122476461D01*
X164766550Y-122401108D01*
X164818475Y-122344077D01*
X164891959Y-122320649D01*
X164920031Y-122323491D01*
X164920162Y-122322410D01*
X165009937Y-122333274D01*
X166395481Y-122333274D01*
X166485256Y-122322410D01*
X166625492Y-122266887D01*
X166716995Y-122197432D01*
X166737542Y-122181836D01*
X166745631Y-122175696D01*
X166836822Y-122055557D01*
X166892345Y-121915321D01*
X166903209Y-121825546D01*
X166903209Y-120915002D01*
X166901079Y-120897400D01*
X166900000Y-120879500D01*
X166900000Y-118736048D01*
X166901079Y-118718148D01*
X166902670Y-118704999D01*
X166903209Y-118700546D01*
X166903209Y-117790002D01*
X166892345Y-117700227D01*
X166863135Y-117626450D01*
X166854270Y-117549835D01*
X166884902Y-117479050D01*
X166923265Y-117444899D01*
X166981949Y-117408584D01*
X166995433Y-117397897D01*
X167108072Y-117285062D01*
X167118729Y-117271568D01*
X167202392Y-117135840D01*
X167209661Y-117120252D01*
X167260020Y-116968427D01*
X167263410Y-116952612D01*
X167272889Y-116860096D01*
X167273277Y-116852501D01*
X167273277Y-116429561D01*
X167269132Y-116414090D01*
X167253661Y-116409945D01*
X165997777Y-116409945D01*
X165923277Y-116389983D01*
X165868739Y-116335445D01*
X165848777Y-116260945D01*
X165848777Y-115882329D01*
X166356777Y-115882329D01*
X166360922Y-115897800D01*
X166376393Y-115901945D01*
X167253660Y-115901945D01*
X167269131Y-115897800D01*
X167273276Y-115882329D01*
X167273276Y-115459442D01*
X167272877Y-115451741D01*
X167263150Y-115357992D01*
X167259730Y-115342152D01*
X167209109Y-115190421D01*
X167201816Y-115174852D01*
X167117918Y-115039276D01*
X167107229Y-115025789D01*
X166994394Y-114913150D01*
X166980900Y-114902493D01*
X166845172Y-114818830D01*
X166829584Y-114811561D01*
X166677759Y-114761202D01*
X166661944Y-114757812D01*
X166569428Y-114748333D01*
X166561832Y-114747945D01*
X166376393Y-114747945D01*
X166360922Y-114752090D01*
X166356777Y-114767561D01*
X166356777Y-115882329D01*
X165848777Y-115882329D01*
X165848777Y-114767562D01*
X165835206Y-114716914D01*
X165830302Y-114708420D01*
X165830302Y-114631292D01*
X165868866Y-114564497D01*
X165882484Y-114552449D01*
X166007951Y-114454424D01*
X166142564Y-114298472D01*
X166150709Y-114284134D01*
X166240724Y-114125680D01*
X166240725Y-114125677D01*
X166244323Y-114119344D01*
X166309351Y-113923863D01*
X166316828Y-113864680D01*
X166326173Y-113790698D01*
X166335171Y-113719474D01*
X166335499Y-113696010D01*
X166335545Y-113695624D01*
X166335509Y-113695283D01*
X166335583Y-113690000D01*
X166315480Y-113484970D01*
X166271251Y-113338478D01*
X166258041Y-113294724D01*
X166258041Y-113294723D01*
X166255935Y-113287749D01*
X166219620Y-113219450D01*
X166202271Y-113144299D01*
X166224821Y-113070541D01*
X166281230Y-113017940D01*
X166351180Y-113000500D01*
X167455988Y-113000500D01*
X167502031Y-113007793D01*
X167573329Y-113030959D01*
X167628907Y-113037586D01*
X167770662Y-113054489D01*
X167770665Y-113054489D01*
X167777894Y-113055351D01*
X167946690Y-113042363D01*
X167976036Y-113040105D01*
X167976037Y-113040105D01*
X167983300Y-113039546D01*
X168059456Y-113018283D01*
X168174707Y-112986105D01*
X168174712Y-112986103D01*
X168181725Y-112984145D01*
X168188226Y-112980861D01*
X168188229Y-112980860D01*
X168359105Y-112894544D01*
X168359106Y-112894544D01*
X168365610Y-112891258D01*
X168476020Y-112804997D01*
X168522208Y-112768911D01*
X168522209Y-112768910D01*
X168527951Y-112764424D01*
X168607201Y-112672611D01*
X168657803Y-112613988D01*
X168657804Y-112613986D01*
X168662564Y-112608472D01*
X168747730Y-112458553D01*
X168760724Y-112435680D01*
X168760725Y-112435677D01*
X168764323Y-112429344D01*
X168829351Y-112233863D01*
X168855171Y-112029474D01*
X168855452Y-112009375D01*
X168855525Y-112004175D01*
X168855525Y-112004169D01*
X168855583Y-112000000D01*
X168835480Y-111794970D01*
X168775935Y-111597749D01*
X168679218Y-111415849D01*
X168666064Y-111399720D01*
X168553612Y-111261841D01*
X168553610Y-111261839D01*
X168549011Y-111256200D01*
X168543401Y-111251559D01*
X168543398Y-111251556D01*
X168395890Y-111129527D01*
X168395889Y-111129526D01*
X168390275Y-111124882D01*
X168383871Y-111121420D01*
X168383869Y-111121418D01*
X168215468Y-111030364D01*
X168215464Y-111030362D01*
X168209055Y-111026897D01*
X168012254Y-110965977D01*
X168005008Y-110965215D01*
X168005006Y-110965215D01*
X167814610Y-110945204D01*
X167814609Y-110945204D01*
X167807369Y-110944443D01*
X167602203Y-110963114D01*
X167522123Y-110986683D01*
X167499171Y-110993438D01*
X167457102Y-110999500D01*
X164605558Y-110999500D01*
X164531058Y-110979538D01*
X164500199Y-110955859D01*
X164168641Y-110624301D01*
X163827786Y-110283447D01*
X163789222Y-110216652D01*
X163789222Y-110139524D01*
X163814462Y-110088004D01*
X163820985Y-110079411D01*
X163881928Y-110032141D01*
X163939664Y-110020500D01*
X164652509Y-110020500D01*
X164726101Y-110040219D01*
X164726164Y-110040105D01*
X164905998Y-110140611D01*
X165101929Y-110204273D01*
X165150495Y-110210064D01*
X165178428Y-110213395D01*
X165187866Y-110215059D01*
X165191728Y-110215561D01*
X165199076Y-110217284D01*
X165206618Y-110217495D01*
X165206619Y-110217495D01*
X165207702Y-110217525D01*
X165207950Y-110217532D01*
X165221427Y-110218522D01*
X165299262Y-110227803D01*
X165299265Y-110227803D01*
X165306494Y-110228665D01*
X165378611Y-110223116D01*
X165394200Y-110222735D01*
X165402253Y-110222960D01*
X165411813Y-110221274D01*
X165426250Y-110219450D01*
X165483321Y-110215059D01*
X165504636Y-110213419D01*
X165504637Y-110213419D01*
X165511900Y-110212860D01*
X165601665Y-110187797D01*
X165602421Y-110187664D01*
X165603088Y-110187400D01*
X165616765Y-110183581D01*
X165703307Y-110159419D01*
X165703312Y-110159417D01*
X165710325Y-110157459D01*
X165716826Y-110154175D01*
X165716829Y-110154174D01*
X165887705Y-110067858D01*
X165887706Y-110067858D01*
X165894210Y-110064572D01*
X166056551Y-109937738D01*
X166191164Y-109781786D01*
X166194763Y-109775450D01*
X166198964Y-109769495D01*
X166199438Y-109769829D01*
X166217810Y-109745711D01*
X166973941Y-108989580D01*
X166976924Y-108986679D01*
X167033928Y-108932773D01*
X167039411Y-108927588D01*
X167073527Y-108878866D01*
X167080113Y-108870158D01*
X167112935Y-108829914D01*
X167112936Y-108829912D01*
X167117705Y-108824065D01*
X167121199Y-108817381D01*
X167121202Y-108817377D01*
X167130354Y-108799871D01*
X167140341Y-108783445D01*
X167140604Y-108783069D01*
X167155994Y-108761090D01*
X167160873Y-108749816D01*
X167179613Y-108706509D01*
X167184315Y-108696651D01*
X167208375Y-108650630D01*
X167208377Y-108650626D01*
X167211873Y-108643938D01*
X167213954Y-108636681D01*
X167213956Y-108636676D01*
X167219399Y-108617695D01*
X167225880Y-108599595D01*
X167233719Y-108581478D01*
X167236717Y-108574550D01*
X167248876Y-108516347D01*
X167251499Y-108505747D01*
X167265816Y-108455819D01*
X167265817Y-108455813D01*
X167267898Y-108448556D01*
X167269992Y-108421339D01*
X167272702Y-108402300D01*
X167277111Y-108381197D01*
X167277112Y-108381189D01*
X167278282Y-108375589D01*
X167278631Y-108368930D01*
X167278631Y-108314787D01*
X167279070Y-108303356D01*
X167279965Y-108291728D01*
X167283491Y-108245898D01*
X167282546Y-108238418D01*
X167282546Y-108238413D01*
X167279806Y-108216727D01*
X167278631Y-108198053D01*
X167278631Y-100724781D01*
X167278689Y-100720621D01*
X167280879Y-100642209D01*
X167281090Y-100634661D01*
X167270763Y-100576092D01*
X167269262Y-100565276D01*
X167264013Y-100513604D01*
X167263251Y-100506098D01*
X167260994Y-100498895D01*
X167255087Y-100480044D01*
X167250533Y-100461363D01*
X167247105Y-100441924D01*
X167245795Y-100434492D01*
X167223904Y-100379201D01*
X167220259Y-100368909D01*
X167204725Y-100319341D01*
X167202469Y-100312142D01*
X167189231Y-100288259D01*
X167181019Y-100270886D01*
X167170971Y-100245509D01*
X167138405Y-100195742D01*
X167132766Y-100186395D01*
X167107586Y-100140969D01*
X167107586Y-100140968D01*
X167103928Y-100134370D01*
X167086172Y-100113653D01*
X167074623Y-100098272D01*
X167062814Y-100080226D01*
X167062812Y-100080223D01*
X167059676Y-100075431D01*
X167055214Y-100070476D01*
X167016926Y-100032188D01*
X167009153Y-100023794D01*
X166976566Y-99985774D01*
X166971654Y-99980043D01*
X166948424Y-99962024D01*
X166934388Y-99949650D01*
X155619791Y-88635054D01*
X155593590Y-88599645D01*
X155552454Y-88522278D01*
X155552451Y-88522273D01*
X155549035Y-88515849D01*
X155501721Y-88457836D01*
X155423429Y-88361841D01*
X155423427Y-88361839D01*
X155418828Y-88356200D01*
X155413218Y-88351559D01*
X155413215Y-88351556D01*
X155265707Y-88229527D01*
X155265706Y-88229526D01*
X155260092Y-88224882D01*
X155253688Y-88221420D01*
X155253686Y-88221418D01*
X155085285Y-88130364D01*
X155085281Y-88130362D01*
X155078872Y-88126897D01*
X154882071Y-88065977D01*
X154874825Y-88065215D01*
X154874823Y-88065215D01*
X154684427Y-88045204D01*
X154684426Y-88045204D01*
X154677186Y-88044443D01*
X154472020Y-88063114D01*
X154464882Y-88065215D01*
X154368988Y-88093438D01*
X154326919Y-88099500D01*
X148195682Y-88099500D01*
X148187884Y-88099296D01*
X148116230Y-88095541D01*
X148101126Y-88097825D01*
X148078848Y-88099500D01*
X146938667Y-88099500D01*
X146864167Y-88079538D01*
X146809629Y-88025000D01*
X146789667Y-87950500D01*
X146809629Y-87876000D01*
X146864167Y-87821462D01*
X146883937Y-87811915D01*
X147053017Y-87745142D01*
X147064285Y-87739548D01*
X147117099Y-87707500D01*
X155271429Y-87707500D01*
X158328572Y-87707500D01*
X158328572Y-86799754D01*
X164094967Y-86799754D01*
X164095414Y-86806572D01*
X164106042Y-86968725D01*
X164108796Y-87010749D01*
X164160845Y-87215690D01*
X164163703Y-87221890D01*
X164163705Y-87221895D01*
X164202435Y-87305907D01*
X164249369Y-87407714D01*
X164253305Y-87413284D01*
X164253306Y-87413285D01*
X164270244Y-87437251D01*
X164371405Y-87580391D01*
X164522865Y-87727937D01*
X164698677Y-87845411D01*
X164892953Y-87928878D01*
X165099186Y-87975544D01*
X165150544Y-87977562D01*
X165303641Y-87983578D01*
X165303645Y-87983578D01*
X165310470Y-87983846D01*
X165519730Y-87953504D01*
X165526187Y-87951312D01*
X165526192Y-87951311D01*
X165662083Y-87905182D01*
X165719955Y-87885537D01*
X165834369Y-87821462D01*
X165898481Y-87785558D01*
X165898486Y-87785554D01*
X165904442Y-87782219D01*
X166067012Y-87647012D01*
X166202219Y-87484442D01*
X166205554Y-87478486D01*
X166205558Y-87478481D01*
X166273413Y-87357316D01*
X166305537Y-87299955D01*
X166349847Y-87169422D01*
X166371311Y-87106192D01*
X166371312Y-87106187D01*
X166373504Y-87099730D01*
X166403846Y-86890470D01*
X166405429Y-86830000D01*
X166386081Y-86619440D01*
X166376879Y-86586810D01*
X166330542Y-86422512D01*
X166328686Y-86415931D01*
X166235165Y-86226290D01*
X166231084Y-86220825D01*
X166231081Y-86220820D01*
X166112739Y-86062341D01*
X166112737Y-86062339D01*
X166108651Y-86056867D01*
X165953381Y-85913337D01*
X165774554Y-85800505D01*
X165768215Y-85797976D01*
X165768209Y-85797973D01*
X165584504Y-85724683D01*
X165578160Y-85722152D01*
X165506512Y-85707900D01*
X165437339Y-85673789D01*
X165394489Y-85609659D01*
X165389444Y-85532696D01*
X165423556Y-85463522D01*
X165487686Y-85420672D01*
X165506356Y-85416189D01*
X165506329Y-85416079D01*
X165512977Y-85414483D01*
X165519730Y-85413504D01*
X165526187Y-85411312D01*
X165526192Y-85411311D01*
X165678432Y-85359632D01*
X165719955Y-85345537D01*
X165814713Y-85292470D01*
X165898481Y-85245558D01*
X165898486Y-85245554D01*
X165904442Y-85242219D01*
X166067012Y-85107012D01*
X166202219Y-84944442D01*
X166205554Y-84938486D01*
X166205558Y-84938481D01*
X166259943Y-84841368D01*
X166305537Y-84759955D01*
X166345788Y-84641380D01*
X166371311Y-84566192D01*
X166371312Y-84566187D01*
X166373504Y-84559730D01*
X166403846Y-84350470D01*
X166405429Y-84290000D01*
X166397074Y-84199068D01*
X166386706Y-84086242D01*
X166386081Y-84079440D01*
X166328686Y-83875931D01*
X166235165Y-83686290D01*
X166231084Y-83680825D01*
X166231081Y-83680820D01*
X166112739Y-83522341D01*
X166112737Y-83522339D01*
X166108651Y-83516867D01*
X165953381Y-83373337D01*
X165774554Y-83260505D01*
X165768215Y-83257976D01*
X165768209Y-83257973D01*
X165592550Y-83187893D01*
X165530751Y-83141745D01*
X165500305Y-83070881D01*
X165509370Y-82994287D01*
X165555518Y-82932488D01*
X165626382Y-82902042D01*
X165647763Y-82900500D01*
X166144646Y-82900500D01*
X166170846Y-82897382D01*
X166273153Y-82851939D01*
X166352241Y-82772713D01*
X166364431Y-82745142D01*
X166392976Y-82680574D01*
X166392976Y-82680573D01*
X166397506Y-82670327D01*
X166399795Y-82650695D01*
X166400001Y-82648930D01*
X166400001Y-82648922D01*
X166400500Y-82644646D01*
X166400500Y-80855354D01*
X166397382Y-80829154D01*
X166351939Y-80726847D01*
X166272713Y-80647759D01*
X166260133Y-80642197D01*
X166260131Y-80642196D01*
X166180574Y-80607024D01*
X166180573Y-80607024D01*
X166170327Y-80602494D01*
X166155682Y-80600787D01*
X166148930Y-80599999D01*
X166148922Y-80599999D01*
X166144646Y-80599500D01*
X164355354Y-80599500D01*
X164329154Y-80602618D01*
X164226847Y-80648061D01*
X164147759Y-80727287D01*
X164102494Y-80829673D01*
X164099500Y-80855354D01*
X164099500Y-82644646D01*
X164102618Y-82670846D01*
X164148061Y-82773153D01*
X164227287Y-82852241D01*
X164239867Y-82857803D01*
X164239869Y-82857804D01*
X164319426Y-82892976D01*
X164329673Y-82897506D01*
X164344318Y-82899213D01*
X164351070Y-82900001D01*
X164351078Y-82900001D01*
X164355354Y-82900500D01*
X164857776Y-82900500D01*
X164932276Y-82920462D01*
X164986814Y-82975000D01*
X165006776Y-83049500D01*
X164986814Y-83124000D01*
X164932276Y-83178538D01*
X164909348Y-83189290D01*
X164752575Y-83247127D01*
X164746702Y-83250621D01*
X164620124Y-83325927D01*
X164570856Y-83355238D01*
X164538641Y-83383489D01*
X164417022Y-83490146D01*
X164417019Y-83490149D01*
X164411881Y-83494655D01*
X164389032Y-83523639D01*
X164285207Y-83655340D01*
X164285203Y-83655346D01*
X164280976Y-83660708D01*
X164277797Y-83666751D01*
X164277794Y-83666755D01*
X164257029Y-83706224D01*
X164182523Y-83847836D01*
X164172390Y-83880470D01*
X164121844Y-84043253D01*
X164121843Y-84043258D01*
X164119820Y-84049773D01*
X164119018Y-84056550D01*
X164119017Y-84056554D01*
X164096709Y-84245038D01*
X164094967Y-84259754D01*
X164096949Y-84290000D01*
X164107490Y-84450817D01*
X164108796Y-84470749D01*
X164110478Y-84477371D01*
X164144152Y-84609960D01*
X164160845Y-84675690D01*
X164163703Y-84681890D01*
X164163705Y-84681895D01*
X164221606Y-84807492D01*
X164249369Y-84867714D01*
X164371405Y-85040391D01*
X164522865Y-85187937D01*
X164698677Y-85305411D01*
X164892953Y-85388878D01*
X165003903Y-85413984D01*
X165072159Y-85449895D01*
X165113316Y-85515124D01*
X165116344Y-85592193D01*
X165080432Y-85660450D01*
X165015203Y-85701607D01*
X164996252Y-85706157D01*
X164979668Y-85709007D01*
X164950953Y-85713941D01*
X164752575Y-85787127D01*
X164746702Y-85790621D01*
X164730089Y-85800505D01*
X164570856Y-85895238D01*
X164538641Y-85923489D01*
X164417022Y-86030146D01*
X164417019Y-86030149D01*
X164411881Y-86034655D01*
X164365390Y-86093629D01*
X164285207Y-86195340D01*
X164285203Y-86195346D01*
X164280976Y-86200708D01*
X164277797Y-86206751D01*
X164277794Y-86206755D01*
X164264295Y-86232413D01*
X164182523Y-86387836D01*
X164171756Y-86422512D01*
X164121844Y-86583253D01*
X164121843Y-86583258D01*
X164119820Y-86589773D01*
X164119018Y-86596550D01*
X164119017Y-86596554D01*
X164098115Y-86773157D01*
X164094967Y-86799754D01*
X158328572Y-86799754D01*
X158328572Y-83492500D01*
X155271429Y-83492500D01*
X155271429Y-87707500D01*
X147117099Y-87707500D01*
X147257771Y-87622138D01*
X147267932Y-87614729D01*
X147438870Y-87466396D01*
X147447637Y-87457381D01*
X147591140Y-87282367D01*
X147598264Y-87272002D01*
X147710227Y-87075310D01*
X147715504Y-87063890D01*
X147792721Y-86851161D01*
X147796002Y-86839002D01*
X147836524Y-86614914D01*
X147837628Y-86605189D01*
X147838495Y-86586810D01*
X147838577Y-86583305D01*
X147838577Y-86533072D01*
X150310077Y-86533072D01*
X150325123Y-86696813D01*
X150385012Y-86909166D01*
X150388034Y-86915295D01*
X150388036Y-86915299D01*
X150414383Y-86968725D01*
X150482597Y-87107049D01*
X150614610Y-87283835D01*
X150619627Y-87288473D01*
X150619630Y-87288476D01*
X150748621Y-87407714D01*
X150776628Y-87433603D01*
X150782406Y-87437248D01*
X150782409Y-87437251D01*
X150857203Y-87484442D01*
X150963227Y-87551338D01*
X151168156Y-87633096D01*
X151199356Y-87639302D01*
X151377850Y-87674807D01*
X151377853Y-87674807D01*
X151384553Y-87676140D01*
X151496313Y-87677603D01*
X151598337Y-87678939D01*
X151598342Y-87678939D01*
X151605171Y-87679028D01*
X151611904Y-87677871D01*
X151611905Y-87677871D01*
X151815892Y-87642820D01*
X151815891Y-87642820D01*
X151822620Y-87641664D01*
X151829019Y-87639303D01*
X151829024Y-87639302D01*
X151988708Y-87580391D01*
X152029620Y-87565298D01*
X152219236Y-87452488D01*
X152385120Y-87307012D01*
X152395777Y-87293494D01*
X152517485Y-87139107D01*
X152517487Y-87139104D01*
X152521714Y-87133742D01*
X152590010Y-87003934D01*
X152621266Y-86944527D01*
X152621268Y-86944523D01*
X152624446Y-86938482D01*
X152656770Y-86834383D01*
X152687850Y-86734289D01*
X152687851Y-86734284D01*
X152689874Y-86727769D01*
X152692107Y-86708910D01*
X152710562Y-86552979D01*
X152710562Y-86552975D01*
X152711077Y-86548626D01*
X152711077Y-84621132D01*
X152696031Y-84457391D01*
X152636142Y-84245038D01*
X152614909Y-84201980D01*
X152541579Y-84053283D01*
X152538557Y-84047155D01*
X152406544Y-83870369D01*
X152401527Y-83865731D01*
X152401524Y-83865728D01*
X152249547Y-83725242D01*
X152249545Y-83725240D01*
X152244526Y-83720601D01*
X152238748Y-83716956D01*
X152238745Y-83716953D01*
X152063704Y-83606511D01*
X152057927Y-83602866D01*
X151852998Y-83521108D01*
X151793118Y-83509197D01*
X151643304Y-83479397D01*
X151643301Y-83479397D01*
X151636601Y-83478064D01*
X151524841Y-83476601D01*
X151422817Y-83475265D01*
X151422812Y-83475265D01*
X151415983Y-83475176D01*
X151409250Y-83476333D01*
X151409249Y-83476333D01*
X151388531Y-83479893D01*
X151198534Y-83512540D01*
X151192135Y-83514901D01*
X151192130Y-83514902D01*
X151125523Y-83539475D01*
X150991534Y-83588906D01*
X150801918Y-83701716D01*
X150636034Y-83847192D01*
X150631807Y-83852554D01*
X150631806Y-83852555D01*
X150520353Y-83993934D01*
X150499440Y-84020462D01*
X150396708Y-84215722D01*
X150394683Y-84222245D01*
X150333304Y-84419915D01*
X150333303Y-84419920D01*
X150331280Y-84426435D01*
X150330478Y-84433212D01*
X150330477Y-84433216D01*
X150313678Y-84575153D01*
X150310077Y-84605578D01*
X150310077Y-86533072D01*
X147838577Y-86533072D01*
X147838577Y-85850718D01*
X147834432Y-85835247D01*
X147818961Y-85831102D01*
X145042193Y-85831102D01*
X145026722Y-85835247D01*
X145022577Y-85850718D01*
X145022577Y-86533946D01*
X145022843Y-86540241D01*
X145037155Y-86708910D01*
X145039273Y-86721301D01*
X145096133Y-86940370D01*
X145100307Y-86952224D01*
X145193264Y-87158581D01*
X145199385Y-87169578D01*
X145325779Y-87357316D01*
X145333657Y-87367115D01*
X145489877Y-87530877D01*
X145499300Y-87539213D01*
X145680878Y-87674311D01*
X145691564Y-87680937D01*
X145893314Y-87783512D01*
X145904963Y-87788242D01*
X145969245Y-87808202D01*
X146034474Y-87849359D01*
X146070386Y-87917616D01*
X146067358Y-87994685D01*
X146026201Y-88059914D01*
X145957944Y-88095826D01*
X145925060Y-88099500D01*
X139516467Y-88099500D01*
X139512307Y-88099442D01*
X139507080Y-88099296D01*
X139426347Y-88097041D01*
X139408738Y-88100146D01*
X139367778Y-88107368D01*
X139356962Y-88108869D01*
X139345592Y-88110024D01*
X139297784Y-88114880D01*
X139290584Y-88117136D01*
X139290581Y-88117137D01*
X139271730Y-88123044D01*
X139253049Y-88127598D01*
X139226178Y-88132336D01*
X139219160Y-88135114D01*
X139219162Y-88135114D01*
X139170887Y-88154227D01*
X139160595Y-88157872D01*
X139103828Y-88175662D01*
X139079945Y-88188900D01*
X139062572Y-88197112D01*
X139037195Y-88207160D01*
X139030876Y-88211295D01*
X138987439Y-88239719D01*
X138978091Y-88245359D01*
X138926056Y-88274203D01*
X138920328Y-88279112D01*
X138920320Y-88279118D01*
X138905329Y-88291967D01*
X138889953Y-88303512D01*
X138874312Y-88313748D01*
X138867117Y-88318456D01*
X138862162Y-88322917D01*
X138823874Y-88361205D01*
X138815481Y-88368977D01*
X138771729Y-88406477D01*
X138753710Y-88429707D01*
X138741336Y-88443743D01*
X127939115Y-99245965D01*
X127936132Y-99248866D01*
X127873626Y-99307975D01*
X127869298Y-99314156D01*
X127839505Y-99356705D01*
X127832918Y-99365413D01*
X127795333Y-99411497D01*
X127791837Y-99418185D01*
X127782690Y-99435682D01*
X127772695Y-99452120D01*
X127757043Y-99474473D01*
X127754048Y-99481394D01*
X127754047Y-99481396D01*
X127733423Y-99529057D01*
X127728721Y-99538914D01*
X127701164Y-99591624D01*
X127699084Y-99598878D01*
X127693640Y-99617863D01*
X127687157Y-99635969D01*
X127679318Y-99654083D01*
X127679316Y-99654090D01*
X127676320Y-99661013D01*
X127674777Y-99668399D01*
X127674776Y-99668402D01*
X127664157Y-99719234D01*
X127661534Y-99729833D01*
X127645140Y-99787007D01*
X127644561Y-99794533D01*
X127643046Y-99814221D01*
X127640336Y-99833259D01*
X127634755Y-99859974D01*
X127634406Y-99866633D01*
X127634406Y-99920779D01*
X127633967Y-99932210D01*
X127629546Y-99989665D01*
X126300000Y-99989665D01*
X126300000Y-86624655D01*
X130747511Y-86624655D01*
X130778355Y-86761518D01*
X130782003Y-86773157D01*
X130861414Y-86968725D01*
X130866910Y-86979606D01*
X130977190Y-87159566D01*
X130984403Y-87169422D01*
X131122591Y-87328950D01*
X131131311Y-87337489D01*
X131293716Y-87472320D01*
X131303686Y-87479302D01*
X131485945Y-87585805D01*
X131496930Y-87591069D01*
X131533850Y-87605167D01*
X131596327Y-87650392D01*
X131627821Y-87720798D01*
X131619892Y-87797517D01*
X131574667Y-87859994D01*
X131556878Y-87872415D01*
X131418934Y-87954483D01*
X131400856Y-87965238D01*
X131368641Y-87993489D01*
X131247022Y-88100146D01*
X131247019Y-88100149D01*
X131241881Y-88104655D01*
X131202802Y-88154227D01*
X131115207Y-88265340D01*
X131115203Y-88265346D01*
X131110976Y-88270708D01*
X131107797Y-88276751D01*
X131107794Y-88276755D01*
X131083921Y-88322131D01*
X131012523Y-88457836D01*
X130994510Y-88515849D01*
X130951844Y-88653253D01*
X130951843Y-88653258D01*
X130949820Y-88659773D01*
X130949018Y-88666550D01*
X130949017Y-88666554D01*
X130925770Y-88862968D01*
X130924967Y-88869754D01*
X130938796Y-89080749D01*
X130990845Y-89285690D01*
X130993703Y-89291890D01*
X130993705Y-89291895D01*
X131032435Y-89375907D01*
X131079369Y-89477714D01*
X131201405Y-89650391D01*
X131352865Y-89797937D01*
X131528677Y-89915411D01*
X131722953Y-89998878D01*
X131725856Y-89999535D01*
X131789397Y-90040799D01*
X131824413Y-90109521D01*
X131820377Y-90186543D01*
X131778370Y-90251228D01*
X131709648Y-90286244D01*
X131678669Y-90289500D01*
X131185354Y-90289500D01*
X131159154Y-90292618D01*
X131056847Y-90338061D01*
X130977759Y-90417287D01*
X130932494Y-90519673D01*
X130929500Y-90545354D01*
X130929500Y-92334646D01*
X130932618Y-92360846D01*
X130978061Y-92463153D01*
X131057287Y-92542241D01*
X131069867Y-92547803D01*
X131069869Y-92547804D01*
X131149426Y-92582976D01*
X131159673Y-92587506D01*
X131174318Y-92589213D01*
X131181070Y-92590001D01*
X131181078Y-92590001D01*
X131185354Y-92590500D01*
X132974646Y-92590500D01*
X133000846Y-92587382D01*
X133103153Y-92541939D01*
X133182241Y-92462713D01*
X133227506Y-92360327D01*
X133230500Y-92334646D01*
X133230500Y-90545354D01*
X133227382Y-90519154D01*
X133181939Y-90416847D01*
X133102713Y-90337759D01*
X133090133Y-90332197D01*
X133090131Y-90332196D01*
X133010574Y-90297024D01*
X133010573Y-90297024D01*
X133000327Y-90292494D01*
X132985682Y-90290787D01*
X132978930Y-90289999D01*
X132978922Y-90289999D01*
X132974646Y-90289500D01*
X132468612Y-90289500D01*
X132394112Y-90269538D01*
X132339574Y-90215000D01*
X132319612Y-90140500D01*
X132339574Y-90066000D01*
X132394112Y-90011462D01*
X132420718Y-89999407D01*
X132460152Y-89986021D01*
X132549955Y-89955537D01*
X132644713Y-89902470D01*
X132728481Y-89855558D01*
X132728486Y-89855554D01*
X132734442Y-89852219D01*
X132897012Y-89717012D01*
X133032219Y-89554442D01*
X133035554Y-89548486D01*
X133035558Y-89548481D01*
X133082470Y-89464713D01*
X133135537Y-89369955D01*
X133166389Y-89279068D01*
X133201311Y-89176192D01*
X133201312Y-89176187D01*
X133203504Y-89169730D01*
X133233846Y-88960470D01*
X133235429Y-88900000D01*
X133216081Y-88689440D01*
X133158686Y-88485931D01*
X133065165Y-88296290D01*
X133061084Y-88290825D01*
X133061081Y-88290820D01*
X132942739Y-88132341D01*
X132942737Y-88132339D01*
X132938651Y-88126867D01*
X132783381Y-87983337D01*
X132604554Y-87870505D01*
X132605789Y-87868547D01*
X132556887Y-87824519D01*
X132533050Y-87751167D01*
X132542329Y-87707500D01*
X139671429Y-87707500D01*
X142728572Y-87707500D01*
X142728572Y-85303486D01*
X145022577Y-85303486D01*
X145026722Y-85318957D01*
X145042193Y-85323102D01*
X146156961Y-85323102D01*
X146172432Y-85318957D01*
X146176577Y-85303486D01*
X146684577Y-85303486D01*
X146688722Y-85318957D01*
X146704193Y-85323102D01*
X147818961Y-85323102D01*
X147834432Y-85318957D01*
X147838577Y-85303486D01*
X147838577Y-84620258D01*
X147838311Y-84613963D01*
X147823999Y-84445294D01*
X147821881Y-84432903D01*
X147765021Y-84213834D01*
X147760847Y-84201980D01*
X147667890Y-83995623D01*
X147661769Y-83984626D01*
X147535375Y-83796888D01*
X147527497Y-83787089D01*
X147371277Y-83623327D01*
X147361854Y-83614991D01*
X147180276Y-83479893D01*
X147169590Y-83473267D01*
X146967840Y-83370692D01*
X146956191Y-83365962D01*
X146740038Y-83298844D01*
X146727768Y-83296147D01*
X146704023Y-83292999D01*
X146688142Y-83295076D01*
X146684577Y-83303661D01*
X146684577Y-85303486D01*
X146176577Y-85303486D01*
X146176577Y-83311321D01*
X146172432Y-83295850D01*
X146165576Y-83294013D01*
X146030680Y-83322317D01*
X146018647Y-83325927D01*
X145808137Y-83409062D01*
X145796869Y-83414656D01*
X145603383Y-83532066D01*
X145593222Y-83539475D01*
X145422284Y-83687808D01*
X145413517Y-83696823D01*
X145270014Y-83871837D01*
X145262890Y-83882202D01*
X145150927Y-84078894D01*
X145145650Y-84090314D01*
X145068433Y-84303043D01*
X145065152Y-84315202D01*
X145024630Y-84539290D01*
X145023526Y-84549015D01*
X145022659Y-84567394D01*
X145022577Y-84570899D01*
X145022577Y-85303486D01*
X142728572Y-85303486D01*
X142728572Y-83492500D01*
X139671429Y-83492500D01*
X139671429Y-87707500D01*
X132542329Y-87707500D01*
X132549082Y-87675723D01*
X132600688Y-87618404D01*
X132616293Y-87609556D01*
X132772249Y-87533153D01*
X132782715Y-87526915D01*
X132954552Y-87404345D01*
X132963874Y-87396467D01*
X133113381Y-87247480D01*
X133121281Y-87238198D01*
X133244451Y-87066789D01*
X133250734Y-87056332D01*
X133344254Y-86867109D01*
X133348742Y-86855775D01*
X133410100Y-86653822D01*
X133412680Y-86641890D01*
X133413791Y-86633447D01*
X133411700Y-86617569D01*
X133403083Y-86614000D01*
X130764726Y-86614000D01*
X130749255Y-86618145D01*
X130747511Y-86624655D01*
X126300000Y-86624655D01*
X126300000Y-86093629D01*
X130744542Y-86093629D01*
X130745902Y-86102319D01*
X130755435Y-86106000D01*
X133396843Y-86106000D01*
X133412314Y-86101855D01*
X133413916Y-86095875D01*
X133371445Y-85926793D01*
X133367516Y-85915254D01*
X133283350Y-85721685D01*
X133277590Y-85710942D01*
X133162937Y-85533716D01*
X133155504Y-85524063D01*
X133013440Y-85367937D01*
X133004534Y-85359632D01*
X132838880Y-85228807D01*
X132828725Y-85222060D01*
X132643939Y-85120053D01*
X132632817Y-85115055D01*
X132630031Y-85114068D01*
X132628915Y-85113301D01*
X132627244Y-85112550D01*
X132627380Y-85112246D01*
X132566467Y-85070383D01*
X132533261Y-85000769D01*
X132539312Y-84923879D01*
X132582997Y-84860315D01*
X132606961Y-84843612D01*
X132728481Y-84775558D01*
X132728486Y-84775554D01*
X132734442Y-84772219D01*
X132897012Y-84637012D01*
X133032219Y-84474442D01*
X133035554Y-84468486D01*
X133035558Y-84468481D01*
X133104104Y-84346082D01*
X133135537Y-84289955D01*
X133164141Y-84205690D01*
X133201311Y-84096192D01*
X133201312Y-84096187D01*
X133203504Y-84089730D01*
X133233846Y-83880470D01*
X133234111Y-83870369D01*
X133234835Y-83842686D01*
X133235429Y-83820000D01*
X133224111Y-83696823D01*
X133216706Y-83616242D01*
X133216081Y-83609440D01*
X133158686Y-83405931D01*
X133065165Y-83216290D01*
X133061084Y-83210825D01*
X133061081Y-83210820D01*
X132942739Y-83052341D01*
X132942737Y-83052339D01*
X132938651Y-83046867D01*
X132783381Y-82903337D01*
X132604554Y-82790505D01*
X132598215Y-82787976D01*
X132598209Y-82787973D01*
X132414504Y-82714683D01*
X132408160Y-82712152D01*
X132336512Y-82697900D01*
X132267339Y-82663789D01*
X132224489Y-82599659D01*
X132219444Y-82522696D01*
X132253556Y-82453522D01*
X132317686Y-82410672D01*
X132336356Y-82406189D01*
X132336329Y-82406079D01*
X132342977Y-82404483D01*
X132349730Y-82403504D01*
X132356187Y-82401312D01*
X132356192Y-82401311D01*
X132492083Y-82355182D01*
X132549955Y-82335537D01*
X132663405Y-82272002D01*
X132728481Y-82235558D01*
X132728486Y-82235554D01*
X132734442Y-82232219D01*
X132897012Y-82097012D01*
X133032219Y-81934442D01*
X133035554Y-81928486D01*
X133035558Y-81928481D01*
X133093898Y-81824307D01*
X133135537Y-81749955D01*
X133181377Y-81614914D01*
X133201311Y-81556192D01*
X133201312Y-81556187D01*
X133203504Y-81549730D01*
X133233846Y-81340470D01*
X133235429Y-81280000D01*
X133216081Y-81069440D01*
X133171324Y-80910741D01*
X135296833Y-80910741D01*
X135302929Y-81169390D01*
X135348078Y-81424142D01*
X135349895Y-81429494D01*
X135349896Y-81429499D01*
X135429423Y-81663779D01*
X135429426Y-81663786D01*
X135431241Y-81669133D01*
X135433849Y-81674153D01*
X135433850Y-81674156D01*
X135511848Y-81824307D01*
X135550505Y-81898725D01*
X135703125Y-82107636D01*
X135885589Y-82291058D01*
X136093698Y-82444770D01*
X136098708Y-82447406D01*
X136098713Y-82447409D01*
X136134802Y-82466396D01*
X136322663Y-82565234D01*
X136328011Y-82567081D01*
X136328014Y-82567082D01*
X136561868Y-82647833D01*
X136561872Y-82647834D01*
X136567215Y-82649679D01*
X136678377Y-82669981D01*
X136817031Y-82695304D01*
X136817038Y-82695305D01*
X136821726Y-82696161D01*
X136826490Y-82696411D01*
X136826493Y-82696411D01*
X136854927Y-82697901D01*
X136904519Y-82700500D01*
X137065782Y-82700500D01*
X137149116Y-82694161D01*
X137252342Y-82686309D01*
X137252348Y-82686308D01*
X137257976Y-82685880D01*
X137263479Y-82684604D01*
X137263482Y-82684604D01*
X137504510Y-82628737D01*
X137510015Y-82627461D01*
X137750318Y-82531590D01*
X137973354Y-82400473D01*
X138173991Y-82237129D01*
X138178436Y-82232219D01*
X138320463Y-82075310D01*
X138347613Y-82045315D01*
X138350734Y-82040591D01*
X138487105Y-81834166D01*
X138487108Y-81834161D01*
X138490222Y-81829447D01*
X138598538Y-81594491D01*
X138615956Y-81533946D01*
X145022577Y-81533946D01*
X145022843Y-81540241D01*
X145037155Y-81708910D01*
X145039273Y-81721301D01*
X145096133Y-81940370D01*
X145100307Y-81952224D01*
X145193264Y-82158581D01*
X145199385Y-82169578D01*
X145325779Y-82357316D01*
X145333657Y-82367115D01*
X145489877Y-82530877D01*
X145499300Y-82539213D01*
X145680878Y-82674311D01*
X145691564Y-82680937D01*
X145893314Y-82783512D01*
X145904963Y-82788242D01*
X146121116Y-82855360D01*
X146133386Y-82858057D01*
X146157131Y-82861205D01*
X146173012Y-82859128D01*
X146176577Y-82850543D01*
X146176577Y-82842883D01*
X146684577Y-82842883D01*
X146688722Y-82858354D01*
X146695578Y-82860191D01*
X146830474Y-82831887D01*
X146842507Y-82828277D01*
X147053017Y-82745142D01*
X147064285Y-82739548D01*
X147257771Y-82622138D01*
X147267932Y-82614729D01*
X147438870Y-82466396D01*
X147447637Y-82457381D01*
X147591140Y-82282367D01*
X147598264Y-82272002D01*
X147710227Y-82075310D01*
X147715504Y-82063890D01*
X147792721Y-81851161D01*
X147796002Y-81839002D01*
X147836524Y-81614914D01*
X147837628Y-81605189D01*
X147838495Y-81586810D01*
X147838577Y-81583305D01*
X147838577Y-81533072D01*
X150310077Y-81533072D01*
X150325123Y-81696813D01*
X150385012Y-81909166D01*
X150388034Y-81915295D01*
X150388036Y-81915299D01*
X150452153Y-82045315D01*
X150482597Y-82107049D01*
X150614610Y-82283835D01*
X150619627Y-82288473D01*
X150619630Y-82288476D01*
X150771607Y-82428962D01*
X150776628Y-82433603D01*
X150782406Y-82437248D01*
X150782409Y-82437251D01*
X150930798Y-82530877D01*
X150963227Y-82551338D01*
X151168156Y-82633096D01*
X151199356Y-82639302D01*
X151377850Y-82674807D01*
X151377853Y-82674807D01*
X151384553Y-82676140D01*
X151496313Y-82677603D01*
X151598337Y-82678939D01*
X151598342Y-82678939D01*
X151605171Y-82679028D01*
X151611904Y-82677871D01*
X151611905Y-82677871D01*
X151786718Y-82647833D01*
X151822620Y-82641664D01*
X151829019Y-82639303D01*
X151829024Y-82639302D01*
X151942090Y-82597589D01*
X152029620Y-82565298D01*
X152219236Y-82452488D01*
X152385120Y-82307012D01*
X152392142Y-82298105D01*
X152517485Y-82139107D01*
X152517487Y-82139104D01*
X152521714Y-82133742D01*
X152624446Y-81938482D01*
X152681137Y-81755907D01*
X152687850Y-81734289D01*
X152687851Y-81734284D01*
X152689874Y-81727769D01*
X152692107Y-81708910D01*
X152710562Y-81552979D01*
X152710562Y-81552975D01*
X152711077Y-81548626D01*
X152711077Y-80910741D01*
X155296833Y-80910741D01*
X155302929Y-81169390D01*
X155348078Y-81424142D01*
X155349895Y-81429494D01*
X155349896Y-81429499D01*
X155429423Y-81663779D01*
X155429426Y-81663786D01*
X155431241Y-81669133D01*
X155433849Y-81674153D01*
X155433850Y-81674156D01*
X155511848Y-81824307D01*
X155550505Y-81898725D01*
X155703125Y-82107636D01*
X155885589Y-82291058D01*
X156093698Y-82444770D01*
X156098708Y-82447406D01*
X156098713Y-82447409D01*
X156134802Y-82466396D01*
X156322663Y-82565234D01*
X156328011Y-82567081D01*
X156328014Y-82567082D01*
X156561868Y-82647833D01*
X156561872Y-82647834D01*
X156567215Y-82649679D01*
X156678377Y-82669981D01*
X156817031Y-82695304D01*
X156817038Y-82695305D01*
X156821726Y-82696161D01*
X156826490Y-82696411D01*
X156826493Y-82696411D01*
X156854927Y-82697901D01*
X156904519Y-82700500D01*
X157065782Y-82700500D01*
X157149116Y-82694161D01*
X157252342Y-82686309D01*
X157252348Y-82686308D01*
X157257976Y-82685880D01*
X157263479Y-82684604D01*
X157263482Y-82684604D01*
X157504510Y-82628737D01*
X157510015Y-82627461D01*
X157750318Y-82531590D01*
X157973354Y-82400473D01*
X158173991Y-82237129D01*
X158178436Y-82232219D01*
X158320463Y-82075310D01*
X158347613Y-82045315D01*
X158350734Y-82040591D01*
X158487105Y-81834166D01*
X158487108Y-81834161D01*
X158490222Y-81829447D01*
X158598538Y-81594491D01*
X158670068Y-81345855D01*
X158703167Y-81089259D01*
X158697071Y-80830610D01*
X158651922Y-80575858D01*
X158628503Y-80506867D01*
X158570577Y-80336221D01*
X158570574Y-80336214D01*
X158568759Y-80330867D01*
X158564726Y-80323102D01*
X158452106Y-80106301D01*
X158452105Y-80106299D01*
X158449495Y-80101275D01*
X158296875Y-79892364D01*
X158114411Y-79708942D01*
X157906302Y-79555230D01*
X157901292Y-79552594D01*
X157901287Y-79552591D01*
X157682351Y-79437404D01*
X157677337Y-79434766D01*
X157671989Y-79432919D01*
X157671986Y-79432918D01*
X157438132Y-79352167D01*
X157438128Y-79352166D01*
X157432785Y-79350321D01*
X157321623Y-79330019D01*
X157182969Y-79304696D01*
X157182962Y-79304695D01*
X157178274Y-79303839D01*
X157173510Y-79303589D01*
X157173507Y-79303589D01*
X157144329Y-79302060D01*
X157095481Y-79299500D01*
X156934218Y-79299500D01*
X156865912Y-79304696D01*
X156747658Y-79313691D01*
X156747652Y-79313692D01*
X156742024Y-79314120D01*
X156736521Y-79315396D01*
X156736518Y-79315396D01*
X156495490Y-79371263D01*
X156489985Y-79372539D01*
X156249682Y-79468410D01*
X156026646Y-79599527D01*
X155826009Y-79762871D01*
X155652387Y-79954685D01*
X155649267Y-79959407D01*
X155649266Y-79959409D01*
X155512895Y-80165834D01*
X155512892Y-80165839D01*
X155509778Y-80170553D01*
X155401462Y-80405509D01*
X155329932Y-80654145D01*
X155296833Y-80910741D01*
X152711077Y-80910741D01*
X152711077Y-79621132D01*
X152696031Y-79457391D01*
X152636142Y-79245038D01*
X152614909Y-79201980D01*
X152541579Y-79053283D01*
X152538557Y-79047155D01*
X152406544Y-78870369D01*
X152401527Y-78865731D01*
X152401524Y-78865728D01*
X152249547Y-78725242D01*
X152249545Y-78725240D01*
X152244526Y-78720601D01*
X152238748Y-78716956D01*
X152238745Y-78716953D01*
X152063704Y-78606511D01*
X152057927Y-78602866D01*
X151852998Y-78521108D01*
X151793118Y-78509197D01*
X151643304Y-78479397D01*
X151643301Y-78479397D01*
X151636601Y-78478064D01*
X151524841Y-78476601D01*
X151422817Y-78475265D01*
X151422812Y-78475265D01*
X151415983Y-78475176D01*
X151409250Y-78476333D01*
X151409249Y-78476333D01*
X151388531Y-78479893D01*
X151198534Y-78512540D01*
X151192135Y-78514901D01*
X151192130Y-78514902D01*
X151125523Y-78539475D01*
X150991534Y-78588906D01*
X150801918Y-78701716D01*
X150636034Y-78847192D01*
X150631807Y-78852554D01*
X150631806Y-78852555D01*
X150527691Y-78984626D01*
X150499440Y-79020462D01*
X150396708Y-79215722D01*
X150394683Y-79222245D01*
X150333304Y-79419915D01*
X150333303Y-79419920D01*
X150331280Y-79426435D01*
X150330478Y-79433212D01*
X150330477Y-79433216D01*
X150311133Y-79596655D01*
X150310077Y-79605578D01*
X150310077Y-81533072D01*
X147838577Y-81533072D01*
X147838577Y-80850718D01*
X147834432Y-80835247D01*
X147818961Y-80831102D01*
X146704193Y-80831102D01*
X146688722Y-80835247D01*
X146684577Y-80850718D01*
X146684577Y-82842883D01*
X146176577Y-82842883D01*
X146176577Y-80850718D01*
X146172432Y-80835247D01*
X146156961Y-80831102D01*
X145042193Y-80831102D01*
X145026722Y-80835247D01*
X145022577Y-80850718D01*
X145022577Y-81533946D01*
X138615956Y-81533946D01*
X138670068Y-81345855D01*
X138703167Y-81089259D01*
X138697071Y-80830610D01*
X138651922Y-80575858D01*
X138628503Y-80506867D01*
X138570577Y-80336221D01*
X138570574Y-80336214D01*
X138568759Y-80330867D01*
X138564726Y-80323102D01*
X138554536Y-80303486D01*
X145022577Y-80303486D01*
X145026722Y-80318957D01*
X145042193Y-80323102D01*
X146156961Y-80323102D01*
X146172432Y-80318957D01*
X146176577Y-80303486D01*
X146684577Y-80303486D01*
X146688722Y-80318957D01*
X146704193Y-80323102D01*
X147818961Y-80323102D01*
X147834432Y-80318957D01*
X147838577Y-80303486D01*
X147838577Y-79620258D01*
X147838311Y-79613963D01*
X147823999Y-79445294D01*
X147821881Y-79432903D01*
X147765021Y-79213834D01*
X147760847Y-79201980D01*
X147667890Y-78995623D01*
X147661769Y-78984626D01*
X147535375Y-78796888D01*
X147527497Y-78787089D01*
X147371277Y-78623327D01*
X147361854Y-78614991D01*
X147180276Y-78479893D01*
X147169590Y-78473267D01*
X146967840Y-78370692D01*
X146956191Y-78365962D01*
X146740038Y-78298844D01*
X146727768Y-78296147D01*
X146704023Y-78292999D01*
X146688142Y-78295076D01*
X146684577Y-78303661D01*
X146684577Y-80303486D01*
X146176577Y-80303486D01*
X146176577Y-78311321D01*
X146172432Y-78295850D01*
X146165576Y-78294013D01*
X146030680Y-78322317D01*
X146018647Y-78325927D01*
X145808137Y-78409062D01*
X145796869Y-78414656D01*
X145603383Y-78532066D01*
X145593222Y-78539475D01*
X145422284Y-78687808D01*
X145413517Y-78696823D01*
X145270014Y-78871837D01*
X145262890Y-78882202D01*
X145150927Y-79078894D01*
X145145650Y-79090314D01*
X145068436Y-79303033D01*
X145065152Y-79315202D01*
X145024630Y-79539290D01*
X145023526Y-79549015D01*
X145022659Y-79567394D01*
X145022577Y-79570899D01*
X145022577Y-80303486D01*
X138554536Y-80303486D01*
X138452106Y-80106301D01*
X138452105Y-80106299D01*
X138449495Y-80101275D01*
X138296875Y-79892364D01*
X138114411Y-79708942D01*
X137906302Y-79555230D01*
X137901292Y-79552594D01*
X137901287Y-79552591D01*
X137682351Y-79437404D01*
X137677337Y-79434766D01*
X137671989Y-79432919D01*
X137671986Y-79432918D01*
X137438132Y-79352167D01*
X137438128Y-79352166D01*
X137432785Y-79350321D01*
X137321623Y-79330019D01*
X137182969Y-79304696D01*
X137182962Y-79304695D01*
X137178274Y-79303839D01*
X137173510Y-79303589D01*
X137173507Y-79303589D01*
X137144329Y-79302060D01*
X137095481Y-79299500D01*
X136934218Y-79299500D01*
X136865912Y-79304696D01*
X136747658Y-79313691D01*
X136747652Y-79313692D01*
X136742024Y-79314120D01*
X136736521Y-79315396D01*
X136736518Y-79315396D01*
X136495490Y-79371263D01*
X136489985Y-79372539D01*
X136249682Y-79468410D01*
X136026646Y-79599527D01*
X135826009Y-79762871D01*
X135652387Y-79954685D01*
X135649267Y-79959407D01*
X135649266Y-79959409D01*
X135512895Y-80165834D01*
X135512892Y-80165839D01*
X135509778Y-80170553D01*
X135401462Y-80405509D01*
X135329932Y-80654145D01*
X135296833Y-80910741D01*
X133171324Y-80910741D01*
X133158686Y-80865931D01*
X133065165Y-80676290D01*
X133061084Y-80670825D01*
X133061081Y-80670820D01*
X132942739Y-80512341D01*
X132942737Y-80512339D01*
X132938651Y-80506867D01*
X132783381Y-80363337D01*
X132604554Y-80250505D01*
X132598215Y-80247976D01*
X132598209Y-80247973D01*
X132414504Y-80174683D01*
X132408160Y-80172152D01*
X132353713Y-80161322D01*
X132207478Y-80132234D01*
X132207475Y-80132234D01*
X132200775Y-80130901D01*
X132095061Y-80129517D01*
X131996180Y-80128222D01*
X131996175Y-80128222D01*
X131989346Y-80128133D01*
X131982613Y-80129290D01*
X131982612Y-80129290D01*
X131787684Y-80162784D01*
X131787680Y-80162785D01*
X131780953Y-80163941D01*
X131582575Y-80237127D01*
X131576702Y-80240621D01*
X131425012Y-80330867D01*
X131400856Y-80345238D01*
X131368641Y-80373489D01*
X131247022Y-80480146D01*
X131247019Y-80480149D01*
X131241881Y-80484655D01*
X131186189Y-80555300D01*
X131115207Y-80645340D01*
X131115203Y-80645346D01*
X131110976Y-80650708D01*
X131107797Y-80656751D01*
X131107794Y-80656755D01*
X131070917Y-80726847D01*
X131012523Y-80837836D01*
X130988130Y-80916396D01*
X130951844Y-81033253D01*
X130951843Y-81033258D01*
X130949820Y-81039773D01*
X130949018Y-81046550D01*
X130949017Y-81046554D01*
X130933820Y-81174954D01*
X130924967Y-81249754D01*
X130925414Y-81256572D01*
X130936397Y-81424142D01*
X130938796Y-81460749D01*
X130940478Y-81467371D01*
X130975480Y-81605189D01*
X130990845Y-81665690D01*
X130993703Y-81671890D01*
X130993705Y-81671895D01*
X131032435Y-81755907D01*
X131079369Y-81857714D01*
X131201405Y-82030391D01*
X131352865Y-82177937D01*
X131528677Y-82295411D01*
X131722953Y-82378878D01*
X131833903Y-82403984D01*
X131902159Y-82439895D01*
X131943316Y-82505124D01*
X131946344Y-82582193D01*
X131910432Y-82650450D01*
X131845203Y-82691607D01*
X131826252Y-82696157D01*
X131809668Y-82699007D01*
X131780953Y-82703941D01*
X131751836Y-82714683D01*
X131594540Y-82772713D01*
X131582575Y-82777127D01*
X131576702Y-82780621D01*
X131446969Y-82857804D01*
X131400856Y-82885238D01*
X131368641Y-82913489D01*
X131247022Y-83020146D01*
X131247019Y-83020149D01*
X131241881Y-83024655D01*
X131205440Y-83070881D01*
X131115207Y-83185340D01*
X131115203Y-83185346D01*
X131110976Y-83190708D01*
X131107797Y-83196751D01*
X131107794Y-83196755D01*
X131094295Y-83222413D01*
X131012523Y-83377836D01*
X131002827Y-83409062D01*
X130951844Y-83573253D01*
X130951843Y-83573258D01*
X130949820Y-83579773D01*
X130949018Y-83586550D01*
X130949017Y-83586554D01*
X130925770Y-83782968D01*
X130924967Y-83789754D01*
X130925414Y-83796572D01*
X130931047Y-83882512D01*
X130938796Y-84000749D01*
X130990845Y-84205690D01*
X130993703Y-84211890D01*
X130993705Y-84211895D01*
X131051606Y-84337492D01*
X131079369Y-84397714D01*
X131083305Y-84403284D01*
X131083306Y-84403285D01*
X131197467Y-84564819D01*
X131201405Y-84570391D01*
X131352865Y-84717937D01*
X131528677Y-84835411D01*
X131534946Y-84838104D01*
X131534949Y-84838106D01*
X131535268Y-84838243D01*
X131535415Y-84838359D01*
X131540957Y-84841368D01*
X131540440Y-84842320D01*
X131595837Y-84885994D01*
X131624417Y-84957632D01*
X131613348Y-85033961D01*
X131565597Y-85094530D01*
X131545250Y-85107307D01*
X131359300Y-85204107D01*
X131348981Y-85210605D01*
X131180185Y-85337341D01*
X131171073Y-85345431D01*
X131025248Y-85498029D01*
X131017573Y-85507505D01*
X130898621Y-85681883D01*
X130892607Y-85692470D01*
X130803734Y-85883931D01*
X130799524Y-85895372D01*
X130744542Y-86093629D01*
X126300000Y-86093629D01*
X126300000Y-77449000D01*
X126319962Y-77374500D01*
X126374500Y-77319962D01*
X126449000Y-77300000D01*
X170051000Y-77300000D01*
X170125500Y-77319962D01*
G37*
%TD.AperFunction*%
%TD*%
M02*
