%TF.GenerationSoftware,KiCad,Pcbnew,6.0.1*%
%TF.CreationDate,2022-06-20T02:46:21+02:00*%
%TF.ProjectId,PontHComplet_MK2,506f6e74-4843-46f6-9d70-6c65745f4d4b,rev?*%
%TF.SameCoordinates,Original*%
%TF.FileFunction,Soldermask,Top*%
%TF.FilePolarity,Negative*%
%FSLAX46Y46*%
G04 Gerber Fmt 4.6, Leading zero omitted, Abs format (unit mm)*
G04 Created by KiCad (PCBNEW 6.0.1) date 2022-06-20 02:46:21*
%MOMM*%
%LPD*%
G01*
G04 APERTURE LIST*
%TA.AperFunction,Profile*%
%ADD10C,0.050000*%
%TD*%
%ADD11R,1.800000X1.325000*%
%ADD12R,1.700000X1.700000*%
%ADD13O,1.700000X1.700000*%
%ADD14O,2.003200X3.803200*%
%ADD15C,2.800000*%
G04 APERTURE END LIST*
D10*
X126000000Y-133000000D02*
X170500000Y-132983704D01*
X170500000Y-132983704D02*
X170500000Y-77000000D01*
X170500000Y-77000000D02*
X126000000Y-77000000D01*
X126000000Y-77000000D02*
X126000000Y-133000000D01*
X125166666Y-135250000D02*
G75*
G03*
X125166666Y-135250000I-1666666J0D01*
G01*
X121000000Y-135250000D02*
X126000000Y-135250000D01*
X123500000Y-132750000D02*
X123500000Y-137750000D01*
X174166666Y-75000000D02*
G75*
G03*
X174166666Y-75000000I-1666666J0D01*
G01*
X170000000Y-75000000D02*
X175000000Y-75000000D01*
X172500000Y-72500000D02*
X172500000Y-77500000D01*
D11*
%TO.C,G8*%
X150750000Y-102625000D03*
X150750000Y-105750000D03*
%TD*%
%TO.C,D1*%
G36*
G01*
X134484424Y-119041280D02*
X133184424Y-119041280D01*
G75*
G02*
X132934424Y-118791280I0J250000D01*
G01*
X132934424Y-117966280D01*
G75*
G02*
X133184424Y-117716280I250000J0D01*
G01*
X134484424Y-117716280D01*
G75*
G02*
X134734424Y-117966280I0J-250000D01*
G01*
X134734424Y-118791280D01*
G75*
G02*
X134484424Y-119041280I-250000J0D01*
G01*
G37*
G36*
G01*
X134484424Y-115916280D02*
X133184424Y-115916280D01*
G75*
G02*
X132934424Y-115666280I0J250000D01*
G01*
X132934424Y-114841280D01*
G75*
G02*
X133184424Y-114591280I250000J0D01*
G01*
X134484424Y-114591280D01*
G75*
G02*
X134734424Y-114841280I0J-250000D01*
G01*
X134734424Y-115666280D01*
G75*
G02*
X134484424Y-115916280I-250000J0D01*
G01*
G37*
%TD*%
%TO.C,D10*%
G36*
G01*
X137900000Y-106975000D02*
X136600000Y-106975000D01*
G75*
G02*
X136350000Y-106725000I0J250000D01*
G01*
X136350000Y-105900000D01*
G75*
G02*
X136600000Y-105650000I250000J0D01*
G01*
X137900000Y-105650000D01*
G75*
G02*
X138150000Y-105900000I0J-250000D01*
G01*
X138150000Y-106725000D01*
G75*
G02*
X137900000Y-106975000I-250000J0D01*
G01*
G37*
G36*
G01*
X137900000Y-103850000D02*
X136600000Y-103850000D01*
G75*
G02*
X136350000Y-103600000I0J250000D01*
G01*
X136350000Y-102775000D01*
G75*
G02*
X136600000Y-102525000I250000J0D01*
G01*
X137900000Y-102525000D01*
G75*
G02*
X138150000Y-102775000I0J-250000D01*
G01*
X138150000Y-103600000D01*
G75*
G02*
X137900000Y-103850000I-250000J0D01*
G01*
G37*
%TD*%
%TO.C,D2*%
G36*
G01*
X129595587Y-108431986D02*
X129595587Y-107131986D01*
G75*
G02*
X129845587Y-106881986I250000J0D01*
G01*
X130670587Y-106881986D01*
G75*
G02*
X130920587Y-107131986I0J-250000D01*
G01*
X130920587Y-108431986D01*
G75*
G02*
X130670587Y-108681986I-250000J0D01*
G01*
X129845587Y-108681986D01*
G75*
G02*
X129595587Y-108431986I0J250000D01*
G01*
G37*
G36*
G01*
X132720587Y-108431986D02*
X132720587Y-107131986D01*
G75*
G02*
X132970587Y-106881986I250000J0D01*
G01*
X133795587Y-106881986D01*
G75*
G02*
X134045587Y-107131986I0J-250000D01*
G01*
X134045587Y-108431986D01*
G75*
G02*
X133795587Y-108681986I-250000J0D01*
G01*
X132970587Y-108681986D01*
G75*
G02*
X132720587Y-108431986I0J250000D01*
G01*
G37*
%TD*%
%TO.C,D3*%
G36*
G01*
X130150000Y-101375000D02*
X131450000Y-101375000D01*
G75*
G02*
X131700000Y-101625000I0J-250000D01*
G01*
X131700000Y-102450000D01*
G75*
G02*
X131450000Y-102700000I-250000J0D01*
G01*
X130150000Y-102700000D01*
G75*
G02*
X129900000Y-102450000I0J250000D01*
G01*
X129900000Y-101625000D01*
G75*
G02*
X130150000Y-101375000I250000J0D01*
G01*
G37*
G36*
G01*
X130150000Y-104500000D02*
X131450000Y-104500000D01*
G75*
G02*
X131700000Y-104750000I0J-250000D01*
G01*
X131700000Y-105575000D01*
G75*
G02*
X131450000Y-105825000I-250000J0D01*
G01*
X130150000Y-105825000D01*
G75*
G02*
X129900000Y-105575000I0J250000D01*
G01*
X129900000Y-104750000D01*
G75*
G02*
X130150000Y-104500000I250000J0D01*
G01*
G37*
%TD*%
%TO.C,D4*%
G36*
G01*
X132675000Y-101400000D02*
X133925000Y-101400000D01*
G75*
G02*
X134175000Y-101650000I0J-250000D01*
G01*
X134175000Y-102450000D01*
G75*
G02*
X133925000Y-102700000I-250000J0D01*
G01*
X132675000Y-102700000D01*
G75*
G02*
X132425000Y-102450000I0J250000D01*
G01*
X132425000Y-101650000D01*
G75*
G02*
X132675000Y-101400000I250000J0D01*
G01*
G37*
G36*
G01*
X132675000Y-104500000D02*
X133925000Y-104500000D01*
G75*
G02*
X134175000Y-104750000I0J-250000D01*
G01*
X134175000Y-105550000D01*
G75*
G02*
X133925000Y-105800000I-250000J0D01*
G01*
X132675000Y-105800000D01*
G75*
G02*
X132425000Y-105550000I0J250000D01*
G01*
X132425000Y-104750000D01*
G75*
G02*
X132675000Y-104500000I250000J0D01*
G01*
G37*
%TD*%
%TO.C,D5*%
G36*
G01*
X146977915Y-118148495D02*
X146977915Y-119398495D01*
G75*
G02*
X146727915Y-119648495I-250000J0D01*
G01*
X145927915Y-119648495D01*
G75*
G02*
X145677915Y-119398495I0J250000D01*
G01*
X145677915Y-118148495D01*
G75*
G02*
X145927915Y-117898495I250000J0D01*
G01*
X146727915Y-117898495D01*
G75*
G02*
X146977915Y-118148495I0J-250000D01*
G01*
G37*
G36*
G01*
X143877915Y-118148495D02*
X143877915Y-119398495D01*
G75*
G02*
X143627915Y-119648495I-250000J0D01*
G01*
X142827915Y-119648495D01*
G75*
G02*
X142577915Y-119398495I0J250000D01*
G01*
X142577915Y-118148495D01*
G75*
G02*
X142827915Y-117898495I250000J0D01*
G01*
X143627915Y-117898495D01*
G75*
G02*
X143877915Y-118148495I0J-250000D01*
G01*
G37*
%TD*%
%TO.C,D8*%
G36*
G01*
X146927512Y-120604899D02*
X146927512Y-121904899D01*
G75*
G02*
X146677512Y-122154899I-250000J0D01*
G01*
X145852512Y-122154899D01*
G75*
G02*
X145602512Y-121904899I0J250000D01*
G01*
X145602512Y-120604899D01*
G75*
G02*
X145852512Y-120354899I250000J0D01*
G01*
X146677512Y-120354899D01*
G75*
G02*
X146927512Y-120604899I0J-250000D01*
G01*
G37*
G36*
G01*
X143802512Y-120604899D02*
X143802512Y-121904899D01*
G75*
G02*
X143552512Y-122154899I-250000J0D01*
G01*
X142727512Y-122154899D01*
G75*
G02*
X142477512Y-121904899I0J250000D01*
G01*
X142477512Y-120604899D01*
G75*
G02*
X142727512Y-120354899I250000J0D01*
G01*
X143552512Y-120354899D01*
G75*
G02*
X143802512Y-120604899I0J-250000D01*
G01*
G37*
%TD*%
%TO.C,DRIVER_DROIT1*%
G36*
G01*
X138082356Y-108429083D02*
X136482356Y-108429083D01*
G75*
G02*
X136380756Y-108327483I0J101600D01*
G01*
X136380756Y-107877483D01*
G75*
G02*
X136482356Y-107775883I101600J0D01*
G01*
X138082356Y-107775883D01*
G75*
G02*
X138183956Y-107877483I0J-101600D01*
G01*
X138183956Y-108327483D01*
G75*
G02*
X138082356Y-108429083I-101600J0D01*
G01*
G37*
G36*
G01*
X138082356Y-109079083D02*
X136482356Y-109079083D01*
G75*
G02*
X136380756Y-108977483I0J101600D01*
G01*
X136380756Y-108527483D01*
G75*
G02*
X136482356Y-108425883I101600J0D01*
G01*
X138082356Y-108425883D01*
G75*
G02*
X138183956Y-108527483I0J-101600D01*
G01*
X138183956Y-108977483D01*
G75*
G02*
X138082356Y-109079083I-101600J0D01*
G01*
G37*
G36*
G01*
X138082356Y-109729083D02*
X136482356Y-109729083D01*
G75*
G02*
X136380756Y-109627483I0J101600D01*
G01*
X136380756Y-109177483D01*
G75*
G02*
X136482356Y-109075883I101600J0D01*
G01*
X138082356Y-109075883D01*
G75*
G02*
X138183956Y-109177483I0J-101600D01*
G01*
X138183956Y-109627483D01*
G75*
G02*
X138082356Y-109729083I-101600J0D01*
G01*
G37*
G36*
G01*
X138082356Y-110379083D02*
X136482356Y-110379083D01*
G75*
G02*
X136380756Y-110277483I0J101600D01*
G01*
X136380756Y-109827483D01*
G75*
G02*
X136482356Y-109725883I101600J0D01*
G01*
X138082356Y-109725883D01*
G75*
G02*
X138183956Y-109827483I0J-101600D01*
G01*
X138183956Y-110277483D01*
G75*
G02*
X138082356Y-110379083I-101600J0D01*
G01*
G37*
G36*
G01*
X138082356Y-111029083D02*
X136482356Y-111029083D01*
G75*
G02*
X136380756Y-110927483I0J101600D01*
G01*
X136380756Y-110477483D01*
G75*
G02*
X136482356Y-110375883I101600J0D01*
G01*
X138082356Y-110375883D01*
G75*
G02*
X138183956Y-110477483I0J-101600D01*
G01*
X138183956Y-110927483D01*
G75*
G02*
X138082356Y-111029083I-101600J0D01*
G01*
G37*
G36*
G01*
X138082356Y-111679083D02*
X136482356Y-111679083D01*
G75*
G02*
X136380756Y-111577483I0J101600D01*
G01*
X136380756Y-111127483D01*
G75*
G02*
X136482356Y-111025883I101600J0D01*
G01*
X138082356Y-111025883D01*
G75*
G02*
X138183956Y-111127483I0J-101600D01*
G01*
X138183956Y-111577483D01*
G75*
G02*
X138082356Y-111679083I-101600J0D01*
G01*
G37*
G36*
G01*
X138082356Y-112329083D02*
X136482356Y-112329083D01*
G75*
G02*
X136380756Y-112227483I0J101600D01*
G01*
X136380756Y-111777483D01*
G75*
G02*
X136482356Y-111675883I101600J0D01*
G01*
X138082356Y-111675883D01*
G75*
G02*
X138183956Y-111777483I0J-101600D01*
G01*
X138183956Y-112227483D01*
G75*
G02*
X138082356Y-112329083I-101600J0D01*
G01*
G37*
G36*
G01*
X138082356Y-112979083D02*
X136482356Y-112979083D01*
G75*
G02*
X136380756Y-112877483I0J101600D01*
G01*
X136380756Y-112427483D01*
G75*
G02*
X136482356Y-112325883I101600J0D01*
G01*
X138082356Y-112325883D01*
G75*
G02*
X138183956Y-112427483I0J-101600D01*
G01*
X138183956Y-112877483D01*
G75*
G02*
X138082356Y-112979083I-101600J0D01*
G01*
G37*
G36*
G01*
X138082356Y-113629083D02*
X136482356Y-113629083D01*
G75*
G02*
X136380756Y-113527483I0J101600D01*
G01*
X136380756Y-113077483D01*
G75*
G02*
X136482356Y-112975883I101600J0D01*
G01*
X138082356Y-112975883D01*
G75*
G02*
X138183956Y-113077483I0J-101600D01*
G01*
X138183956Y-113527483D01*
G75*
G02*
X138082356Y-113629083I-101600J0D01*
G01*
G37*
G36*
G01*
X138082356Y-114279083D02*
X136482356Y-114279083D01*
G75*
G02*
X136380756Y-114177483I0J101600D01*
G01*
X136380756Y-113727483D01*
G75*
G02*
X136482356Y-113625883I101600J0D01*
G01*
X138082356Y-113625883D01*
G75*
G02*
X138183956Y-113727483I0J-101600D01*
G01*
X138183956Y-114177483D01*
G75*
G02*
X138082356Y-114279083I-101600J0D01*
G01*
G37*
G36*
G01*
X138082356Y-114929083D02*
X136482356Y-114929083D01*
G75*
G02*
X136380756Y-114827483I0J101600D01*
G01*
X136380756Y-114377483D01*
G75*
G02*
X136482356Y-114275883I101600J0D01*
G01*
X138082356Y-114275883D01*
G75*
G02*
X138183956Y-114377483I0J-101600D01*
G01*
X138183956Y-114827483D01*
G75*
G02*
X138082356Y-114929083I-101600J0D01*
G01*
G37*
G36*
G01*
X138082356Y-115579083D02*
X136482356Y-115579083D01*
G75*
G02*
X136380756Y-115477483I0J101600D01*
G01*
X136380756Y-115027483D01*
G75*
G02*
X136482356Y-114925883I101600J0D01*
G01*
X138082356Y-114925883D01*
G75*
G02*
X138183956Y-115027483I0J-101600D01*
G01*
X138183956Y-115477483D01*
G75*
G02*
X138082356Y-115579083I-101600J0D01*
G01*
G37*
G36*
G01*
X138082356Y-116229083D02*
X136482356Y-116229083D01*
G75*
G02*
X136380756Y-116127483I0J101600D01*
G01*
X136380756Y-115677483D01*
G75*
G02*
X136482356Y-115575883I101600J0D01*
G01*
X138082356Y-115575883D01*
G75*
G02*
X138183956Y-115677483I0J-101600D01*
G01*
X138183956Y-116127483D01*
G75*
G02*
X138082356Y-116229083I-101600J0D01*
G01*
G37*
G36*
G01*
X138082356Y-116879083D02*
X136482356Y-116879083D01*
G75*
G02*
X136380756Y-116777483I0J101600D01*
G01*
X136380756Y-116327483D01*
G75*
G02*
X136482356Y-116225883I101600J0D01*
G01*
X138082356Y-116225883D01*
G75*
G02*
X138183956Y-116327483I0J-101600D01*
G01*
X138183956Y-116777483D01*
G75*
G02*
X138082356Y-116879083I-101600J0D01*
G01*
G37*
G36*
G01*
X144182356Y-116879083D02*
X142582356Y-116879083D01*
G75*
G02*
X142480756Y-116777483I0J101600D01*
G01*
X142480756Y-116327483D01*
G75*
G02*
X142582356Y-116225883I101600J0D01*
G01*
X144182356Y-116225883D01*
G75*
G02*
X144283956Y-116327483I0J-101600D01*
G01*
X144283956Y-116777483D01*
G75*
G02*
X144182356Y-116879083I-101600J0D01*
G01*
G37*
G36*
G01*
X144182356Y-116229083D02*
X142582356Y-116229083D01*
G75*
G02*
X142480756Y-116127483I0J101600D01*
G01*
X142480756Y-115677483D01*
G75*
G02*
X142582356Y-115575883I101600J0D01*
G01*
X144182356Y-115575883D01*
G75*
G02*
X144283956Y-115677483I0J-101600D01*
G01*
X144283956Y-116127483D01*
G75*
G02*
X144182356Y-116229083I-101600J0D01*
G01*
G37*
G36*
G01*
X144182356Y-115579083D02*
X142582356Y-115579083D01*
G75*
G02*
X142480756Y-115477483I0J101600D01*
G01*
X142480756Y-115027483D01*
G75*
G02*
X142582356Y-114925883I101600J0D01*
G01*
X144182356Y-114925883D01*
G75*
G02*
X144283956Y-115027483I0J-101600D01*
G01*
X144283956Y-115477483D01*
G75*
G02*
X144182356Y-115579083I-101600J0D01*
G01*
G37*
G36*
G01*
X144182356Y-114929083D02*
X142582356Y-114929083D01*
G75*
G02*
X142480756Y-114827483I0J101600D01*
G01*
X142480756Y-114377483D01*
G75*
G02*
X142582356Y-114275883I101600J0D01*
G01*
X144182356Y-114275883D01*
G75*
G02*
X144283956Y-114377483I0J-101600D01*
G01*
X144283956Y-114827483D01*
G75*
G02*
X144182356Y-114929083I-101600J0D01*
G01*
G37*
G36*
G01*
X144182356Y-114279083D02*
X142582356Y-114279083D01*
G75*
G02*
X142480756Y-114177483I0J101600D01*
G01*
X142480756Y-113727483D01*
G75*
G02*
X142582356Y-113625883I101600J0D01*
G01*
X144182356Y-113625883D01*
G75*
G02*
X144283956Y-113727483I0J-101600D01*
G01*
X144283956Y-114177483D01*
G75*
G02*
X144182356Y-114279083I-101600J0D01*
G01*
G37*
G36*
G01*
X144182356Y-113629083D02*
X142582356Y-113629083D01*
G75*
G02*
X142480756Y-113527483I0J101600D01*
G01*
X142480756Y-113077483D01*
G75*
G02*
X142582356Y-112975883I101600J0D01*
G01*
X144182356Y-112975883D01*
G75*
G02*
X144283956Y-113077483I0J-101600D01*
G01*
X144283956Y-113527483D01*
G75*
G02*
X144182356Y-113629083I-101600J0D01*
G01*
G37*
G36*
G01*
X144182356Y-112979083D02*
X142582356Y-112979083D01*
G75*
G02*
X142480756Y-112877483I0J101600D01*
G01*
X142480756Y-112427483D01*
G75*
G02*
X142582356Y-112325883I101600J0D01*
G01*
X144182356Y-112325883D01*
G75*
G02*
X144283956Y-112427483I0J-101600D01*
G01*
X144283956Y-112877483D01*
G75*
G02*
X144182356Y-112979083I-101600J0D01*
G01*
G37*
G36*
G01*
X144182356Y-112329083D02*
X142582356Y-112329083D01*
G75*
G02*
X142480756Y-112227483I0J101600D01*
G01*
X142480756Y-111777483D01*
G75*
G02*
X142582356Y-111675883I101600J0D01*
G01*
X144182356Y-111675883D01*
G75*
G02*
X144283956Y-111777483I0J-101600D01*
G01*
X144283956Y-112227483D01*
G75*
G02*
X144182356Y-112329083I-101600J0D01*
G01*
G37*
G36*
G01*
X144182356Y-111679083D02*
X142582356Y-111679083D01*
G75*
G02*
X142480756Y-111577483I0J101600D01*
G01*
X142480756Y-111127483D01*
G75*
G02*
X142582356Y-111025883I101600J0D01*
G01*
X144182356Y-111025883D01*
G75*
G02*
X144283956Y-111127483I0J-101600D01*
G01*
X144283956Y-111577483D01*
G75*
G02*
X144182356Y-111679083I-101600J0D01*
G01*
G37*
G36*
G01*
X144182356Y-111029083D02*
X142582356Y-111029083D01*
G75*
G02*
X142480756Y-110927483I0J101600D01*
G01*
X142480756Y-110477483D01*
G75*
G02*
X142582356Y-110375883I101600J0D01*
G01*
X144182356Y-110375883D01*
G75*
G02*
X144283956Y-110477483I0J-101600D01*
G01*
X144283956Y-110927483D01*
G75*
G02*
X144182356Y-111029083I-101600J0D01*
G01*
G37*
G36*
G01*
X144182356Y-110379083D02*
X142582356Y-110379083D01*
G75*
G02*
X142480756Y-110277483I0J101600D01*
G01*
X142480756Y-109827483D01*
G75*
G02*
X142582356Y-109725883I101600J0D01*
G01*
X144182356Y-109725883D01*
G75*
G02*
X144283956Y-109827483I0J-101600D01*
G01*
X144283956Y-110277483D01*
G75*
G02*
X144182356Y-110379083I-101600J0D01*
G01*
G37*
G36*
G01*
X144182356Y-109729083D02*
X142582356Y-109729083D01*
G75*
G02*
X142480756Y-109627483I0J101600D01*
G01*
X142480756Y-109177483D01*
G75*
G02*
X142582356Y-109075883I101600J0D01*
G01*
X144182356Y-109075883D01*
G75*
G02*
X144283956Y-109177483I0J-101600D01*
G01*
X144283956Y-109627483D01*
G75*
G02*
X144182356Y-109729083I-101600J0D01*
G01*
G37*
G36*
G01*
X144182356Y-109079083D02*
X142582356Y-109079083D01*
G75*
G02*
X142480756Y-108977483I0J101600D01*
G01*
X142480756Y-108527483D01*
G75*
G02*
X142582356Y-108425883I101600J0D01*
G01*
X144182356Y-108425883D01*
G75*
G02*
X144283956Y-108527483I0J-101600D01*
G01*
X144283956Y-108977483D01*
G75*
G02*
X144182356Y-109079083I-101600J0D01*
G01*
G37*
G36*
G01*
X144182356Y-108429083D02*
X142582356Y-108429083D01*
G75*
G02*
X142480756Y-108327483I0J101600D01*
G01*
X142480756Y-107877483D01*
G75*
G02*
X142582356Y-107775883I101600J0D01*
G01*
X144182356Y-107775883D01*
G75*
G02*
X144283956Y-107877483I0J-101600D01*
G01*
X144283956Y-108327483D01*
G75*
G02*
X144182356Y-108429083I-101600J0D01*
G01*
G37*
G36*
G01*
X138680756Y-114917483D02*
X138680756Y-109737483D01*
G75*
G02*
X138782356Y-109635883I101600J0D01*
G01*
X141882356Y-109635883D01*
G75*
G02*
X141983956Y-109737483I0J-101600D01*
G01*
X141983956Y-114917483D01*
G75*
G02*
X141882356Y-115019083I-101600J0D01*
G01*
X138782356Y-115019083D01*
G75*
G02*
X138680756Y-114917483I0J101600D01*
G01*
G37*
G36*
G01*
X139980759Y-112327483D02*
X139980759Y-112327483D01*
G75*
G02*
X140332359Y-111975883I351600J0D01*
G01*
X140332359Y-111975883D01*
G75*
G02*
X140683959Y-112327483I0J-351600D01*
G01*
X140683959Y-112327483D01*
G75*
G02*
X140332359Y-112679083I-351600J0D01*
G01*
X140332359Y-112679083D01*
G75*
G02*
X139980759Y-112327483I0J351600D01*
G01*
G37*
%TD*%
%TO.C,DRIVER_GAUCHE1*%
G36*
G01*
X158554068Y-115907724D02*
X160154068Y-115907724D01*
G75*
G02*
X160255668Y-116009324I0J-101600D01*
G01*
X160255668Y-116459324D01*
G75*
G02*
X160154068Y-116560924I-101600J0D01*
G01*
X158554068Y-116560924D01*
G75*
G02*
X158452468Y-116459324I0J101600D01*
G01*
X158452468Y-116009324D01*
G75*
G02*
X158554068Y-115907724I101600J0D01*
G01*
G37*
G36*
G01*
X158554068Y-115257724D02*
X160154068Y-115257724D01*
G75*
G02*
X160255668Y-115359324I0J-101600D01*
G01*
X160255668Y-115809324D01*
G75*
G02*
X160154068Y-115910924I-101600J0D01*
G01*
X158554068Y-115910924D01*
G75*
G02*
X158452468Y-115809324I0J101600D01*
G01*
X158452468Y-115359324D01*
G75*
G02*
X158554068Y-115257724I101600J0D01*
G01*
G37*
G36*
G01*
X158554068Y-114607724D02*
X160154068Y-114607724D01*
G75*
G02*
X160255668Y-114709324I0J-101600D01*
G01*
X160255668Y-115159324D01*
G75*
G02*
X160154068Y-115260924I-101600J0D01*
G01*
X158554068Y-115260924D01*
G75*
G02*
X158452468Y-115159324I0J101600D01*
G01*
X158452468Y-114709324D01*
G75*
G02*
X158554068Y-114607724I101600J0D01*
G01*
G37*
G36*
G01*
X158554068Y-113957724D02*
X160154068Y-113957724D01*
G75*
G02*
X160255668Y-114059324I0J-101600D01*
G01*
X160255668Y-114509324D01*
G75*
G02*
X160154068Y-114610924I-101600J0D01*
G01*
X158554068Y-114610924D01*
G75*
G02*
X158452468Y-114509324I0J101600D01*
G01*
X158452468Y-114059324D01*
G75*
G02*
X158554068Y-113957724I101600J0D01*
G01*
G37*
G36*
G01*
X158554068Y-113307724D02*
X160154068Y-113307724D01*
G75*
G02*
X160255668Y-113409324I0J-101600D01*
G01*
X160255668Y-113859324D01*
G75*
G02*
X160154068Y-113960924I-101600J0D01*
G01*
X158554068Y-113960924D01*
G75*
G02*
X158452468Y-113859324I0J101600D01*
G01*
X158452468Y-113409324D01*
G75*
G02*
X158554068Y-113307724I101600J0D01*
G01*
G37*
G36*
G01*
X158554068Y-112657724D02*
X160154068Y-112657724D01*
G75*
G02*
X160255668Y-112759324I0J-101600D01*
G01*
X160255668Y-113209324D01*
G75*
G02*
X160154068Y-113310924I-101600J0D01*
G01*
X158554068Y-113310924D01*
G75*
G02*
X158452468Y-113209324I0J101600D01*
G01*
X158452468Y-112759324D01*
G75*
G02*
X158554068Y-112657724I101600J0D01*
G01*
G37*
G36*
G01*
X158554068Y-112007724D02*
X160154068Y-112007724D01*
G75*
G02*
X160255668Y-112109324I0J-101600D01*
G01*
X160255668Y-112559324D01*
G75*
G02*
X160154068Y-112660924I-101600J0D01*
G01*
X158554068Y-112660924D01*
G75*
G02*
X158452468Y-112559324I0J101600D01*
G01*
X158452468Y-112109324D01*
G75*
G02*
X158554068Y-112007724I101600J0D01*
G01*
G37*
G36*
G01*
X158554068Y-111357724D02*
X160154068Y-111357724D01*
G75*
G02*
X160255668Y-111459324I0J-101600D01*
G01*
X160255668Y-111909324D01*
G75*
G02*
X160154068Y-112010924I-101600J0D01*
G01*
X158554068Y-112010924D01*
G75*
G02*
X158452468Y-111909324I0J101600D01*
G01*
X158452468Y-111459324D01*
G75*
G02*
X158554068Y-111357724I101600J0D01*
G01*
G37*
G36*
G01*
X158554068Y-110707724D02*
X160154068Y-110707724D01*
G75*
G02*
X160255668Y-110809324I0J-101600D01*
G01*
X160255668Y-111259324D01*
G75*
G02*
X160154068Y-111360924I-101600J0D01*
G01*
X158554068Y-111360924D01*
G75*
G02*
X158452468Y-111259324I0J101600D01*
G01*
X158452468Y-110809324D01*
G75*
G02*
X158554068Y-110707724I101600J0D01*
G01*
G37*
G36*
G01*
X158554068Y-110057724D02*
X160154068Y-110057724D01*
G75*
G02*
X160255668Y-110159324I0J-101600D01*
G01*
X160255668Y-110609324D01*
G75*
G02*
X160154068Y-110710924I-101600J0D01*
G01*
X158554068Y-110710924D01*
G75*
G02*
X158452468Y-110609324I0J101600D01*
G01*
X158452468Y-110159324D01*
G75*
G02*
X158554068Y-110057724I101600J0D01*
G01*
G37*
G36*
G01*
X158554068Y-109407724D02*
X160154068Y-109407724D01*
G75*
G02*
X160255668Y-109509324I0J-101600D01*
G01*
X160255668Y-109959324D01*
G75*
G02*
X160154068Y-110060924I-101600J0D01*
G01*
X158554068Y-110060924D01*
G75*
G02*
X158452468Y-109959324I0J101600D01*
G01*
X158452468Y-109509324D01*
G75*
G02*
X158554068Y-109407724I101600J0D01*
G01*
G37*
G36*
G01*
X158554068Y-108757724D02*
X160154068Y-108757724D01*
G75*
G02*
X160255668Y-108859324I0J-101600D01*
G01*
X160255668Y-109309324D01*
G75*
G02*
X160154068Y-109410924I-101600J0D01*
G01*
X158554068Y-109410924D01*
G75*
G02*
X158452468Y-109309324I0J101600D01*
G01*
X158452468Y-108859324D01*
G75*
G02*
X158554068Y-108757724I101600J0D01*
G01*
G37*
G36*
G01*
X158554068Y-108107724D02*
X160154068Y-108107724D01*
G75*
G02*
X160255668Y-108209324I0J-101600D01*
G01*
X160255668Y-108659324D01*
G75*
G02*
X160154068Y-108760924I-101600J0D01*
G01*
X158554068Y-108760924D01*
G75*
G02*
X158452468Y-108659324I0J101600D01*
G01*
X158452468Y-108209324D01*
G75*
G02*
X158554068Y-108107724I101600J0D01*
G01*
G37*
G36*
G01*
X158554068Y-107457724D02*
X160154068Y-107457724D01*
G75*
G02*
X160255668Y-107559324I0J-101600D01*
G01*
X160255668Y-108009324D01*
G75*
G02*
X160154068Y-108110924I-101600J0D01*
G01*
X158554068Y-108110924D01*
G75*
G02*
X158452468Y-108009324I0J101600D01*
G01*
X158452468Y-107559324D01*
G75*
G02*
X158554068Y-107457724I101600J0D01*
G01*
G37*
G36*
G01*
X152454068Y-107457724D02*
X154054068Y-107457724D01*
G75*
G02*
X154155668Y-107559324I0J-101600D01*
G01*
X154155668Y-108009324D01*
G75*
G02*
X154054068Y-108110924I-101600J0D01*
G01*
X152454068Y-108110924D01*
G75*
G02*
X152352468Y-108009324I0J101600D01*
G01*
X152352468Y-107559324D01*
G75*
G02*
X152454068Y-107457724I101600J0D01*
G01*
G37*
G36*
G01*
X152454068Y-108107724D02*
X154054068Y-108107724D01*
G75*
G02*
X154155668Y-108209324I0J-101600D01*
G01*
X154155668Y-108659324D01*
G75*
G02*
X154054068Y-108760924I-101600J0D01*
G01*
X152454068Y-108760924D01*
G75*
G02*
X152352468Y-108659324I0J101600D01*
G01*
X152352468Y-108209324D01*
G75*
G02*
X152454068Y-108107724I101600J0D01*
G01*
G37*
G36*
G01*
X152454068Y-108757724D02*
X154054068Y-108757724D01*
G75*
G02*
X154155668Y-108859324I0J-101600D01*
G01*
X154155668Y-109309324D01*
G75*
G02*
X154054068Y-109410924I-101600J0D01*
G01*
X152454068Y-109410924D01*
G75*
G02*
X152352468Y-109309324I0J101600D01*
G01*
X152352468Y-108859324D01*
G75*
G02*
X152454068Y-108757724I101600J0D01*
G01*
G37*
G36*
G01*
X152454068Y-109407724D02*
X154054068Y-109407724D01*
G75*
G02*
X154155668Y-109509324I0J-101600D01*
G01*
X154155668Y-109959324D01*
G75*
G02*
X154054068Y-110060924I-101600J0D01*
G01*
X152454068Y-110060924D01*
G75*
G02*
X152352468Y-109959324I0J101600D01*
G01*
X152352468Y-109509324D01*
G75*
G02*
X152454068Y-109407724I101600J0D01*
G01*
G37*
G36*
G01*
X152454068Y-110057724D02*
X154054068Y-110057724D01*
G75*
G02*
X154155668Y-110159324I0J-101600D01*
G01*
X154155668Y-110609324D01*
G75*
G02*
X154054068Y-110710924I-101600J0D01*
G01*
X152454068Y-110710924D01*
G75*
G02*
X152352468Y-110609324I0J101600D01*
G01*
X152352468Y-110159324D01*
G75*
G02*
X152454068Y-110057724I101600J0D01*
G01*
G37*
G36*
G01*
X152454068Y-110707724D02*
X154054068Y-110707724D01*
G75*
G02*
X154155668Y-110809324I0J-101600D01*
G01*
X154155668Y-111259324D01*
G75*
G02*
X154054068Y-111360924I-101600J0D01*
G01*
X152454068Y-111360924D01*
G75*
G02*
X152352468Y-111259324I0J101600D01*
G01*
X152352468Y-110809324D01*
G75*
G02*
X152454068Y-110707724I101600J0D01*
G01*
G37*
G36*
G01*
X152454068Y-111357724D02*
X154054068Y-111357724D01*
G75*
G02*
X154155668Y-111459324I0J-101600D01*
G01*
X154155668Y-111909324D01*
G75*
G02*
X154054068Y-112010924I-101600J0D01*
G01*
X152454068Y-112010924D01*
G75*
G02*
X152352468Y-111909324I0J101600D01*
G01*
X152352468Y-111459324D01*
G75*
G02*
X152454068Y-111357724I101600J0D01*
G01*
G37*
G36*
G01*
X152454068Y-112007724D02*
X154054068Y-112007724D01*
G75*
G02*
X154155668Y-112109324I0J-101600D01*
G01*
X154155668Y-112559324D01*
G75*
G02*
X154054068Y-112660924I-101600J0D01*
G01*
X152454068Y-112660924D01*
G75*
G02*
X152352468Y-112559324I0J101600D01*
G01*
X152352468Y-112109324D01*
G75*
G02*
X152454068Y-112007724I101600J0D01*
G01*
G37*
G36*
G01*
X152454068Y-112657724D02*
X154054068Y-112657724D01*
G75*
G02*
X154155668Y-112759324I0J-101600D01*
G01*
X154155668Y-113209324D01*
G75*
G02*
X154054068Y-113310924I-101600J0D01*
G01*
X152454068Y-113310924D01*
G75*
G02*
X152352468Y-113209324I0J101600D01*
G01*
X152352468Y-112759324D01*
G75*
G02*
X152454068Y-112657724I101600J0D01*
G01*
G37*
G36*
G01*
X152454068Y-113307724D02*
X154054068Y-113307724D01*
G75*
G02*
X154155668Y-113409324I0J-101600D01*
G01*
X154155668Y-113859324D01*
G75*
G02*
X154054068Y-113960924I-101600J0D01*
G01*
X152454068Y-113960924D01*
G75*
G02*
X152352468Y-113859324I0J101600D01*
G01*
X152352468Y-113409324D01*
G75*
G02*
X152454068Y-113307724I101600J0D01*
G01*
G37*
G36*
G01*
X152454068Y-113957724D02*
X154054068Y-113957724D01*
G75*
G02*
X154155668Y-114059324I0J-101600D01*
G01*
X154155668Y-114509324D01*
G75*
G02*
X154054068Y-114610924I-101600J0D01*
G01*
X152454068Y-114610924D01*
G75*
G02*
X152352468Y-114509324I0J101600D01*
G01*
X152352468Y-114059324D01*
G75*
G02*
X152454068Y-113957724I101600J0D01*
G01*
G37*
G36*
G01*
X152454068Y-114607724D02*
X154054068Y-114607724D01*
G75*
G02*
X154155668Y-114709324I0J-101600D01*
G01*
X154155668Y-115159324D01*
G75*
G02*
X154054068Y-115260924I-101600J0D01*
G01*
X152454068Y-115260924D01*
G75*
G02*
X152352468Y-115159324I0J101600D01*
G01*
X152352468Y-114709324D01*
G75*
G02*
X152454068Y-114607724I101600J0D01*
G01*
G37*
G36*
G01*
X152454068Y-115257724D02*
X154054068Y-115257724D01*
G75*
G02*
X154155668Y-115359324I0J-101600D01*
G01*
X154155668Y-115809324D01*
G75*
G02*
X154054068Y-115910924I-101600J0D01*
G01*
X152454068Y-115910924D01*
G75*
G02*
X152352468Y-115809324I0J101600D01*
G01*
X152352468Y-115359324D01*
G75*
G02*
X152454068Y-115257724I101600J0D01*
G01*
G37*
G36*
G01*
X152454068Y-115907724D02*
X154054068Y-115907724D01*
G75*
G02*
X154155668Y-116009324I0J-101600D01*
G01*
X154155668Y-116459324D01*
G75*
G02*
X154054068Y-116560924I-101600J0D01*
G01*
X152454068Y-116560924D01*
G75*
G02*
X152352468Y-116459324I0J101600D01*
G01*
X152352468Y-116009324D01*
G75*
G02*
X152454068Y-115907724I101600J0D01*
G01*
G37*
G36*
G01*
X157955668Y-109419324D02*
X157955668Y-114599324D01*
G75*
G02*
X157854068Y-114700924I-101600J0D01*
G01*
X154754068Y-114700924D01*
G75*
G02*
X154652468Y-114599324I0J101600D01*
G01*
X154652468Y-109419324D01*
G75*
G02*
X154754068Y-109317724I101600J0D01*
G01*
X157854068Y-109317724D01*
G75*
G02*
X157955668Y-109419324I0J-101600D01*
G01*
G37*
G36*
G01*
X156655665Y-112009324D02*
X156655665Y-112009324D01*
G75*
G02*
X156304065Y-112360924I-351600J0D01*
G01*
X156304065Y-112360924D01*
G75*
G02*
X155952465Y-112009324I0J351600D01*
G01*
X155952465Y-112009324D01*
G75*
G02*
X156304065Y-111657724I351600J0D01*
G01*
X156304065Y-111657724D01*
G75*
G02*
X156655665Y-112009324I0J-351600D01*
G01*
G37*
%TD*%
%TO.C,G3*%
G36*
G01*
X148914656Y-101304177D02*
X147416056Y-101304177D01*
G75*
G02*
X147314456Y-101202577I0J101600D01*
G01*
X147314456Y-97189377D01*
G75*
G02*
X147416056Y-97087777I101600J0D01*
G01*
X148914656Y-97087777D01*
G75*
G02*
X149016256Y-97189377I0J-101600D01*
G01*
X149016256Y-101202577D01*
G75*
G02*
X148914656Y-101304177I-101600J0D01*
G01*
G37*
G36*
G01*
X148914656Y-92591977D02*
X147416056Y-92591977D01*
G75*
G02*
X147314456Y-92490377I0J101600D01*
G01*
X147314456Y-88477177D01*
G75*
G02*
X147416056Y-88375577I101600J0D01*
G01*
X148914656Y-88375577D01*
G75*
G02*
X149016256Y-88477177I0J-101600D01*
G01*
X149016256Y-92490377D01*
G75*
G02*
X148914656Y-92591977I-101600J0D01*
G01*
G37*
%TD*%
%TO.C,G1*%
G36*
G01*
X166765277Y-115505945D02*
X166765277Y-116805945D01*
G75*
G02*
X166515277Y-117055945I-250000J0D01*
G01*
X165690277Y-117055945D01*
G75*
G02*
X165440277Y-116805945I0J250000D01*
G01*
X165440277Y-115505945D01*
G75*
G02*
X165690277Y-115255945I250000J0D01*
G01*
X166515277Y-115255945D01*
G75*
G02*
X166765277Y-115505945I0J-250000D01*
G01*
G37*
G36*
G01*
X163640277Y-115505945D02*
X163640277Y-116805945D01*
G75*
G02*
X163390277Y-117055945I-250000J0D01*
G01*
X162565277Y-117055945D01*
G75*
G02*
X162315277Y-116805945I0J250000D01*
G01*
X162315277Y-115505945D01*
G75*
G02*
X162565277Y-115255945I250000J0D01*
G01*
X163390277Y-115255945D01*
G75*
G02*
X163640277Y-115505945I0J-250000D01*
G01*
G37*
%TD*%
%TO.C,G11*%
G36*
G01*
X158450000Y-117675000D02*
X159750000Y-117675000D01*
G75*
G02*
X160000000Y-117925000I0J-250000D01*
G01*
X160000000Y-118750000D01*
G75*
G02*
X159750000Y-119000000I-250000J0D01*
G01*
X158450000Y-119000000D01*
G75*
G02*
X158200000Y-118750000I0J250000D01*
G01*
X158200000Y-117925000D01*
G75*
G02*
X158450000Y-117675000I250000J0D01*
G01*
G37*
G36*
G01*
X158450000Y-120800000D02*
X159750000Y-120800000D01*
G75*
G02*
X160000000Y-121050000I0J-250000D01*
G01*
X160000000Y-121875000D01*
G75*
G02*
X159750000Y-122125000I-250000J0D01*
G01*
X158450000Y-122125000D01*
G75*
G02*
X158200000Y-121875000I0J250000D01*
G01*
X158200000Y-121050000D01*
G75*
G02*
X158450000Y-120800000I250000J0D01*
G01*
G37*
%TD*%
%TO.C,G2*%
G36*
G01*
X162110596Y-105509500D02*
X163410596Y-105509500D01*
G75*
G02*
X163660596Y-105759500I0J-250000D01*
G01*
X163660596Y-106584500D01*
G75*
G02*
X163410596Y-106834500I-250000J0D01*
G01*
X162110596Y-106834500D01*
G75*
G02*
X161860596Y-106584500I0J250000D01*
G01*
X161860596Y-105759500D01*
G75*
G02*
X162110596Y-105509500I250000J0D01*
G01*
G37*
G36*
G01*
X162110596Y-108634500D02*
X163410596Y-108634500D01*
G75*
G02*
X163660596Y-108884500I0J-250000D01*
G01*
X163660596Y-109709500D01*
G75*
G02*
X163410596Y-109959500I-250000J0D01*
G01*
X162110596Y-109959500D01*
G75*
G02*
X161860596Y-109709500I0J250000D01*
G01*
X161860596Y-108884500D01*
G75*
G02*
X162110596Y-108634500I250000J0D01*
G01*
G37*
%TD*%
%TO.C,G4*%
G36*
G01*
X166352709Y-122032774D02*
X165052709Y-122032774D01*
G75*
G02*
X164802709Y-121782774I0J250000D01*
G01*
X164802709Y-120957774D01*
G75*
G02*
X165052709Y-120707774I250000J0D01*
G01*
X166352709Y-120707774D01*
G75*
G02*
X166602709Y-120957774I0J-250000D01*
G01*
X166602709Y-121782774D01*
G75*
G02*
X166352709Y-122032774I-250000J0D01*
G01*
G37*
G36*
G01*
X166352709Y-118907774D02*
X165052709Y-118907774D01*
G75*
G02*
X164802709Y-118657774I0J250000D01*
G01*
X164802709Y-117832774D01*
G75*
G02*
X165052709Y-117582774I250000J0D01*
G01*
X166352709Y-117582774D01*
G75*
G02*
X166602709Y-117832774I0J-250000D01*
G01*
X166602709Y-118657774D01*
G75*
G02*
X166352709Y-118907774I-250000J0D01*
G01*
G37*
%TD*%
%TO.C,G5*%
G36*
G01*
X163655324Y-122095780D02*
X162405324Y-122095780D01*
G75*
G02*
X162155324Y-121845780I0J250000D01*
G01*
X162155324Y-121045780D01*
G75*
G02*
X162405324Y-120795780I250000J0D01*
G01*
X163655324Y-120795780D01*
G75*
G02*
X163905324Y-121045780I0J-250000D01*
G01*
X163905324Y-121845780D01*
G75*
G02*
X163655324Y-122095780I-250000J0D01*
G01*
G37*
G36*
G01*
X163655324Y-118995780D02*
X162405324Y-118995780D01*
G75*
G02*
X162155324Y-118745780I0J250000D01*
G01*
X162155324Y-117945780D01*
G75*
G02*
X162405324Y-117695780I250000J0D01*
G01*
X163655324Y-117695780D01*
G75*
G02*
X163905324Y-117945780I0J-250000D01*
G01*
X163905324Y-118745780D01*
G75*
G02*
X163655324Y-118995780I-250000J0D01*
G01*
G37*
%TD*%
%TO.C,G6*%
G36*
G01*
X148825000Y-108601000D02*
X147575000Y-108601000D01*
G75*
G02*
X147325000Y-108351000I0J250000D01*
G01*
X147325000Y-107551000D01*
G75*
G02*
X147575000Y-107301000I250000J0D01*
G01*
X148825000Y-107301000D01*
G75*
G02*
X149075000Y-107551000I0J-250000D01*
G01*
X149075000Y-108351000D01*
G75*
G02*
X148825000Y-108601000I-250000J0D01*
G01*
G37*
G36*
G01*
X148825000Y-105501000D02*
X147575000Y-105501000D01*
G75*
G02*
X147325000Y-105251000I0J250000D01*
G01*
X147325000Y-104451000D01*
G75*
G02*
X147575000Y-104201000I250000J0D01*
G01*
X148825000Y-104201000D01*
G75*
G02*
X149075000Y-104451000I0J-250000D01*
G01*
X149075000Y-105251000D01*
G75*
G02*
X148825000Y-105501000I-250000J0D01*
G01*
G37*
%TD*%
D12*
%TO.C,JP1*%
X165250000Y-81750000D03*
D13*
X165250000Y-84290000D03*
X165250000Y-86830000D03*
%TD*%
D12*
%TO.C,JP2*%
X132080000Y-91440000D03*
D13*
X132080000Y-88900000D03*
X132080000Y-86360000D03*
X132080000Y-83820000D03*
X132080000Y-81280000D03*
%TD*%
D14*
%TO.C,MOTEUR_D1*%
X133933406Y-130010636D03*
X128853406Y-130010636D03*
X133933406Y-125010636D03*
X128853406Y-125010636D03*
%TD*%
%TO.C,MOTEUR_G1*%
X167791606Y-129999205D03*
X162711606Y-129999205D03*
X167791606Y-124999205D03*
X162711606Y-124999205D03*
%TD*%
%TO.C,X1*%
X146430577Y-80577102D03*
X151510577Y-80577102D03*
X146430577Y-85577102D03*
X151510577Y-85577102D03*
%TD*%
D15*
%TO.C,H1*%
X157000000Y-129173545D03*
%TD*%
%TO.C,H3*%
X137000000Y-81000000D03*
%TD*%
%TO.C,H2*%
X157000000Y-81000000D03*
%TD*%
M02*
