%TF.GenerationSoftware,KiCad,Pcbnew,6.0.1*%
%TF.CreationDate,2022-06-20T02:46:21+02:00*%
%TF.ProjectId,PontHComplet_MK2,506f6e74-4843-46f6-9d70-6c65745f4d4b,rev?*%
%TF.SameCoordinates,Original*%
%TF.FileFunction,Paste,Top*%
%TF.FilePolarity,Positive*%
%FSLAX46Y46*%
G04 Gerber Fmt 4.6, Leading zero omitted, Abs format (unit mm)*
G04 Created by KiCad (PCBNEW 6.0.1) date 2022-06-20 02:46:21*
%MOMM*%
%LPD*%
G01*
G04 APERTURE LIST*
%TA.AperFunction,Profile*%
%ADD10C,0.050000*%
%TD*%
%ADD11R,1.260000X0.927500*%
%ADD12R,1.120000X0.315000*%
%ADD13R,2.170000X3.626000*%
%ADD14R,1.049020X2.809240*%
G04 APERTURE END LIST*
D10*
X126000000Y-133000000D02*
X170500000Y-132983704D01*
X170500000Y-132983704D02*
X170500000Y-77000000D01*
X170500000Y-77000000D02*
X126000000Y-77000000D01*
X126000000Y-77000000D02*
X126000000Y-133000000D01*
X125166666Y-135250000D02*
G75*
G03*
X125166666Y-135250000I-1666666J0D01*
G01*
X121000000Y-135250000D02*
X126000000Y-135250000D01*
X123500000Y-132750000D02*
X123500000Y-137750000D01*
X174166666Y-75000000D02*
G75*
G03*
X174166666Y-75000000I-1666666J0D01*
G01*
X170000000Y-75000000D02*
X175000000Y-75000000D01*
X172500000Y-72500000D02*
X172500000Y-77500000D01*
D11*
%TO.C,G8*%
X150750000Y-102625000D03*
X150750000Y-105750000D03*
%TD*%
%TO.C,D1*%
G36*
G01*
X134413174Y-118842530D02*
X133255674Y-118842530D01*
G75*
G02*
X133204424Y-118791280I0J51250D01*
G01*
X133204424Y-117966280D01*
G75*
G02*
X133255674Y-117915030I51250J0D01*
G01*
X134413174Y-117915030D01*
G75*
G02*
X134464424Y-117966280I0J-51250D01*
G01*
X134464424Y-118791280D01*
G75*
G02*
X134413174Y-118842530I-51250J0D01*
G01*
G37*
G36*
G01*
X134413174Y-115717530D02*
X133255674Y-115717530D01*
G75*
G02*
X133204424Y-115666280I0J51250D01*
G01*
X133204424Y-114841280D01*
G75*
G02*
X133255674Y-114790030I51250J0D01*
G01*
X134413174Y-114790030D01*
G75*
G02*
X134464424Y-114841280I0J-51250D01*
G01*
X134464424Y-115666280D01*
G75*
G02*
X134413174Y-115717530I-51250J0D01*
G01*
G37*
%TD*%
%TO.C,D10*%
G36*
G01*
X137828750Y-106776250D02*
X136671250Y-106776250D01*
G75*
G02*
X136620000Y-106725000I0J51250D01*
G01*
X136620000Y-105900000D01*
G75*
G02*
X136671250Y-105848750I51250J0D01*
G01*
X137828750Y-105848750D01*
G75*
G02*
X137880000Y-105900000I0J-51250D01*
G01*
X137880000Y-106725000D01*
G75*
G02*
X137828750Y-106776250I-51250J0D01*
G01*
G37*
G36*
G01*
X137828750Y-103651250D02*
X136671250Y-103651250D01*
G75*
G02*
X136620000Y-103600000I0J51250D01*
G01*
X136620000Y-102775000D01*
G75*
G02*
X136671250Y-102723750I51250J0D01*
G01*
X137828750Y-102723750D01*
G75*
G02*
X137880000Y-102775000I0J-51250D01*
G01*
X137880000Y-103600000D01*
G75*
G02*
X137828750Y-103651250I-51250J0D01*
G01*
G37*
%TD*%
%TO.C,D2*%
G36*
G01*
X129794337Y-108360736D02*
X129794337Y-107203236D01*
G75*
G02*
X129845587Y-107151986I51250J0D01*
G01*
X130670587Y-107151986D01*
G75*
G02*
X130721837Y-107203236I0J-51250D01*
G01*
X130721837Y-108360736D01*
G75*
G02*
X130670587Y-108411986I-51250J0D01*
G01*
X129845587Y-108411986D01*
G75*
G02*
X129794337Y-108360736I0J51250D01*
G01*
G37*
G36*
G01*
X132919337Y-108360736D02*
X132919337Y-107203236D01*
G75*
G02*
X132970587Y-107151986I51250J0D01*
G01*
X133795587Y-107151986D01*
G75*
G02*
X133846837Y-107203236I0J-51250D01*
G01*
X133846837Y-108360736D01*
G75*
G02*
X133795587Y-108411986I-51250J0D01*
G01*
X132970587Y-108411986D01*
G75*
G02*
X132919337Y-108360736I0J51250D01*
G01*
G37*
%TD*%
%TO.C,D3*%
G36*
G01*
X130221250Y-101573750D02*
X131378750Y-101573750D01*
G75*
G02*
X131430000Y-101625000I0J-51250D01*
G01*
X131430000Y-102450000D01*
G75*
G02*
X131378750Y-102501250I-51250J0D01*
G01*
X130221250Y-102501250D01*
G75*
G02*
X130170000Y-102450000I0J51250D01*
G01*
X130170000Y-101625000D01*
G75*
G02*
X130221250Y-101573750I51250J0D01*
G01*
G37*
G36*
G01*
X130221250Y-104698750D02*
X131378750Y-104698750D01*
G75*
G02*
X131430000Y-104750000I0J-51250D01*
G01*
X131430000Y-105575000D01*
G75*
G02*
X131378750Y-105626250I-51250J0D01*
G01*
X130221250Y-105626250D01*
G75*
G02*
X130170000Y-105575000I0J51250D01*
G01*
X130170000Y-104750000D01*
G75*
G02*
X130221250Y-104698750I51250J0D01*
G01*
G37*
%TD*%
%TO.C,D4*%
G36*
G01*
X132742500Y-101595000D02*
X133857500Y-101595000D01*
G75*
G02*
X133912500Y-101650000I0J-55000D01*
G01*
X133912500Y-102450000D01*
G75*
G02*
X133857500Y-102505000I-55000J0D01*
G01*
X132742500Y-102505000D01*
G75*
G02*
X132687500Y-102450000I0J55000D01*
G01*
X132687500Y-101650000D01*
G75*
G02*
X132742500Y-101595000I55000J0D01*
G01*
G37*
G36*
G01*
X132742500Y-104695000D02*
X133857500Y-104695000D01*
G75*
G02*
X133912500Y-104750000I0J-55000D01*
G01*
X133912500Y-105550000D01*
G75*
G02*
X133857500Y-105605000I-55000J0D01*
G01*
X132742500Y-105605000D01*
G75*
G02*
X132687500Y-105550000I0J55000D01*
G01*
X132687500Y-104750000D01*
G75*
G02*
X132742500Y-104695000I55000J0D01*
G01*
G37*
%TD*%
%TO.C,D5*%
G36*
G01*
X146782915Y-118215995D02*
X146782915Y-119330995D01*
G75*
G02*
X146727915Y-119385995I-55000J0D01*
G01*
X145927915Y-119385995D01*
G75*
G02*
X145872915Y-119330995I0J55000D01*
G01*
X145872915Y-118215995D01*
G75*
G02*
X145927915Y-118160995I55000J0D01*
G01*
X146727915Y-118160995D01*
G75*
G02*
X146782915Y-118215995I0J-55000D01*
G01*
G37*
G36*
G01*
X143682915Y-118215995D02*
X143682915Y-119330995D01*
G75*
G02*
X143627915Y-119385995I-55000J0D01*
G01*
X142827915Y-119385995D01*
G75*
G02*
X142772915Y-119330995I0J55000D01*
G01*
X142772915Y-118215995D01*
G75*
G02*
X142827915Y-118160995I55000J0D01*
G01*
X143627915Y-118160995D01*
G75*
G02*
X143682915Y-118215995I0J-55000D01*
G01*
G37*
%TD*%
%TO.C,D8*%
G36*
G01*
X146728762Y-120676149D02*
X146728762Y-121833649D01*
G75*
G02*
X146677512Y-121884899I-51250J0D01*
G01*
X145852512Y-121884899D01*
G75*
G02*
X145801262Y-121833649I0J51250D01*
G01*
X145801262Y-120676149D01*
G75*
G02*
X145852512Y-120624899I51250J0D01*
G01*
X146677512Y-120624899D01*
G75*
G02*
X146728762Y-120676149I0J-51250D01*
G01*
G37*
G36*
G01*
X143603762Y-120676149D02*
X143603762Y-121833649D01*
G75*
G02*
X143552512Y-121884899I-51250J0D01*
G01*
X142727512Y-121884899D01*
G75*
G02*
X142676262Y-121833649I0J51250D01*
G01*
X142676262Y-120676149D01*
G75*
G02*
X142727512Y-120624899I51250J0D01*
G01*
X143552512Y-120624899D01*
G75*
G02*
X143603762Y-120676149I0J-51250D01*
G01*
G37*
%TD*%
D12*
%TO.C,DRIVER_DROIT1*%
X137282356Y-108102483D03*
X137282356Y-108752483D03*
X137282356Y-109402483D03*
X137282356Y-110052483D03*
X137282356Y-110702483D03*
X137282356Y-111352483D03*
X137282356Y-112002483D03*
X137282356Y-112652483D03*
X137282356Y-113302483D03*
X137282356Y-113952483D03*
X137282356Y-114602483D03*
X137282356Y-115252483D03*
X137282356Y-115902483D03*
X137282356Y-116552483D03*
X143382356Y-116552483D03*
X143382356Y-115902483D03*
X143382356Y-115252483D03*
X143382356Y-114602483D03*
X143382356Y-113952483D03*
X143382356Y-113302483D03*
X143382356Y-112652483D03*
X143382356Y-112002483D03*
X143382356Y-111352483D03*
X143382356Y-110702483D03*
X143382356Y-110052483D03*
X143382356Y-109402483D03*
X143382356Y-108752483D03*
X143382356Y-108102483D03*
D13*
X140332356Y-112327483D03*
G36*
G01*
X140157359Y-112327483D02*
X140157359Y-112327483D01*
G75*
G02*
X140332359Y-112152483I175000J0D01*
G01*
X140332359Y-112152483D01*
G75*
G02*
X140507359Y-112327483I0J-175000D01*
G01*
X140507359Y-112327483D01*
G75*
G02*
X140332359Y-112502483I-175000J0D01*
G01*
X140332359Y-112502483D01*
G75*
G02*
X140157359Y-112327483I0J175000D01*
G01*
G37*
%TD*%
D12*
%TO.C,DRIVER_GAUCHE1*%
X159354068Y-116234324D03*
X159354068Y-115584324D03*
X159354068Y-114934324D03*
X159354068Y-114284324D03*
X159354068Y-113634324D03*
X159354068Y-112984324D03*
X159354068Y-112334324D03*
X159354068Y-111684324D03*
X159354068Y-111034324D03*
X159354068Y-110384324D03*
X159354068Y-109734324D03*
X159354068Y-109084324D03*
X159354068Y-108434324D03*
X159354068Y-107784324D03*
X153254068Y-107784324D03*
X153254068Y-108434324D03*
X153254068Y-109084324D03*
X153254068Y-109734324D03*
X153254068Y-110384324D03*
X153254068Y-111034324D03*
X153254068Y-111684324D03*
X153254068Y-112334324D03*
X153254068Y-112984324D03*
X153254068Y-113634324D03*
X153254068Y-114284324D03*
X153254068Y-114934324D03*
X153254068Y-115584324D03*
X153254068Y-116234324D03*
D13*
X156304068Y-112009324D03*
G36*
G01*
X156479065Y-112009324D02*
X156479065Y-112009324D01*
G75*
G02*
X156304065Y-112184324I-175000J0D01*
G01*
X156304065Y-112184324D01*
G75*
G02*
X156129065Y-112009324I0J175000D01*
G01*
X156129065Y-112009324D01*
G75*
G02*
X156304065Y-111834324I175000J0D01*
G01*
X156304065Y-111834324D01*
G75*
G02*
X156479065Y-112009324I0J-175000D01*
G01*
G37*
%TD*%
D14*
%TO.C,G3*%
X148165356Y-99195977D03*
X148165356Y-90483777D03*
%TD*%
%TO.C,G1*%
G36*
G01*
X166566527Y-115577195D02*
X166566527Y-116734695D01*
G75*
G02*
X166515277Y-116785945I-51250J0D01*
G01*
X165690277Y-116785945D01*
G75*
G02*
X165639027Y-116734695I0J51250D01*
G01*
X165639027Y-115577195D01*
G75*
G02*
X165690277Y-115525945I51250J0D01*
G01*
X166515277Y-115525945D01*
G75*
G02*
X166566527Y-115577195I0J-51250D01*
G01*
G37*
G36*
G01*
X163441527Y-115577195D02*
X163441527Y-116734695D01*
G75*
G02*
X163390277Y-116785945I-51250J0D01*
G01*
X162565277Y-116785945D01*
G75*
G02*
X162514027Y-116734695I0J51250D01*
G01*
X162514027Y-115577195D01*
G75*
G02*
X162565277Y-115525945I51250J0D01*
G01*
X163390277Y-115525945D01*
G75*
G02*
X163441527Y-115577195I0J-51250D01*
G01*
G37*
%TD*%
%TO.C,G11*%
G36*
G01*
X158521250Y-117873750D02*
X159678750Y-117873750D01*
G75*
G02*
X159730000Y-117925000I0J-51250D01*
G01*
X159730000Y-118750000D01*
G75*
G02*
X159678750Y-118801250I-51250J0D01*
G01*
X158521250Y-118801250D01*
G75*
G02*
X158470000Y-118750000I0J51250D01*
G01*
X158470000Y-117925000D01*
G75*
G02*
X158521250Y-117873750I51250J0D01*
G01*
G37*
G36*
G01*
X158521250Y-120998750D02*
X159678750Y-120998750D01*
G75*
G02*
X159730000Y-121050000I0J-51250D01*
G01*
X159730000Y-121875000D01*
G75*
G02*
X159678750Y-121926250I-51250J0D01*
G01*
X158521250Y-121926250D01*
G75*
G02*
X158470000Y-121875000I0J51250D01*
G01*
X158470000Y-121050000D01*
G75*
G02*
X158521250Y-120998750I51250J0D01*
G01*
G37*
%TD*%
%TO.C,G2*%
G36*
G01*
X162181846Y-105708250D02*
X163339346Y-105708250D01*
G75*
G02*
X163390596Y-105759500I0J-51250D01*
G01*
X163390596Y-106584500D01*
G75*
G02*
X163339346Y-106635750I-51250J0D01*
G01*
X162181846Y-106635750D01*
G75*
G02*
X162130596Y-106584500I0J51250D01*
G01*
X162130596Y-105759500D01*
G75*
G02*
X162181846Y-105708250I51250J0D01*
G01*
G37*
G36*
G01*
X162181846Y-108833250D02*
X163339346Y-108833250D01*
G75*
G02*
X163390596Y-108884500I0J-51250D01*
G01*
X163390596Y-109709500D01*
G75*
G02*
X163339346Y-109760750I-51250J0D01*
G01*
X162181846Y-109760750D01*
G75*
G02*
X162130596Y-109709500I0J51250D01*
G01*
X162130596Y-108884500D01*
G75*
G02*
X162181846Y-108833250I51250J0D01*
G01*
G37*
%TD*%
%TO.C,G4*%
G36*
G01*
X166281459Y-121834024D02*
X165123959Y-121834024D01*
G75*
G02*
X165072709Y-121782774I0J51250D01*
G01*
X165072709Y-120957774D01*
G75*
G02*
X165123959Y-120906524I51250J0D01*
G01*
X166281459Y-120906524D01*
G75*
G02*
X166332709Y-120957774I0J-51250D01*
G01*
X166332709Y-121782774D01*
G75*
G02*
X166281459Y-121834024I-51250J0D01*
G01*
G37*
G36*
G01*
X166281459Y-118709024D02*
X165123959Y-118709024D01*
G75*
G02*
X165072709Y-118657774I0J51250D01*
G01*
X165072709Y-117832774D01*
G75*
G02*
X165123959Y-117781524I51250J0D01*
G01*
X166281459Y-117781524D01*
G75*
G02*
X166332709Y-117832774I0J-51250D01*
G01*
X166332709Y-118657774D01*
G75*
G02*
X166281459Y-118709024I-51250J0D01*
G01*
G37*
%TD*%
%TO.C,G5*%
G36*
G01*
X163587824Y-121900780D02*
X162472824Y-121900780D01*
G75*
G02*
X162417824Y-121845780I0J55000D01*
G01*
X162417824Y-121045780D01*
G75*
G02*
X162472824Y-120990780I55000J0D01*
G01*
X163587824Y-120990780D01*
G75*
G02*
X163642824Y-121045780I0J-55000D01*
G01*
X163642824Y-121845780D01*
G75*
G02*
X163587824Y-121900780I-55000J0D01*
G01*
G37*
G36*
G01*
X163587824Y-118800780D02*
X162472824Y-118800780D01*
G75*
G02*
X162417824Y-118745780I0J55000D01*
G01*
X162417824Y-117945780D01*
G75*
G02*
X162472824Y-117890780I55000J0D01*
G01*
X163587824Y-117890780D01*
G75*
G02*
X163642824Y-117945780I0J-55000D01*
G01*
X163642824Y-118745780D01*
G75*
G02*
X163587824Y-118800780I-55000J0D01*
G01*
G37*
%TD*%
%TO.C,G6*%
G36*
G01*
X148757500Y-108406000D02*
X147642500Y-108406000D01*
G75*
G02*
X147587500Y-108351000I0J55000D01*
G01*
X147587500Y-107551000D01*
G75*
G02*
X147642500Y-107496000I55000J0D01*
G01*
X148757500Y-107496000D01*
G75*
G02*
X148812500Y-107551000I0J-55000D01*
G01*
X148812500Y-108351000D01*
G75*
G02*
X148757500Y-108406000I-55000J0D01*
G01*
G37*
G36*
G01*
X148757500Y-105306000D02*
X147642500Y-105306000D01*
G75*
G02*
X147587500Y-105251000I0J55000D01*
G01*
X147587500Y-104451000D01*
G75*
G02*
X147642500Y-104396000I55000J0D01*
G01*
X148757500Y-104396000D01*
G75*
G02*
X148812500Y-104451000I0J-55000D01*
G01*
X148812500Y-105251000D01*
G75*
G02*
X148757500Y-105306000I-55000J0D01*
G01*
G37*
%TD*%
M02*
