%TF.GenerationSoftware,KiCad,Pcbnew,5.99.0+really5.1.10+dfsg1-1*%
%TF.CreationDate,2022-06-20T00:45:27+02:00*%
%TF.ProjectId,PontHComplet_MK2,506f6e74-4843-46f6-9d70-6c65745f4d4b,rev?*%
%TF.SameCoordinates,Original*%
%TF.FileFunction,Legend,Top*%
%TF.FilePolarity,Positive*%
%FSLAX46Y46*%
G04 Gerber Fmt 4.6, Leading zero omitted, Abs format (unit mm)*
G04 Created by KiCad (PCBNEW 5.99.0+really5.1.10+dfsg1-1) date 2022-06-20 00:45:27*
%MOMM*%
%LPD*%
G01*
G04 APERTURE LIST*
%ADD10C,0.120000*%
%ADD11C,0.203200*%
%ADD12C,0.152400*%
%ADD13C,0.100000*%
%ADD14C,0.762000*%
%ADD15C,0.150000*%
%ADD16C,0.077216*%
%ADD17C,0.096520*%
%ADD18C,0.076200*%
%ADD19C,0.120650*%
%ADD20C,0.065024*%
G04 APERTURE END LIST*
D10*
%TO.C,G11*%
X160010000Y-119188748D02*
X160010000Y-120611252D01*
X158190000Y-119188748D02*
X158190000Y-120611252D01*
%TO.C,D1*%
X132924424Y-117527532D02*
X132924424Y-116105028D01*
X134744424Y-117527532D02*
X134744424Y-116105028D01*
%TO.C,D2*%
X131109335Y-106871986D02*
X132531839Y-106871986D01*
X131109335Y-108691986D02*
X132531839Y-108691986D01*
%TO.C,D3*%
X131710000Y-102888748D02*
X131710000Y-104311252D01*
X129890000Y-102888748D02*
X129890000Y-104311252D01*
%TO.C,D8*%
X145413764Y-122164899D02*
X143991260Y-122164899D01*
X145413764Y-120344899D02*
X143991260Y-120344899D01*
%TO.C,G1*%
X165251529Y-117065945D02*
X163829025Y-117065945D01*
X165251529Y-115245945D02*
X163829025Y-115245945D01*
%TO.C,G2*%
X163670596Y-106307134D02*
X163670596Y-107729638D01*
X161850596Y-106307134D02*
X161850596Y-107729638D01*
%TO.C,G4*%
X164792709Y-120519026D02*
X164792709Y-119096522D01*
X166612709Y-120519026D02*
X166612709Y-119096522D01*
%TO.C,G8*%
X151510000Y-103288748D02*
X151510000Y-104711252D01*
X149690000Y-103288748D02*
X149690000Y-104711252D01*
%TO.C,D10*%
X136340000Y-105461252D02*
X136340000Y-104038748D01*
X138160000Y-105461252D02*
X138160000Y-104038748D01*
D11*
%TO.C,DRIVER_DROIT1*%
X136623956Y-107425283D02*
X142338956Y-107425283D01*
X138325756Y-117229683D02*
X142338956Y-117229683D01*
%TO.C,DRIVER_GAUCHE1*%
X160012468Y-116911524D02*
X154297468Y-116911524D01*
X158310668Y-107107124D02*
X154297468Y-107107124D01*
D12*
%TO.C,G3*%
X147073156Y-89455077D02*
X142780556Y-89455077D01*
X149257556Y-100224677D02*
X153550156Y-100224677D01*
X142780556Y-100224677D02*
X147073156Y-100224677D01*
X142780556Y-89455077D02*
X142780556Y-100224677D01*
X153550156Y-89455077D02*
X149257556Y-89455077D01*
X153550156Y-100224677D02*
X153550156Y-89455077D01*
X148165356Y-101901077D02*
G75*
G03*
X148165356Y-102053477I0J-76200D01*
G01*
X148165356Y-102053477D02*
G75*
G03*
X148165356Y-101901077I0J76200D01*
G01*
D13*
%TO.C,JP1*%
G36*
X166290465Y-86438205D02*
G01*
X166290465Y-87200205D01*
X167306465Y-87200205D01*
X167306465Y-86438205D01*
X166290465Y-86438205D01*
G37*
G36*
X166290465Y-83898205D02*
G01*
X166290465Y-84660205D01*
X167306465Y-84660205D01*
X167306465Y-83898205D01*
X166290465Y-83898205D01*
G37*
G36*
X166290465Y-81358205D02*
G01*
X166290465Y-82120205D01*
X167306465Y-82120205D01*
X167306465Y-81358205D01*
X166290465Y-81358205D01*
G37*
G36*
X169846465Y-86438205D02*
G01*
X169846465Y-87200205D01*
X170354465Y-87200205D01*
X170354465Y-86438205D01*
X169846465Y-86438205D01*
G37*
G36*
X169846465Y-83898205D02*
G01*
X169846465Y-84660205D01*
X170354465Y-84660205D01*
X170354465Y-83898205D01*
X169846465Y-83898205D01*
G37*
G36*
X169846465Y-81358205D02*
G01*
X169846465Y-82120205D01*
X170354465Y-82120205D01*
X170354465Y-81358205D01*
X169846465Y-81358205D01*
G37*
D14*
X176196465Y-86819205D02*
X170481465Y-86819205D01*
D12*
X169846465Y-88089205D02*
X169846465Y-85549205D01*
X167306465Y-88089205D02*
X169846465Y-88089205D01*
X167306465Y-85549205D02*
X167306465Y-88089205D01*
D14*
X176196465Y-84279205D02*
X170481465Y-84279205D01*
D12*
X169846465Y-85549205D02*
X169846465Y-83009205D01*
X167306465Y-85549205D02*
X169846465Y-85549205D01*
X167306465Y-83009205D02*
X167306465Y-85549205D01*
D14*
X176196465Y-81739205D02*
X170481465Y-81739205D01*
D12*
X169846465Y-80469205D02*
X167306465Y-80469205D01*
X169846465Y-83009205D02*
X169846465Y-80469205D01*
X167306465Y-83009205D02*
X169846465Y-83009205D01*
X167306465Y-80469205D02*
X167306465Y-83009205D01*
D13*
%TO.C,JP2*%
G36*
X131253706Y-80798136D02*
G01*
X131253706Y-80036136D01*
X130237706Y-80036136D01*
X130237706Y-80798136D01*
X131253706Y-80798136D01*
G37*
G36*
X131253706Y-83338136D02*
G01*
X131253706Y-82576136D01*
X130237706Y-82576136D01*
X130237706Y-83338136D01*
X131253706Y-83338136D01*
G37*
G36*
X131253706Y-85878136D02*
G01*
X131253706Y-85116136D01*
X130237706Y-85116136D01*
X130237706Y-85878136D01*
X131253706Y-85878136D01*
G37*
G36*
X131253706Y-88418136D02*
G01*
X131253706Y-87656136D01*
X130237706Y-87656136D01*
X130237706Y-88418136D01*
X131253706Y-88418136D01*
G37*
G36*
X131253706Y-90958136D02*
G01*
X131253706Y-90196136D01*
X130237706Y-90196136D01*
X130237706Y-90958136D01*
X131253706Y-90958136D01*
G37*
G36*
X127697706Y-80798136D02*
G01*
X127697706Y-80036136D01*
X127189706Y-80036136D01*
X127189706Y-80798136D01*
X127697706Y-80798136D01*
G37*
G36*
X127697706Y-83338136D02*
G01*
X127697706Y-82576136D01*
X127189706Y-82576136D01*
X127189706Y-83338136D01*
X127697706Y-83338136D01*
G37*
G36*
X127697706Y-85878136D02*
G01*
X127697706Y-85116136D01*
X127189706Y-85116136D01*
X127189706Y-85878136D01*
X127697706Y-85878136D01*
G37*
G36*
X127697706Y-88418136D02*
G01*
X127697706Y-87656136D01*
X127189706Y-87656136D01*
X127189706Y-88418136D01*
X127697706Y-88418136D01*
G37*
G36*
X127697706Y-90958136D02*
G01*
X127697706Y-90196136D01*
X127189706Y-90196136D01*
X127189706Y-90958136D01*
X127697706Y-90958136D01*
G37*
D14*
X121347706Y-80417136D02*
X127062706Y-80417136D01*
D12*
X127697706Y-79147136D02*
X127697706Y-81687136D01*
X130237706Y-79147136D02*
X127697706Y-79147136D01*
X130237706Y-81687136D02*
X130237706Y-79147136D01*
D14*
X121347706Y-82957136D02*
X127062706Y-82957136D01*
D12*
X127697706Y-81687136D02*
X127697706Y-84227136D01*
X130237706Y-81687136D02*
X127697706Y-81687136D01*
X130237706Y-84227136D02*
X130237706Y-81687136D01*
D14*
X121347706Y-85497136D02*
X127062706Y-85497136D01*
D12*
X127697706Y-84227136D02*
X127697706Y-86767136D01*
X130237706Y-84227136D02*
X127697706Y-84227136D01*
X130237706Y-86767136D02*
X130237706Y-84227136D01*
D14*
X121347706Y-88037136D02*
X127062706Y-88037136D01*
D12*
X127697706Y-86767136D02*
X127697706Y-89307136D01*
X130237706Y-86767136D02*
X127697706Y-86767136D01*
X130237706Y-89307136D02*
X130237706Y-86767136D01*
D14*
X121347706Y-90577136D02*
X127062706Y-90577136D01*
D12*
X127697706Y-91847136D02*
X130237706Y-91847136D01*
X127697706Y-89307136D02*
X127697706Y-91847136D01*
X130237706Y-89307136D02*
X127697706Y-89307136D01*
X130237706Y-91847136D02*
X130237706Y-89307136D01*
D11*
%TO.C,MOTEUR_D1*%
X137083406Y-132660636D02*
X124673406Y-132660636D01*
X133308406Y-137585636D02*
X129474406Y-137585636D01*
X131253406Y-137560636D02*
X131253406Y-123810636D01*
X131453406Y-137560636D02*
X131453406Y-123810636D01*
X126173406Y-137560636D02*
X126173406Y-123810636D01*
X128228406Y-137585636D02*
X124648406Y-137585636D01*
X128253406Y-136710636D02*
X128253406Y-139360636D01*
X129453406Y-136710636D02*
X128253406Y-136710636D01*
X129453406Y-139360636D02*
X129453406Y-136710636D01*
X127503406Y-141360636D02*
X130203406Y-141360636D01*
X127503406Y-139860636D02*
X127503406Y-141360636D01*
X130203406Y-139860636D02*
X127503406Y-139860636D01*
X130203406Y-141360636D02*
X130203406Y-139860636D01*
X124973406Y-137060636D02*
X124973406Y-136060636D01*
X124623406Y-137060636D02*
X124973406Y-137060636D01*
X126373406Y-137560636D02*
X126373406Y-123810636D01*
X126553406Y-141860636D02*
X131153406Y-141860636D01*
X126553406Y-139360636D02*
X126553406Y-141860636D01*
X128253406Y-139360636D02*
X126553406Y-139360636D01*
X129453406Y-139360636D02*
X128253406Y-139360636D01*
X131153406Y-139360636D02*
X129453406Y-139360636D01*
X131153406Y-141860636D02*
X131153406Y-139360636D01*
X124623406Y-137060636D02*
X124623406Y-137560636D01*
X124973406Y-124660636D02*
X124623406Y-124660636D01*
X124973406Y-125660636D02*
X124973406Y-124660636D01*
X124623406Y-125660636D02*
X124973406Y-125660636D01*
X124973406Y-127660636D02*
X124623406Y-127660636D01*
X124973406Y-129460636D02*
X124973406Y-127660636D01*
X124623406Y-129460636D02*
X124973406Y-129460636D01*
X124973406Y-136060636D02*
X124623406Y-136060636D01*
X126323406Y-126360636D02*
X124623406Y-126360636D01*
X124623406Y-129460636D02*
X124623406Y-136060636D01*
X124623406Y-126360636D02*
X124623406Y-127660636D01*
X124623406Y-125660636D02*
X124623406Y-126360636D01*
X124623406Y-123810636D02*
X124623406Y-124660636D01*
X126373406Y-123810636D02*
X124623406Y-123810636D01*
X136483406Y-137560636D02*
X136483406Y-123810636D01*
X137133406Y-137585636D02*
X134558406Y-137585636D01*
X133333406Y-136710636D02*
X133333406Y-139360636D01*
X134533406Y-136710636D02*
X133333406Y-136710636D01*
X134533406Y-139360636D02*
X134533406Y-136710636D01*
X132583406Y-141360636D02*
X135283406Y-141360636D01*
X132583406Y-139860636D02*
X132583406Y-141360636D01*
X135283406Y-139860636D02*
X132583406Y-139860636D01*
X135283406Y-141360636D02*
X135283406Y-139860636D01*
X131633406Y-141860636D02*
X136233406Y-141860636D01*
X131633406Y-139360636D02*
X131633406Y-141860636D01*
X133333406Y-139360636D02*
X131633406Y-139360636D01*
X134533406Y-139360636D02*
X133333406Y-139360636D01*
X136233406Y-139360636D02*
X134533406Y-139360636D01*
X136233406Y-141860636D02*
X136233406Y-139360636D01*
X136283406Y-137560636D02*
X136283406Y-123810636D01*
X137483406Y-137060636D02*
X137483406Y-136060636D01*
X137133406Y-137060636D02*
X137483406Y-137060636D01*
X137133406Y-137585636D02*
X137133406Y-137060636D01*
X137133406Y-126360636D02*
X136433406Y-126360636D01*
X136483406Y-123810636D02*
X136283406Y-123810636D01*
X137133406Y-123810636D02*
X136483406Y-123810636D01*
X137133406Y-124660636D02*
X137133406Y-123810636D01*
X137483406Y-124660636D02*
X137133406Y-124660636D01*
X137483406Y-125660636D02*
X137483406Y-124660636D01*
X137133406Y-125660636D02*
X137483406Y-125660636D01*
X137133406Y-127660636D02*
X137133406Y-125660636D01*
X137483406Y-127660636D02*
X137133406Y-127660636D01*
X137483406Y-129460636D02*
X137483406Y-127660636D01*
X137133406Y-129460636D02*
X137483406Y-129460636D01*
X137133406Y-136060636D02*
X137133406Y-129460636D01*
X137483406Y-136060636D02*
X137133406Y-136060636D01*
%TO.C,MOTEUR_G1*%
X170941606Y-132649205D02*
X158531606Y-132649205D01*
X167166606Y-137574205D02*
X163332606Y-137574205D01*
X165111606Y-137549205D02*
X165111606Y-123799205D01*
X165311606Y-137549205D02*
X165311606Y-123799205D01*
X160031606Y-137549205D02*
X160031606Y-123799205D01*
X162086606Y-137574205D02*
X158506606Y-137574205D01*
X162111606Y-136699205D02*
X162111606Y-139349205D01*
X163311606Y-136699205D02*
X162111606Y-136699205D01*
X163311606Y-139349205D02*
X163311606Y-136699205D01*
X161361606Y-141349205D02*
X164061606Y-141349205D01*
X161361606Y-139849205D02*
X161361606Y-141349205D01*
X164061606Y-139849205D02*
X161361606Y-139849205D01*
X164061606Y-141349205D02*
X164061606Y-139849205D01*
X158831606Y-137049205D02*
X158831606Y-136049205D01*
X158481606Y-137049205D02*
X158831606Y-137049205D01*
X160231606Y-137549205D02*
X160231606Y-123799205D01*
X160411606Y-141849205D02*
X165011606Y-141849205D01*
X160411606Y-139349205D02*
X160411606Y-141849205D01*
X162111606Y-139349205D02*
X160411606Y-139349205D01*
X163311606Y-139349205D02*
X162111606Y-139349205D01*
X165011606Y-139349205D02*
X163311606Y-139349205D01*
X165011606Y-141849205D02*
X165011606Y-139349205D01*
X158481606Y-137049205D02*
X158481606Y-137549205D01*
X158831606Y-124649205D02*
X158481606Y-124649205D01*
X158831606Y-125649205D02*
X158831606Y-124649205D01*
X158481606Y-125649205D02*
X158831606Y-125649205D01*
X158831606Y-127649205D02*
X158481606Y-127649205D01*
X158831606Y-129449205D02*
X158831606Y-127649205D01*
X158481606Y-129449205D02*
X158831606Y-129449205D01*
X158831606Y-136049205D02*
X158481606Y-136049205D01*
X160181606Y-126349205D02*
X158481606Y-126349205D01*
X158481606Y-129449205D02*
X158481606Y-136049205D01*
X158481606Y-126349205D02*
X158481606Y-127649205D01*
X158481606Y-125649205D02*
X158481606Y-126349205D01*
X158481606Y-123799205D02*
X158481606Y-124649205D01*
X160231606Y-123799205D02*
X158481606Y-123799205D01*
X170341606Y-137549205D02*
X170341606Y-123799205D01*
X170991606Y-137574205D02*
X168416606Y-137574205D01*
X167191606Y-136699205D02*
X167191606Y-139349205D01*
X168391606Y-136699205D02*
X167191606Y-136699205D01*
X168391606Y-139349205D02*
X168391606Y-136699205D01*
X166441606Y-141349205D02*
X169141606Y-141349205D01*
X166441606Y-139849205D02*
X166441606Y-141349205D01*
X169141606Y-139849205D02*
X166441606Y-139849205D01*
X169141606Y-141349205D02*
X169141606Y-139849205D01*
X165491606Y-141849205D02*
X170091606Y-141849205D01*
X165491606Y-139349205D02*
X165491606Y-141849205D01*
X167191606Y-139349205D02*
X165491606Y-139349205D01*
X168391606Y-139349205D02*
X167191606Y-139349205D01*
X170091606Y-139349205D02*
X168391606Y-139349205D01*
X170091606Y-141849205D02*
X170091606Y-139349205D01*
X170141606Y-137549205D02*
X170141606Y-123799205D01*
X171341606Y-137049205D02*
X171341606Y-136049205D01*
X170991606Y-137049205D02*
X171341606Y-137049205D01*
X170991606Y-137574205D02*
X170991606Y-137049205D01*
X170991606Y-126349205D02*
X170291606Y-126349205D01*
X170341606Y-123799205D02*
X170141606Y-123799205D01*
X170991606Y-123799205D02*
X170341606Y-123799205D01*
X170991606Y-124649205D02*
X170991606Y-123799205D01*
X171341606Y-124649205D02*
X170991606Y-124649205D01*
X171341606Y-125649205D02*
X171341606Y-124649205D01*
X170991606Y-125649205D02*
X171341606Y-125649205D01*
X170991606Y-127649205D02*
X170991606Y-125649205D01*
X171341606Y-127649205D02*
X170991606Y-127649205D01*
X171341606Y-129449205D02*
X171341606Y-127649205D01*
X170991606Y-129449205D02*
X171341606Y-129449205D01*
X170991606Y-136049205D02*
X170991606Y-129449205D01*
X171341606Y-136049205D02*
X170991606Y-136049205D01*
%TO.C,X1*%
X143280577Y-77927102D02*
X155690577Y-77927102D01*
X147055577Y-73002102D02*
X150889577Y-73002102D01*
X149110577Y-73027102D02*
X149110577Y-86777102D01*
X148910577Y-73027102D02*
X148910577Y-86777102D01*
X154190577Y-73027102D02*
X154190577Y-86777102D01*
X152135577Y-73002102D02*
X155715577Y-73002102D01*
X152110577Y-73877102D02*
X152110577Y-71227102D01*
X150910577Y-73877102D02*
X152110577Y-73877102D01*
X150910577Y-71227102D02*
X150910577Y-73877102D01*
X152860577Y-69227102D02*
X150160577Y-69227102D01*
X152860577Y-70727102D02*
X152860577Y-69227102D01*
X150160577Y-70727102D02*
X152860577Y-70727102D01*
X150160577Y-69227102D02*
X150160577Y-70727102D01*
X155390577Y-73527102D02*
X155390577Y-74527102D01*
X155740577Y-73527102D02*
X155390577Y-73527102D01*
X153990577Y-73027102D02*
X153990577Y-86777102D01*
X153810577Y-68727102D02*
X149210577Y-68727102D01*
X153810577Y-71227102D02*
X153810577Y-68727102D01*
X152110577Y-71227102D02*
X153810577Y-71227102D01*
X150910577Y-71227102D02*
X152110577Y-71227102D01*
X149210577Y-71227102D02*
X150910577Y-71227102D01*
X149210577Y-68727102D02*
X149210577Y-71227102D01*
X155740577Y-73527102D02*
X155740577Y-73027102D01*
X155390577Y-85927102D02*
X155740577Y-85927102D01*
X155390577Y-84927102D02*
X155390577Y-85927102D01*
X155740577Y-84927102D02*
X155390577Y-84927102D01*
X155390577Y-82927102D02*
X155740577Y-82927102D01*
X155390577Y-81127102D02*
X155390577Y-82927102D01*
X155740577Y-81127102D02*
X155390577Y-81127102D01*
X155390577Y-74527102D02*
X155740577Y-74527102D01*
X154040577Y-84227102D02*
X155740577Y-84227102D01*
X155740577Y-81127102D02*
X155740577Y-74527102D01*
X155740577Y-84227102D02*
X155740577Y-82927102D01*
X155740577Y-84927102D02*
X155740577Y-84227102D01*
X155740577Y-86777102D02*
X155740577Y-85927102D01*
X153990577Y-86777102D02*
X155740577Y-86777102D01*
X143880577Y-73027102D02*
X143880577Y-86777102D01*
X143230577Y-73002102D02*
X145805577Y-73002102D01*
X147030577Y-73877102D02*
X147030577Y-71227102D01*
X145830577Y-73877102D02*
X147030577Y-73877102D01*
X145830577Y-71227102D02*
X145830577Y-73877102D01*
X147780577Y-69227102D02*
X145080577Y-69227102D01*
X147780577Y-70727102D02*
X147780577Y-69227102D01*
X145080577Y-70727102D02*
X147780577Y-70727102D01*
X145080577Y-69227102D02*
X145080577Y-70727102D01*
X148730577Y-68727102D02*
X144130577Y-68727102D01*
X148730577Y-71227102D02*
X148730577Y-68727102D01*
X147030577Y-71227102D02*
X148730577Y-71227102D01*
X145830577Y-71227102D02*
X147030577Y-71227102D01*
X144130577Y-71227102D02*
X145830577Y-71227102D01*
X144130577Y-68727102D02*
X144130577Y-71227102D01*
X144080577Y-73027102D02*
X144080577Y-86777102D01*
X142880577Y-73527102D02*
X142880577Y-74527102D01*
X143230577Y-73527102D02*
X142880577Y-73527102D01*
X143230577Y-73002102D02*
X143230577Y-73527102D01*
X143230577Y-84227102D02*
X143930577Y-84227102D01*
X143880577Y-86777102D02*
X144080577Y-86777102D01*
X143230577Y-86777102D02*
X143880577Y-86777102D01*
X143230577Y-85927102D02*
X143230577Y-86777102D01*
X142880577Y-85927102D02*
X143230577Y-85927102D01*
X142880577Y-84927102D02*
X142880577Y-85927102D01*
X143230577Y-84927102D02*
X142880577Y-84927102D01*
X143230577Y-82927102D02*
X143230577Y-84927102D01*
X142880577Y-82927102D02*
X143230577Y-82927102D01*
X142880577Y-81127102D02*
X142880577Y-82927102D01*
X143230577Y-81127102D02*
X142880577Y-81127102D01*
X143230577Y-74527102D02*
X143230577Y-81127102D01*
X142880577Y-74527102D02*
X143230577Y-74527102D01*
%TO.C,H1*%
X158500000Y-129173545D02*
G75*
G03*
X158500000Y-129173545I-1500000J0D01*
G01*
D12*
X159921000Y-129173545D02*
G75*
G03*
X159921000Y-129173545I-2921000J0D01*
G01*
D11*
%TO.C,H3*%
X138500000Y-81000000D02*
G75*
G03*
X138500000Y-81000000I-1500000J0D01*
G01*
D12*
X139921000Y-81000000D02*
G75*
G03*
X139921000Y-81000000I-2921000J0D01*
G01*
%TO.C,G11*%
D15*
X160450000Y-120590476D02*
X160402380Y-120685714D01*
X160402380Y-120828571D01*
X160450000Y-120971428D01*
X160545238Y-121066666D01*
X160640476Y-121114285D01*
X160830952Y-121161904D01*
X160973809Y-121161904D01*
X161164285Y-121114285D01*
X161259523Y-121066666D01*
X161354761Y-120971428D01*
X161402380Y-120828571D01*
X161402380Y-120733333D01*
X161354761Y-120590476D01*
X161307142Y-120542857D01*
X160973809Y-120542857D01*
X160973809Y-120733333D01*
X161402380Y-119590476D02*
X161402380Y-120161904D01*
X161402380Y-119876190D02*
X160402380Y-119876190D01*
X160545238Y-119971428D01*
X160640476Y-120066666D01*
X160688095Y-120161904D01*
X161402380Y-118638095D02*
X161402380Y-119209523D01*
X161402380Y-118923809D02*
X160402380Y-118923809D01*
X160545238Y-119019047D01*
X160640476Y-119114285D01*
X160688095Y-119209523D01*
%TO.C,D1*%
X132436804Y-117554375D02*
X131436804Y-117554375D01*
X131436804Y-117316280D01*
X131484424Y-117173422D01*
X131579662Y-117078184D01*
X131674900Y-117030565D01*
X131865376Y-116982946D01*
X132008233Y-116982946D01*
X132198709Y-117030565D01*
X132293947Y-117078184D01*
X132389185Y-117173422D01*
X132436804Y-117316280D01*
X132436804Y-117554375D01*
X132436804Y-116030565D02*
X132436804Y-116601994D01*
X132436804Y-116316280D02*
X131436804Y-116316280D01*
X131579662Y-116411518D01*
X131674900Y-116506756D01*
X131722519Y-116601994D01*
%TO.C,D2*%
X131082491Y-106384366D02*
X131082491Y-105384366D01*
X131320587Y-105384366D01*
X131463444Y-105431986D01*
X131558682Y-105527224D01*
X131606301Y-105622462D01*
X131653920Y-105812938D01*
X131653920Y-105955795D01*
X131606301Y-106146271D01*
X131558682Y-106241509D01*
X131463444Y-106336747D01*
X131320587Y-106384366D01*
X131082491Y-106384366D01*
X132034872Y-105479605D02*
X132082491Y-105431986D01*
X132177729Y-105384366D01*
X132415825Y-105384366D01*
X132511063Y-105431986D01*
X132558682Y-105479605D01*
X132606301Y-105574843D01*
X132606301Y-105670081D01*
X132558682Y-105812938D01*
X131987253Y-106384366D01*
X132606301Y-106384366D01*
%TO.C,D3*%
X133102380Y-104338095D02*
X132102380Y-104338095D01*
X132102380Y-104100000D01*
X132150000Y-103957142D01*
X132245238Y-103861904D01*
X132340476Y-103814285D01*
X132530952Y-103766666D01*
X132673809Y-103766666D01*
X132864285Y-103814285D01*
X132959523Y-103861904D01*
X133054761Y-103957142D01*
X133102380Y-104100000D01*
X133102380Y-104338095D01*
X132102380Y-103433333D02*
X132102380Y-102814285D01*
X132483333Y-103147619D01*
X132483333Y-103004761D01*
X132530952Y-102909523D01*
X132578571Y-102861904D01*
X132673809Y-102814285D01*
X132911904Y-102814285D01*
X133007142Y-102861904D01*
X133054761Y-102909523D01*
X133102380Y-103004761D01*
X133102380Y-103290476D01*
X133054761Y-103385714D01*
X133007142Y-103433333D01*
%TO.C,D8*%
X143964416Y-123557279D02*
X143964416Y-122557279D01*
X144202512Y-122557279D01*
X144345369Y-122604899D01*
X144440607Y-122700137D01*
X144488226Y-122795375D01*
X144535845Y-122985851D01*
X144535845Y-123128708D01*
X144488226Y-123319184D01*
X144440607Y-123414422D01*
X144345369Y-123509660D01*
X144202512Y-123557279D01*
X143964416Y-123557279D01*
X145107273Y-122985851D02*
X145012035Y-122938232D01*
X144964416Y-122890613D01*
X144916797Y-122795375D01*
X144916797Y-122747756D01*
X144964416Y-122652518D01*
X145012035Y-122604899D01*
X145107273Y-122557279D01*
X145297750Y-122557279D01*
X145392988Y-122604899D01*
X145440607Y-122652518D01*
X145488226Y-122747756D01*
X145488226Y-122795375D01*
X145440607Y-122890613D01*
X145392988Y-122938232D01*
X145297750Y-122985851D01*
X145107273Y-122985851D01*
X145012035Y-123033470D01*
X144964416Y-123081089D01*
X144916797Y-123176327D01*
X144916797Y-123366803D01*
X144964416Y-123462041D01*
X145012035Y-123509660D01*
X145107273Y-123557279D01*
X145297750Y-123557279D01*
X145392988Y-123509660D01*
X145440607Y-123462041D01*
X145488226Y-123366803D01*
X145488226Y-123176327D01*
X145440607Y-123081089D01*
X145392988Y-123033470D01*
X145297750Y-122985851D01*
%TO.C,G1*%
X164325991Y-117505945D02*
X164230753Y-117458325D01*
X164087896Y-117458325D01*
X163945038Y-117505945D01*
X163849800Y-117601183D01*
X163802181Y-117696421D01*
X163754562Y-117886897D01*
X163754562Y-118029754D01*
X163802181Y-118220230D01*
X163849800Y-118315468D01*
X163945038Y-118410706D01*
X164087896Y-118458325D01*
X164183134Y-118458325D01*
X164325991Y-118410706D01*
X164373610Y-118363087D01*
X164373610Y-118029754D01*
X164183134Y-118029754D01*
X165325991Y-118458325D02*
X164754562Y-118458325D01*
X165040277Y-118458325D02*
X165040277Y-117458325D01*
X164945038Y-117601183D01*
X164849800Y-117696421D01*
X164754562Y-117744040D01*
%TO.C,G2*%
X164110596Y-107232671D02*
X164062976Y-107327909D01*
X164062976Y-107470766D01*
X164110596Y-107613624D01*
X164205834Y-107708862D01*
X164301072Y-107756481D01*
X164491548Y-107804100D01*
X164634405Y-107804100D01*
X164824881Y-107756481D01*
X164920119Y-107708862D01*
X165015357Y-107613624D01*
X165062976Y-107470766D01*
X165062976Y-107375528D01*
X165015357Y-107232671D01*
X164967738Y-107185052D01*
X164634405Y-107185052D01*
X164634405Y-107375528D01*
X164158215Y-106804100D02*
X164110596Y-106756481D01*
X164062976Y-106661243D01*
X164062976Y-106423147D01*
X164110596Y-106327909D01*
X164158215Y-106280290D01*
X164253453Y-106232671D01*
X164348691Y-106232671D01*
X164491548Y-106280290D01*
X165062976Y-106851719D01*
X165062976Y-106232671D01*
%TO.C,G4*%
X163352709Y-120022059D02*
X163305089Y-120117297D01*
X163305089Y-120260154D01*
X163352709Y-120403012D01*
X163447947Y-120498250D01*
X163543185Y-120545869D01*
X163733661Y-120593488D01*
X163876518Y-120593488D01*
X164066994Y-120545869D01*
X164162232Y-120498250D01*
X164257470Y-120403012D01*
X164305089Y-120260154D01*
X164305089Y-120164916D01*
X164257470Y-120022059D01*
X164209851Y-119974440D01*
X163876518Y-119974440D01*
X163876518Y-120164916D01*
X163638423Y-119117297D02*
X164305089Y-119117297D01*
X163257470Y-119355393D02*
X163971756Y-119593488D01*
X163971756Y-118974440D01*
%TO.C,G8*%
X151950000Y-104214285D02*
X151902380Y-104309523D01*
X151902380Y-104452380D01*
X151950000Y-104595238D01*
X152045238Y-104690476D01*
X152140476Y-104738095D01*
X152330952Y-104785714D01*
X152473809Y-104785714D01*
X152664285Y-104738095D01*
X152759523Y-104690476D01*
X152854761Y-104595238D01*
X152902380Y-104452380D01*
X152902380Y-104357142D01*
X152854761Y-104214285D01*
X152807142Y-104166666D01*
X152473809Y-104166666D01*
X152473809Y-104357142D01*
X152330952Y-103595238D02*
X152283333Y-103690476D01*
X152235714Y-103738095D01*
X152140476Y-103785714D01*
X152092857Y-103785714D01*
X151997619Y-103738095D01*
X151950000Y-103690476D01*
X151902380Y-103595238D01*
X151902380Y-103404761D01*
X151950000Y-103309523D01*
X151997619Y-103261904D01*
X152092857Y-103214285D01*
X152140476Y-103214285D01*
X152235714Y-103261904D01*
X152283333Y-103309523D01*
X152330952Y-103404761D01*
X152330952Y-103595238D01*
X152378571Y-103690476D01*
X152426190Y-103738095D01*
X152521428Y-103785714D01*
X152711904Y-103785714D01*
X152807142Y-103738095D01*
X152854761Y-103690476D01*
X152902380Y-103595238D01*
X152902380Y-103404761D01*
X152854761Y-103309523D01*
X152807142Y-103261904D01*
X152711904Y-103214285D01*
X152521428Y-103214285D01*
X152426190Y-103261904D01*
X152378571Y-103309523D01*
X152330952Y-103404761D01*
%TO.C,D10*%
D16*
X136104038Y-106070000D02*
X135138838Y-106070000D01*
X135138838Y-105840190D01*
X135184800Y-105702304D01*
X135276723Y-105610381D01*
X135368647Y-105564419D01*
X135552495Y-105518457D01*
X135690380Y-105518457D01*
X135874228Y-105564419D01*
X135966152Y-105610381D01*
X136058076Y-105702304D01*
X136104038Y-105840190D01*
X136104038Y-106070000D01*
X136104038Y-104599219D02*
X136104038Y-105150761D01*
X136104038Y-104874990D02*
X135138838Y-104874990D01*
X135276723Y-104966914D01*
X135368647Y-105058838D01*
X135414609Y-105150761D01*
X135138838Y-104001714D02*
X135138838Y-103909790D01*
X135184800Y-103817866D01*
X135230761Y-103771904D01*
X135322685Y-103725942D01*
X135506533Y-103679981D01*
X135736342Y-103679981D01*
X135920190Y-103725942D01*
X136012114Y-103771904D01*
X136058076Y-103817866D01*
X136104038Y-103909790D01*
X136104038Y-104001714D01*
X136058076Y-104093638D01*
X136012114Y-104139600D01*
X135920190Y-104185561D01*
X135736342Y-104231523D01*
X135506533Y-104231523D01*
X135322685Y-104185561D01*
X135230761Y-104139600D01*
X135184800Y-104093638D01*
X135138838Y-104001714D01*
%TO.C,D4*%
D17*
X134512547Y-101345000D02*
X133306047Y-101345000D01*
X133306047Y-101057738D01*
X133363500Y-100885381D01*
X133478404Y-100770476D01*
X133593309Y-100713023D01*
X133823119Y-100655571D01*
X133995476Y-100655571D01*
X134225285Y-100713023D01*
X134340190Y-100770476D01*
X134455095Y-100885381D01*
X134512547Y-101057738D01*
X134512547Y-101345000D01*
X133708214Y-99621428D02*
X134512547Y-99621428D01*
X133248595Y-99908690D02*
X134110380Y-100195952D01*
X134110380Y-99449071D01*
%TO.C,D5*%
X147032914Y-119986042D02*
X147032914Y-118779542D01*
X147320176Y-118779542D01*
X147492533Y-118836995D01*
X147607438Y-118951899D01*
X147664891Y-119066804D01*
X147722343Y-119296614D01*
X147722343Y-119468971D01*
X147664891Y-119698780D01*
X147607438Y-119813685D01*
X147492533Y-119928590D01*
X147320176Y-119986042D01*
X147032914Y-119986042D01*
X148813938Y-118779542D02*
X148239414Y-118779542D01*
X148181962Y-119354066D01*
X148239414Y-119296614D01*
X148354319Y-119239161D01*
X148641581Y-119239161D01*
X148756486Y-119296614D01*
X148813938Y-119354066D01*
X148871391Y-119468971D01*
X148871391Y-119756233D01*
X148813938Y-119871137D01*
X148756486Y-119928590D01*
X148641581Y-119986042D01*
X148354319Y-119986042D01*
X148239414Y-119928590D01*
X148181962Y-119871137D01*
%TO.C,DRIVER_DROIT1*%
D18*
X138941947Y-112100697D02*
X139861186Y-112445411D01*
X138941947Y-112790125D01*
X140263352Y-111698530D02*
X140665519Y-112905030D01*
X141067686Y-111698530D01*
X141986924Y-112905030D02*
X141986924Y-112273054D01*
X141929471Y-112158149D01*
X141814566Y-112100697D01*
X141584757Y-112100697D01*
X141469852Y-112158149D01*
X141986924Y-112847578D02*
X141872019Y-112905030D01*
X141584757Y-112905030D01*
X141469852Y-112847578D01*
X141412400Y-112732673D01*
X141412400Y-112617768D01*
X141469852Y-112502863D01*
X141584757Y-112445411D01*
X141872019Y-112445411D01*
X141986924Y-112387959D01*
X142733805Y-112905030D02*
X142618900Y-112847578D01*
X142561447Y-112732673D01*
X142561447Y-111698530D01*
X143710495Y-112100697D02*
X143710495Y-112905030D01*
X143193424Y-112100697D02*
X143193424Y-112732673D01*
X143250876Y-112847578D01*
X143365781Y-112905030D01*
X143538138Y-112905030D01*
X143653043Y-112847578D01*
X143710495Y-112790125D01*
X144744638Y-112847578D02*
X144629733Y-112905030D01*
X144399924Y-112905030D01*
X144285019Y-112847578D01*
X144227566Y-112732673D01*
X144227566Y-112273054D01*
X144285019Y-112158149D01*
X144399924Y-112100697D01*
X144629733Y-112100697D01*
X144744638Y-112158149D01*
X144802090Y-112273054D01*
X144802090Y-112387959D01*
X144227566Y-112502863D01*
X136401947Y-106428030D02*
X136401947Y-105221530D01*
X136689209Y-105221530D01*
X136861566Y-105278983D01*
X136976471Y-105393887D01*
X137033924Y-105508792D01*
X137091376Y-105738602D01*
X137091376Y-105910959D01*
X137033924Y-106140768D01*
X136976471Y-106255673D01*
X136861566Y-106370578D01*
X136689209Y-106428030D01*
X136401947Y-106428030D01*
X138068066Y-106370578D02*
X137953162Y-106428030D01*
X137723352Y-106428030D01*
X137608447Y-106370578D01*
X137550995Y-106255673D01*
X137550995Y-105796054D01*
X137608447Y-105681149D01*
X137723352Y-105623697D01*
X137953162Y-105623697D01*
X138068066Y-105681149D01*
X138125519Y-105796054D01*
X138125519Y-105910959D01*
X137550995Y-106025863D01*
X138585138Y-106370578D02*
X138700043Y-106428030D01*
X138929852Y-106428030D01*
X139044757Y-106370578D01*
X139102209Y-106255673D01*
X139102209Y-106198221D01*
X139044757Y-106083316D01*
X138929852Y-106025863D01*
X138757495Y-106025863D01*
X138642590Y-105968411D01*
X138585138Y-105853506D01*
X138585138Y-105796054D01*
X138642590Y-105681149D01*
X138757495Y-105623697D01*
X138929852Y-105623697D01*
X139044757Y-105681149D01*
X139619281Y-106428030D02*
X139619281Y-105623697D01*
X139619281Y-105221530D02*
X139561828Y-105278983D01*
X139619281Y-105336435D01*
X139676733Y-105278983D01*
X139619281Y-105221530D01*
X139619281Y-105336435D01*
X140710876Y-105623697D02*
X140710876Y-106600387D01*
X140653424Y-106715292D01*
X140595971Y-106772744D01*
X140481066Y-106830197D01*
X140308709Y-106830197D01*
X140193805Y-106772744D01*
X140710876Y-106370578D02*
X140595971Y-106428030D01*
X140366162Y-106428030D01*
X140251257Y-106370578D01*
X140193805Y-106313125D01*
X140136352Y-106198221D01*
X140136352Y-105853506D01*
X140193805Y-105738602D01*
X140251257Y-105681149D01*
X140366162Y-105623697D01*
X140595971Y-105623697D01*
X140710876Y-105681149D01*
X141285400Y-105623697D02*
X141285400Y-106428030D01*
X141285400Y-105738602D02*
X141342852Y-105681149D01*
X141457757Y-105623697D01*
X141630114Y-105623697D01*
X141745019Y-105681149D01*
X141802471Y-105796054D01*
X141802471Y-106428030D01*
X142894066Y-106428030D02*
X142894066Y-105796054D01*
X142836614Y-105681149D01*
X142721709Y-105623697D01*
X142491900Y-105623697D01*
X142376995Y-105681149D01*
X142894066Y-106370578D02*
X142779162Y-106428030D01*
X142491900Y-106428030D01*
X142376995Y-106370578D01*
X142319543Y-106255673D01*
X142319543Y-106140768D01*
X142376995Y-106025863D01*
X142491900Y-105968411D01*
X142779162Y-105968411D01*
X142894066Y-105910959D01*
X143296233Y-105623697D02*
X143755852Y-105623697D01*
X143468590Y-105221530D02*
X143468590Y-106255673D01*
X143526043Y-106370578D01*
X143640947Y-106428030D01*
X143755852Y-106428030D01*
X144330376Y-106428030D02*
X144215471Y-106370578D01*
X144158019Y-106313125D01*
X144100566Y-106198221D01*
X144100566Y-105853506D01*
X144158019Y-105738602D01*
X144215471Y-105681149D01*
X144330376Y-105623697D01*
X144502733Y-105623697D01*
X144617638Y-105681149D01*
X144675090Y-105738602D01*
X144732543Y-105853506D01*
X144732543Y-106198221D01*
X144675090Y-106313125D01*
X144617638Y-106370578D01*
X144502733Y-106428030D01*
X144330376Y-106428030D01*
X145249614Y-106428030D02*
X145249614Y-105623697D01*
X145249614Y-105853506D02*
X145307066Y-105738602D01*
X145364519Y-105681149D01*
X145479424Y-105623697D01*
X145594328Y-105623697D01*
X146053947Y-106428030D02*
X146283757Y-106428030D01*
X146398662Y-106370578D01*
X146456114Y-106313125D01*
X146571019Y-106140768D01*
X146628471Y-105910959D01*
X146628471Y-105451340D01*
X146571019Y-105336435D01*
X146513566Y-105278983D01*
X146398662Y-105221530D01*
X146168852Y-105221530D01*
X146053947Y-105278983D01*
X145996495Y-105336435D01*
X145939043Y-105451340D01*
X145939043Y-105738602D01*
X145996495Y-105853506D01*
X146053947Y-105910959D01*
X146168852Y-105968411D01*
X146398662Y-105968411D01*
X146513566Y-105910959D01*
X146571019Y-105853506D01*
X146628471Y-105738602D01*
%TO.C,DRIVER_GAUCHE1*%
X158368059Y-110512538D02*
X159287298Y-110857252D01*
X158368059Y-111201966D01*
X159689464Y-110110371D02*
X160091631Y-111316871D01*
X160493798Y-110110371D01*
X161413036Y-111316871D02*
X161413036Y-110684895D01*
X161355583Y-110569990D01*
X161240678Y-110512538D01*
X161010869Y-110512538D01*
X160895964Y-110569990D01*
X161413036Y-111259419D02*
X161298131Y-111316871D01*
X161010869Y-111316871D01*
X160895964Y-111259419D01*
X160838512Y-111144514D01*
X160838512Y-111029609D01*
X160895964Y-110914704D01*
X161010869Y-110857252D01*
X161298131Y-110857252D01*
X161413036Y-110799800D01*
X162159917Y-111316871D02*
X162045012Y-111259419D01*
X161987559Y-111144514D01*
X161987559Y-110110371D01*
X163136607Y-110512538D02*
X163136607Y-111316871D01*
X162619536Y-110512538D02*
X162619536Y-111144514D01*
X162676988Y-111259419D01*
X162791893Y-111316871D01*
X162964250Y-111316871D01*
X163079155Y-111259419D01*
X163136607Y-111201966D01*
X164170750Y-111259419D02*
X164055845Y-111316871D01*
X163826036Y-111316871D01*
X163711131Y-111259419D01*
X163653678Y-111144514D01*
X163653678Y-110684895D01*
X163711131Y-110569990D01*
X163826036Y-110512538D01*
X164055845Y-110512538D01*
X164170750Y-110569990D01*
X164228202Y-110684895D01*
X164228202Y-110799800D01*
X163653678Y-110914704D01*
X160908059Y-117793871D02*
X160908059Y-116587371D01*
X161195321Y-116587371D01*
X161367678Y-116644824D01*
X161482583Y-116759728D01*
X161540036Y-116874633D01*
X161597488Y-117104443D01*
X161597488Y-117276800D01*
X161540036Y-117506609D01*
X161482583Y-117621514D01*
X161367678Y-117736419D01*
X161195321Y-117793871D01*
X160908059Y-117793871D01*
X162574178Y-117736419D02*
X162459274Y-117793871D01*
X162229464Y-117793871D01*
X162114559Y-117736419D01*
X162057107Y-117621514D01*
X162057107Y-117161895D01*
X162114559Y-117046990D01*
X162229464Y-116989538D01*
X162459274Y-116989538D01*
X162574178Y-117046990D01*
X162631631Y-117161895D01*
X162631631Y-117276800D01*
X162057107Y-117391704D01*
X163091250Y-117736419D02*
X163206155Y-117793871D01*
X163435964Y-117793871D01*
X163550869Y-117736419D01*
X163608321Y-117621514D01*
X163608321Y-117564062D01*
X163550869Y-117449157D01*
X163435964Y-117391704D01*
X163263607Y-117391704D01*
X163148702Y-117334252D01*
X163091250Y-117219347D01*
X163091250Y-117161895D01*
X163148702Y-117046990D01*
X163263607Y-116989538D01*
X163435964Y-116989538D01*
X163550869Y-117046990D01*
X164125393Y-117793871D02*
X164125393Y-116989538D01*
X164125393Y-116587371D02*
X164067940Y-116644824D01*
X164125393Y-116702276D01*
X164182845Y-116644824D01*
X164125393Y-116587371D01*
X164125393Y-116702276D01*
X165216988Y-116989538D02*
X165216988Y-117966228D01*
X165159536Y-118081133D01*
X165102083Y-118138585D01*
X164987178Y-118196038D01*
X164814821Y-118196038D01*
X164699917Y-118138585D01*
X165216988Y-117736419D02*
X165102083Y-117793871D01*
X164872274Y-117793871D01*
X164757369Y-117736419D01*
X164699917Y-117678966D01*
X164642464Y-117564062D01*
X164642464Y-117219347D01*
X164699917Y-117104443D01*
X164757369Y-117046990D01*
X164872274Y-116989538D01*
X165102083Y-116989538D01*
X165216988Y-117046990D01*
X165791512Y-116989538D02*
X165791512Y-117793871D01*
X165791512Y-117104443D02*
X165848964Y-117046990D01*
X165963869Y-116989538D01*
X166136226Y-116989538D01*
X166251131Y-117046990D01*
X166308583Y-117161895D01*
X166308583Y-117793871D01*
X167400178Y-117793871D02*
X167400178Y-117161895D01*
X167342726Y-117046990D01*
X167227821Y-116989538D01*
X166998012Y-116989538D01*
X166883107Y-117046990D01*
X167400178Y-117736419D02*
X167285274Y-117793871D01*
X166998012Y-117793871D01*
X166883107Y-117736419D01*
X166825655Y-117621514D01*
X166825655Y-117506609D01*
X166883107Y-117391704D01*
X166998012Y-117334252D01*
X167285274Y-117334252D01*
X167400178Y-117276800D01*
X167802345Y-116989538D02*
X168261964Y-116989538D01*
X167974702Y-116587371D02*
X167974702Y-117621514D01*
X168032155Y-117736419D01*
X168147059Y-117793871D01*
X168261964Y-117793871D01*
X168836488Y-117793871D02*
X168721583Y-117736419D01*
X168664131Y-117678966D01*
X168606678Y-117564062D01*
X168606678Y-117219347D01*
X168664131Y-117104443D01*
X168721583Y-117046990D01*
X168836488Y-116989538D01*
X169008845Y-116989538D01*
X169123750Y-117046990D01*
X169181202Y-117104443D01*
X169238655Y-117219347D01*
X169238655Y-117564062D01*
X169181202Y-117678966D01*
X169123750Y-117736419D01*
X169008845Y-117793871D01*
X168836488Y-117793871D01*
X169755726Y-117793871D02*
X169755726Y-116989538D01*
X169755726Y-117219347D02*
X169813178Y-117104443D01*
X169870631Y-117046990D01*
X169985536Y-116989538D01*
X170100440Y-116989538D01*
X170560059Y-117793871D02*
X170789869Y-117793871D01*
X170904774Y-117736419D01*
X170962226Y-117678966D01*
X171077131Y-117506609D01*
X171134583Y-117276800D01*
X171134583Y-116817181D01*
X171077131Y-116702276D01*
X171019678Y-116644824D01*
X170904774Y-116587371D01*
X170674964Y-116587371D01*
X170560059Y-116644824D01*
X170502607Y-116702276D01*
X170445155Y-116817181D01*
X170445155Y-117104443D01*
X170502607Y-117219347D01*
X170560059Y-117276800D01*
X170674964Y-117334252D01*
X170904774Y-117334252D01*
X171019678Y-117276800D01*
X171077131Y-117219347D01*
X171134583Y-117104443D01*
%TO.C,G3*%
X147938570Y-96230285D02*
X148283284Y-95311047D01*
X148627998Y-96230285D01*
X147536403Y-94908880D02*
X148742903Y-94506713D01*
X147536403Y-94104547D01*
X148742903Y-93185308D02*
X148110927Y-93185308D01*
X147996022Y-93242761D01*
X147938570Y-93357666D01*
X147938570Y-93587475D01*
X147996022Y-93702380D01*
X148685451Y-93185308D02*
X148742903Y-93300213D01*
X148742903Y-93587475D01*
X148685451Y-93702380D01*
X148570546Y-93759832D01*
X148455641Y-93759832D01*
X148340736Y-93702380D01*
X148283284Y-93587475D01*
X148283284Y-93300213D01*
X148225832Y-93185308D01*
X148742903Y-92438427D02*
X148685451Y-92553332D01*
X148570546Y-92610785D01*
X147536403Y-92610785D01*
X147938570Y-91461737D02*
X148742903Y-91461737D01*
X147938570Y-91978808D02*
X148570546Y-91978808D01*
X148685451Y-91921356D01*
X148742903Y-91806451D01*
X148742903Y-91634094D01*
X148685451Y-91519189D01*
X148627998Y-91461737D01*
X148685451Y-90427594D02*
X148742903Y-90542499D01*
X148742903Y-90772308D01*
X148685451Y-90887213D01*
X148570546Y-90944666D01*
X148110927Y-90944666D01*
X147996022Y-90887213D01*
X147938570Y-90772308D01*
X147938570Y-90542499D01*
X147996022Y-90427594D01*
X148110927Y-90370142D01*
X148225832Y-90370142D01*
X148340736Y-90944666D01*
%TO.C,G5*%
D17*
X160553824Y-120818803D02*
X160496371Y-120933708D01*
X160496371Y-121106065D01*
X160553824Y-121278422D01*
X160668728Y-121393327D01*
X160783633Y-121450780D01*
X161013443Y-121508232D01*
X161185800Y-121508232D01*
X161415609Y-121450780D01*
X161530514Y-121393327D01*
X161645419Y-121278422D01*
X161702871Y-121106065D01*
X161702871Y-120991161D01*
X161645419Y-120818803D01*
X161587966Y-120761351D01*
X161185800Y-120761351D01*
X161185800Y-120991161D01*
X160496371Y-119669756D02*
X160496371Y-120244280D01*
X161070895Y-120301732D01*
X161013443Y-120244280D01*
X160955990Y-120129375D01*
X160955990Y-119842113D01*
X161013443Y-119727208D01*
X161070895Y-119669756D01*
X161185800Y-119612303D01*
X161473062Y-119612303D01*
X161587966Y-119669756D01*
X161645419Y-119727208D01*
X161702871Y-119842113D01*
X161702871Y-120129375D01*
X161645419Y-120244280D01*
X161587966Y-120301732D01*
%TO.C,G6*%
X145723500Y-107324023D02*
X145666047Y-107438928D01*
X145666047Y-107611285D01*
X145723500Y-107783642D01*
X145838404Y-107898547D01*
X145953309Y-107956000D01*
X146183119Y-108013452D01*
X146355476Y-108013452D01*
X146585285Y-107956000D01*
X146700190Y-107898547D01*
X146815095Y-107783642D01*
X146872547Y-107611285D01*
X146872547Y-107496381D01*
X146815095Y-107324023D01*
X146757642Y-107266571D01*
X146355476Y-107266571D01*
X146355476Y-107496381D01*
X145666047Y-106232428D02*
X145666047Y-106462238D01*
X145723500Y-106577142D01*
X145780952Y-106634595D01*
X145953309Y-106749500D01*
X146183119Y-106806952D01*
X146642738Y-106806952D01*
X146757642Y-106749500D01*
X146815095Y-106692047D01*
X146872547Y-106577142D01*
X146872547Y-106347333D01*
X146815095Y-106232428D01*
X146757642Y-106174976D01*
X146642738Y-106117523D01*
X146355476Y-106117523D01*
X146240571Y-106174976D01*
X146183119Y-106232428D01*
X146125666Y-106347333D01*
X146125666Y-106577142D01*
X146183119Y-106692047D01*
X146240571Y-106749500D01*
X146355476Y-106806952D01*
%TO.C,JP1*%
D19*
X166111863Y-78570252D02*
X166111863Y-79432038D01*
X166054411Y-79604395D01*
X165939506Y-79719300D01*
X165767149Y-79776752D01*
X165652244Y-79776752D01*
X166686387Y-79776752D02*
X166686387Y-78570252D01*
X167146006Y-78570252D01*
X167260911Y-78627705D01*
X167318363Y-78685157D01*
X167375816Y-78800062D01*
X167375816Y-78972419D01*
X167318363Y-79087324D01*
X167260911Y-79144776D01*
X167146006Y-79202228D01*
X166686387Y-79202228D01*
X168524863Y-79776752D02*
X167835435Y-79776752D01*
X168180149Y-79776752D02*
X168180149Y-78570252D01*
X168065244Y-78742609D01*
X167950339Y-78857514D01*
X167835435Y-78914966D01*
%TO.C,JP2*%
X132853104Y-91218183D02*
X132853104Y-92079969D01*
X132795652Y-92252326D01*
X132680747Y-92367231D01*
X132508390Y-92424683D01*
X132393485Y-92424683D01*
X133427628Y-92424683D02*
X133427628Y-91218183D01*
X133887247Y-91218183D01*
X134002152Y-91275636D01*
X134059604Y-91333088D01*
X134117057Y-91447993D01*
X134117057Y-91620350D01*
X134059604Y-91735255D01*
X134002152Y-91792707D01*
X133887247Y-91850159D01*
X133427628Y-91850159D01*
X134576676Y-91333088D02*
X134634128Y-91275636D01*
X134749033Y-91218183D01*
X135036295Y-91218183D01*
X135151199Y-91275636D01*
X135208652Y-91333088D01*
X135266104Y-91447993D01*
X135266104Y-91562897D01*
X135208652Y-91735255D01*
X134519223Y-92424683D01*
X135266104Y-92424683D01*
%TO.C,MOTEUR_D1*%
D17*
X137910953Y-123805636D02*
X136704453Y-123805636D01*
X137566239Y-123403469D01*
X136704453Y-123001302D01*
X137910953Y-123001302D01*
X136704453Y-122196969D02*
X136704453Y-121967159D01*
X136761906Y-121852255D01*
X136876810Y-121737350D01*
X137106620Y-121679898D01*
X137508786Y-121679898D01*
X137738596Y-121737350D01*
X137853501Y-121852255D01*
X137910953Y-121967159D01*
X137910953Y-122196969D01*
X137853501Y-122311874D01*
X137738596Y-122426778D01*
X137508786Y-122484231D01*
X137106620Y-122484231D01*
X136876810Y-122426778D01*
X136761906Y-122311874D01*
X136704453Y-122196969D01*
X136704453Y-121335183D02*
X136704453Y-120645755D01*
X137910953Y-120990469D02*
X136704453Y-120990469D01*
X137278977Y-120243588D02*
X137278977Y-119841421D01*
X137910953Y-119669064D02*
X137910953Y-120243588D01*
X136704453Y-120243588D01*
X136704453Y-119669064D01*
X136704453Y-119151993D02*
X137681144Y-119151993D01*
X137796048Y-119094540D01*
X137853501Y-119037088D01*
X137910953Y-118922183D01*
X137910953Y-118692374D01*
X137853501Y-118577469D01*
X137796048Y-118520017D01*
X137681144Y-118462564D01*
X136704453Y-118462564D01*
X137910953Y-117198612D02*
X137336429Y-117600778D01*
X137910953Y-117888040D02*
X136704453Y-117888040D01*
X136704453Y-117428421D01*
X136761906Y-117313517D01*
X136819358Y-117256064D01*
X136934263Y-117198612D01*
X137106620Y-117198612D01*
X137221525Y-117256064D01*
X137278977Y-117313517D01*
X137336429Y-117428421D01*
X137336429Y-117888040D01*
X138025858Y-116968802D02*
X138025858Y-116049564D01*
X137910953Y-115762302D02*
X136704453Y-115762302D01*
X136704453Y-115475040D01*
X136761906Y-115302683D01*
X136876810Y-115187778D01*
X136991715Y-115130326D01*
X137221525Y-115072874D01*
X137393882Y-115072874D01*
X137623691Y-115130326D01*
X137738596Y-115187778D01*
X137853501Y-115302683D01*
X137910953Y-115475040D01*
X137910953Y-115762302D01*
X137910953Y-113923826D02*
X137910953Y-114613255D01*
X137910953Y-114268540D02*
X136704453Y-114268540D01*
X136876810Y-114383445D01*
X136991715Y-114498350D01*
X137049167Y-114613255D01*
D20*
X134813983Y-131323866D02*
X134372749Y-131323866D01*
X134593366Y-131323866D02*
X134593366Y-130551706D01*
X134519827Y-130662015D01*
X134446288Y-130735554D01*
X134372749Y-130772323D01*
%TO.C,MOTEUR_G1*%
D17*
X171769153Y-123794205D02*
X170562653Y-123794205D01*
X171424439Y-123392038D01*
X170562653Y-122989871D01*
X171769153Y-122989871D01*
X170562653Y-122185538D02*
X170562653Y-121955728D01*
X170620106Y-121840824D01*
X170735010Y-121725919D01*
X170964820Y-121668467D01*
X171366986Y-121668467D01*
X171596796Y-121725919D01*
X171711701Y-121840824D01*
X171769153Y-121955728D01*
X171769153Y-122185538D01*
X171711701Y-122300443D01*
X171596796Y-122415347D01*
X171366986Y-122472800D01*
X170964820Y-122472800D01*
X170735010Y-122415347D01*
X170620106Y-122300443D01*
X170562653Y-122185538D01*
X170562653Y-121323752D02*
X170562653Y-120634324D01*
X171769153Y-120979038D02*
X170562653Y-120979038D01*
X171137177Y-120232157D02*
X171137177Y-119829990D01*
X171769153Y-119657633D02*
X171769153Y-120232157D01*
X170562653Y-120232157D01*
X170562653Y-119657633D01*
X170562653Y-119140562D02*
X171539344Y-119140562D01*
X171654248Y-119083109D01*
X171711701Y-119025657D01*
X171769153Y-118910752D01*
X171769153Y-118680943D01*
X171711701Y-118566038D01*
X171654248Y-118508586D01*
X171539344Y-118451133D01*
X170562653Y-118451133D01*
X171769153Y-117187181D02*
X171194629Y-117589347D01*
X171769153Y-117876609D02*
X170562653Y-117876609D01*
X170562653Y-117416990D01*
X170620106Y-117302086D01*
X170677558Y-117244633D01*
X170792463Y-117187181D01*
X170964820Y-117187181D01*
X171079725Y-117244633D01*
X171137177Y-117302086D01*
X171194629Y-117416990D01*
X171194629Y-117876609D01*
X171884058Y-116957371D02*
X171884058Y-116038133D01*
X170620106Y-115118895D02*
X170562653Y-115233800D01*
X170562653Y-115406157D01*
X170620106Y-115578514D01*
X170735010Y-115693419D01*
X170849915Y-115750871D01*
X171079725Y-115808324D01*
X171252082Y-115808324D01*
X171481891Y-115750871D01*
X171596796Y-115693419D01*
X171711701Y-115578514D01*
X171769153Y-115406157D01*
X171769153Y-115291252D01*
X171711701Y-115118895D01*
X171654248Y-115061443D01*
X171252082Y-115061443D01*
X171252082Y-115291252D01*
X171769153Y-113912395D02*
X171769153Y-114601824D01*
X171769153Y-114257109D02*
X170562653Y-114257109D01*
X170735010Y-114372014D01*
X170849915Y-114486919D01*
X170907367Y-114601824D01*
D20*
X168672183Y-131312435D02*
X168230949Y-131312435D01*
X168451566Y-131312435D02*
X168451566Y-130540275D01*
X168378027Y-130650584D01*
X168304488Y-130724123D01*
X168230949Y-130760892D01*
%TO.C,X1*%
D17*
X141131624Y-86197006D02*
X142338124Y-85392673D01*
X141131624Y-85392673D02*
X142338124Y-86197006D01*
X142338124Y-84301078D02*
X142338124Y-84990506D01*
X142338124Y-84645792D02*
X141131624Y-84645792D01*
X141303981Y-84760697D01*
X141418886Y-84875602D01*
X141476338Y-84990506D01*
D20*
X146811154Y-79190332D02*
X146369920Y-79190332D01*
X146590537Y-79190332D02*
X146590537Y-78418172D01*
X146516998Y-78528481D01*
X146443459Y-78602020D01*
X146369920Y-78638789D01*
%TD*%
M02*
